<svg width="534" height="512" viewBox="0 0 534 512" fill="none" xmlns="http://www.w3.org/2000/svg">
<rect x="51.2" width="409.6" height="512" rx="15" fill="url(#paint0_linear)"/>
<path fill-rule="evenodd" clip-rule="evenodd" d="M423.432 67.1976C416.846 64.4578 409.591 69.2973 409.591 76.4306V413.23L102.4 367.608L406.03 469.841C408.326 470.614 410.824 470.527 413.061 469.597L505.84 431.005C509.57 429.454 512 425.811 512 421.772V110.711C512 106.672 509.57 103.03 505.841 101.478L423.432 67.1976Z" fill="#007ACC"/>
<g filter="url(#filter0_d)">
<path fill-rule="evenodd" clip-rule="evenodd" d="M423.432 67.1976C416.846 64.4578 409.591 69.2973 409.591 76.4306V468.042C409.591 469.469 411.042 470.437 412.36 469.889L505.84 431.005C509.57 429.454 512 425.811 512 421.772V110.711C512 106.672 509.57 103.03 505.841 101.478L423.432 67.1976Z" fill="#1F9CF0"/>
</g>
<path style="mix-blend-mode:overlay" opacity="0.25" fill-rule="evenodd" clip-rule="evenodd" d="M423.432 67.1976C416.846 64.4578 409.591 69.2973 409.591 76.4306V413.23L102.4 367.608L406.03 469.841C408.326 470.614 410.824 470.527 413.061 469.597L505.84 431.005C509.57 429.454 512 425.811 512 421.772V110.711C512 106.672 509.57 103.03 505.841 101.478L423.432 67.1976Z" fill="url(#paint1_linear)"/>
<path d="M355.266 127.63L301.253 101.623C295.002 98.6129 287.53 99.8827 282.623 104.789L105.803 266.008C101.047 270.344 101.053 277.832 105.815 282.161L120.258 295.291C124.152 298.831 130.015 299.091 134.207 295.911L347.139 134.376C354.282 128.957 364.543 134.052 364.543 143.019V142.392C364.543 136.098 360.937 130.36 355.266 127.63Z" fill="#0065A9"/>
<g filter="url(#filter1_d)">
<path d="M355.266 333.171L301.253 359.177C295.002 362.187 287.53 360.917 282.623 356.011L105.803 194.793C101.047 190.456 101.053 182.969 105.815 178.639L120.258 165.509C124.152 161.969 130.015 161.709 134.207 164.889L347.139 326.424C354.282 331.843 364.543 326.748 364.543 317.781V318.409C364.543 324.702 360.937 330.44 355.266 333.171Z" fill="#007ACC"/>
</g>
<g filter="url(#filter2_d)">
<path d="M301.257 359.181C295.003 362.189 287.531 360.918 282.624 356.011C288.67 362.057 299.008 357.774 299.008 349.224V111.576C299.008 103.025 288.67 98.7431 282.624 104.789C287.531 99.8822 295.003 98.6106 301.257 101.618L355.26 127.589C360.935 130.318 364.544 136.057 364.544 142.354V318.447C364.544 324.743 360.935 330.483 355.26 333.212L301.257 359.181Z" fill="#1F9CF0"/>
</g>
<path style="mix-blend-mode:overlay" opacity="0.25" fill-rule="evenodd" clip-rule="evenodd" d="M288.131 359.682C292.26 361.29 296.968 361.187 301.135 359.182L355.106 333.212C360.778 330.483 364.384 324.743 364.384 318.447V142.354C364.384 136.058 360.778 130.318 355.107 127.589L301.135 101.618C295.667 98.9868 289.266 99.6314 284.465 103.121C283.78 103.619 283.127 104.176 282.513 104.789L179.192 199.051L134.188 164.889C129.998 161.709 124.138 161.97 120.247 165.509L105.813 178.639C101.054 182.969 101.048 190.456 105.801 194.793L144.831 230.4L105.801 266.008C101.048 270.344 101.054 277.832 105.813 282.161L120.247 295.291C124.138 298.831 129.998 299.091 134.188 295.911L179.192 261.749L282.513 356.011C284.148 357.646 286.068 358.878 288.131 359.682ZM298.888 170.89L220.491 230.4L298.888 289.91V170.89Z" fill="url(#paint2_linear)"/>
<defs>
<filter id="filter0_d" x="388.258" y="45.0868" width="145.075" height="446.291" filterUnits="userSpaceOnUse" color-interpolation-filters="sRGB">
<feFlood flood-opacity="0" result="BackgroundImageFix"/>
<feColorMatrix in="SourceAlpha" type="matrix" values="0 0 0 0 0 0 0 0 0 0 0 0 0 0 0 0 0 0 127 0"/>
<feOffset/>
<feGaussianBlur stdDeviation="10.6667"/>
<feColorMatrix type="matrix" values="0 0 0 0 0 0 0 0 0 0 0 0 0 0 0 0 0 0 0.25 0"/>
<feBlend mode="overlay" in2="BackgroundImageFix" result="effect1_dropShadow"/>
<feBlend mode="normal" in="SourceGraphic" in2="effect1_dropShadow" result="shape"/>
</filter>
<filter id="filter1_d" x="80.9065" y="141.335" width="304.97" height="240.792" filterUnits="userSpaceOnUse" color-interpolation-filters="sRGB">
<feFlood flood-opacity="0" result="BackgroundImageFix"/>
<feColorMatrix in="SourceAlpha" type="matrix" values="0 0 0 0 0 0 0 0 0 0 0 0 0 0 0 0 0 0 127 0"/>
<feOffset/>
<feGaussianBlur stdDeviation="10.6667"/>
<feColorMatrix type="matrix" values="0 0 0 0 0 0 0 0 0 0 0 0 0 0 0 0 0 0 0.25 0"/>
<feBlend mode="overlay" in2="BackgroundImageFix" result="effect1_dropShadow"/>
<feBlend mode="normal" in="SourceGraphic" in2="effect1_dropShadow" result="shape"/>
</filter>
<filter id="filter2_d" x="261.291" y="78.6703" width="124.587" height="303.459" filterUnits="userSpaceOnUse" color-interpolation-filters="sRGB">
<feFlood flood-opacity="0" result="BackgroundImageFix"/>
<feColorMatrix in="SourceAlpha" type="matrix" values="0 0 0 0 0 0 0 0 0 0 0 0 0 0 0 0 0 0 127 0"/>
<feOffset/>
<feGaussianBlur stdDeviation="10.6667"/>
<feColorMatrix type="matrix" values="0 0 0 0 0 0 0 0 0 0 0 0 0 0 0 0 0 0 0.25 0"/>
<feBlend mode="overlay" in2="BackgroundImageFix" result="effect1_dropShadow"/>
<feBlend mode="normal" in="SourceGraphic" in2="effect1_dropShadow" result="shape"/>
</filter>
<linearGradient id="paint0_linear" x1="256" y1="0" x2="256" y2="512" gradientUnits="userSpaceOnUse">
<stop stop-color="#3A3A3A"/>
<stop offset="1" stop-color="#262626"/>
</linearGradient>
<linearGradient id="paint1_linear" x1="307.2" y1="61.44" x2="307.2" y2="471.04" gradientUnits="userSpaceOnUse">
<stop stop-color="white"/>
<stop offset="1" stop-color="white" stop-opacity="0"/>
</linearGradient>
<linearGradient id="paint2_linear" x1="233.312" y1="100.004" x2="233.312" y2="360.796" gradientUnits="userSpaceOnUse">
<stop stop-color="white"/>
<stop offset="1" stop-color="white" stop-opacity="0"/>
</linearGradient>
</defs>
</svg>
