<svg width="1200" height="900" viewBox="0 0 1200 900" fill="none" xmlns="http://www.w3.org/2000/svg">
<g clip-path="url(#clip0)">
<rect width="1200" height="900" fill="white"/>
<rect x="-50" y="-190" width="1300" height="1300" fill="url(#paint0_angular)"/>
<rect x="-50" y="-190" width="1300" height="1300" fill="#101325" fill-opacity="0.9"/>
<mask id="mask0" mask-type="alpha" maskUnits="userSpaceOnUse" x="-50" y="-190" width="1300" height="1300">
<rect x="-50" y="-190" width="1300" height="1300" fill="url(#paint1_angular)"/>
<rect x="-50" y="-190" width="1300" height="1300" fill="#171717" fill-opacity="0.7"/>
</mask>
<g mask="url(#mask0)">
<path d="M-50 1352L1250 946M-50 1520L1250 1114M-50 1467L1250 1061M-50 1410L1250 1004M-50 1131L1250 725M-50 1299L1250 893M-50 1246L1250 840M-50 1189L1250 783M-50 905L1250 499M-50 1073L1250 667M-50 1020L1250 614M-50 963L1250 557M-50 684L1250 278M-50 852L1250 446M-50 799L1250 393M-50 742L1250 336M-50 454L1250 48M-50 622L1250 216M-50 569L1250 163M-50 512L1250 106M-50 233L1250 -173M-50 401L1250 -5M-50 348L1250 -58M-50 291L1250 -115M-50 7L1250 -399M-50 175L1250 -231M-50 122L1250 -284M-50 65L1250 -341M-50 -214L1250 -620M-50 -46L1250 -452M-50 -99L1250 -505M-50 -156L1250 -562" stroke="url(#paint2_angular)" stroke-opacity="0.2" stroke-width="3"/>
<g filter="url(#filter0_d)">
<path d="M226 554C227.6 550.4 736.448 246.678 736.448 246.678L974 659.5L226 554Z" fill="#061B37"/>
</g>
<g filter="url(#filter1_d)">
<path d="M266.815 479.525L273.281 479.063C292.643 484.627 302.726 493.021 303.528 504.244C299.218 512.563 282.579 554.83 253.613 631.043L246.041 646.911L313.068 637.706L321.808 638.185L328.274 637.722L328.43 639.918L325.259 640.145L325.494 643.439L331.96 642.977L332.117 645.173L321.643 651.316L324.301 657.625L330.767 657.163L341.233 666.347C341.372 668.299 320.305 673.769 278.032 682.758C260.238 687.709 236.078 695.648 205.551 706.577L204.453 706.656C200.468 706.941 193.18 701.617 182.589 690.684L182.511 689.586L183.539 688.532L182.362 687.513L181.586 676.655C181.325 672.995 184.267 668.412 190.413 662.904C220.054 597.269 240.828 541.956 252.734 496.962L251.401 493.747C255.333 484.719 260.471 479.978 266.815 479.525Z" fill="url(#paint3_linear)"/>
<path d="M425.355 482.906C444.956 481.505 457.367 486.463 462.591 497.779C465.85 507.928 470.365 528.205 476.135 558.61L477.311 559.629C478.061 564.399 479.249 566.725 480.876 566.609L513.396 560.116L513.544 562.189L514.642 562.111L530.919 559.966L531.059 561.918L524.009 564.507L524.088 565.605L531.286 565.09L538.405 563.478L538.553 565.552C531.756 568.817 526.406 570.589 522.502 570.868L522.65 572.942L527.696 571.478C532.512 572.523 534.969 573.737 535.068 575.12L540.235 573.647C553.927 573.077 560.858 573.971 561.027 576.33L559.998 577.384L567.344 578.943L567.492 581.017C558.564 586.478 539.705 591.955 510.914 597.446L492.711 601.813C504.064 635.988 510.185 659.297 511.075 671.741L511.363 675.766L508.54 679.156L507.442 679.235C505.164 679.397 502.73 678.509 500.139 676.569L500.366 679.74L498.292 679.889L498.144 677.815L495.12 680.115L490.868 677.231L480.917 682.112L472.037 674.531C468.226 669.245 461.657 649.401 452.332 614.999L451.356 615.069C409.1 630.024 388.211 640.836 388.687 647.505C386.044 649.411 378.586 660.57 366.312 680.985C361.99 686.852 358.406 689.888 355.559 690.091L353.119 685.116L352.213 686.162L351.237 686.231C346.915 684.088 344.646 681.512 344.431 678.503L343.525 679.548L341.451 679.697L341.303 677.623C338.456 677.826 335.586 675.988 332.693 672.107C329.928 672.305 328.496 671.712 328.397 670.33L327.883 663.132C327.336 655.487 334.646 642.253 349.813 623.43C355.976 611.3 366.13 594.389 380.274 572.697L410.77 508.718L416.372 487.595C419.84 484.649 422.834 483.087 425.355 482.906ZM424.298 583.038L424.367 584.014C435.782 580.173 441.452 577.724 441.376 576.667L437.149 560.416C435.337 561.363 431.053 568.903 424.298 583.038ZM518.45 558.773L520.524 558.625L520.672 560.699L518.598 560.847L518.45 558.773ZM520.062 565.892L520.132 566.868L522.206 566.72L522.136 565.744L520.062 565.892Z" fill="url(#paint4_linear)"/>
<path d="M602.377 461.792L611.892 461.112C659.307 457.723 688.397 471.297 699.164 501.836L700.724 508.223L700.951 511.395C701.619 520.748 681.465 537.843 640.488 562.679C654.368 607.056 661.948 638.19 663.227 656.082L664.403 657.102L664.473 658.078L663.611 661.45L665.389 670.887L664.369 672.064L662.296 672.212C662.092 669.365 661.258 667.994 659.794 668.099C659.946 670.214 659.33 671.32 657.947 671.419L655.751 671.576L654.697 670.548L653.599 670.626C652.745 673.549 651.79 675.047 650.732 675.123L645.286 674.409L643.369 676.753C642.625 673.209 640.708 671.548 637.618 671.769C624.429 646.226 612.371 616.475 601.442 582.514L554.763 601.914C551.086 612.231 547.952 618.137 545.361 619.63L544.647 625.076L541.475 625.303L544.908 613.286L544.829 612.188L543.731 612.267L539.201 624.362L541.554 626.401C538.87 626.592 534.072 634.374 527.16 649.746C526.189 649.897 524.406 654.684 521.81 664.107C520.346 664.211 517.314 671.54 512.714 686.092L511.616 686.171C511.383 682.918 507.642 680.324 500.392 678.39L498.475 680.734C498.37 679.27 497.22 678.617 495.024 678.774L491.931 680.098C490.113 676.386 487.847 674.423 485.134 674.208L484.898 670.914C483.672 653.754 499.758 604.906 533.157 524.37C517.553 515.349 509.53 507.748 509.088 501.567L508.713 496.321C509.015 492.54 521.652 485.219 546.626 474.36C549.797 468.412 568.381 464.222 602.377 461.792ZM574.34 548.157L576.536 548C617.769 526.742 642.553 510.379 650.889 498.911L650.81 497.813L629.513 498.354L627.44 498.502C600.52 500.427 587.286 504.561 587.74 510.904C580.892 532.893 576.425 545.31 574.34 548.157Z" fill="url(#paint5_linear)"/>
<path d="M813.261 456.405L816.799 456.152C837.293 454.687 852.16 462.534 861.397 479.694C860.684 496.012 858.578 504.297 855.081 504.547L853.861 504.634C849.063 504.977 840.805 503.237 829.087 499.415L805.865 498.746C763.818 501.751 729.637 521.606 703.323 558.311C692.159 575.948 687.271 594.486 688.661 613.923C689.434 624.74 697.913 629.57 714.097 628.413C723.857 627.716 737.502 623.634 755.034 616.168L754.956 615.07L753.736 615.157L720.475 619.865C720.324 617.75 717.039 615.246 710.62 612.354L711.639 611.177L711.552 609.957L704.72 610.446L704.554 608.128L711.308 606.541L711.229 605.444L701.992 604.878L701.827 602.56L705.242 602.316L705.164 601.218L699.43 601.627L699.343 600.408L701.417 596.826C695.968 597.216 693.188 596.638 693.078 595.092C692.711 589.969 739.315 575.806 832.889 552.605C841.754 551.971 848.685 556.871 853.682 567.304L855.154 570.755C855.724 578.725 850.92 587.57 840.743 597.289C841.284 604.853 823.151 621.64 786.345 647.65C769.005 658.944 751.633 665.213 734.228 666.457L723.859 667.198C689.294 669.669 664.888 653.593 650.642 618.971L648.803 608.68L648.306 601.726C646.318 573.911 665.475 538.863 705.777 496.581C736.118 472.75 771.945 459.358 813.261 456.405Z" fill="url(#paint6_linear)"/>
<path d="M985.237 441.904C985.435 444.67 986.916 445.953 989.681 445.756L989.829 447.83L986.658 448.056L986.736 449.154C990.233 448.904 992.031 449.471 992.13 450.853L992.209 451.951L988.061 452.248C988.212 454.362 990.361 455.271 994.509 454.975L994.657 457.049L991.486 457.275L991.555 458.251L1004.12 457.353L1014.01 461.919L1012.99 463.095L1013.06 464.071C1016.56 463.821 1018.36 464.428 1018.46 465.892C1018.64 468.413 1005.91 472.103 980.263 476.961C971.48 477.588 955.115 483.663 931.17 495.184L921.229 519.069L922.327 518.991C925.969 517.341 936.71 515.51 954.55 513.499L956.851 516.523L953.758 517.848L953.827 518.823C959.439 518.422 962.294 518.913 962.393 520.296L957.305 522.867L957.374 523.842L959.448 523.694L958.699 526.936C958.949 530.433 961.915 533.041 967.596 534.76L967.666 535.736L966.769 536.904L966.838 537.88C970.335 537.63 972.136 538.237 972.241 539.701L972.311 540.677C972.462 542.792 950.861 549.935 907.507 562.108C902.058 562.497 895.813 573.489 888.774 595.082L963.268 577.128L963.416 579.202L964.514 579.123L969.681 577.65C970.826 581.083 972.699 582.707 975.302 582.521L975.529 585.693C973.821 585.815 972.148 586.997 970.51 589.24L968.314 589.397L968.383 590.372L974.727 589.919L974.884 592.115L969.638 592.49L970.806 593.387L970.884 594.485L969.856 595.54C980.185 594.801 985.881 596.152 986.944 599.591L986.047 600.758C989.579 600.996 991.403 601.929 991.519 603.555C985.623 607.982 965.053 614.684 929.809 623.662C888.43 633.731 867.938 641.531 868.334 647.062C867.619 650.791 864.712 654.146 859.612 657.127L858.514 657.205L851.917 652.404L849.721 652.561L844.554 654.034C844.426 652.245 840.845 650.743 833.809 649.529L830.707 650.732L829.54 649.835L829.461 648.737L830.332 645.486L828.259 645.635L827.239 646.811L826.263 646.881L825.087 645.861L825.017 644.885C829.309 623.734 850.939 563.249 889.908 463.433C889.408 456.438 893.989 451.901 903.649 449.821L944.596 447.997L985.237 441.904Z" fill="url(#paint7_linear)"/>
</g>
<g filter="url(#filter2_d)">
<path d="M190.611 456.473L241.067 452.679C257.19 451.737 272.459 443.032 281.421 429.403C281.917 428.826 281.857 428.021 281.796 427.216C281.736 426.411 281.138 425.646 280.561 425.149L175.752 359.347L181.213 352.999L285.465 418.573C286.31 419.049 287.115 418.989 287.921 418.928C288.706 418.599 289.47 418.002 289.947 417.157C292.287 412.392 293.803 407.42 294.741 401.952C294.929 400.858 294.291 399.557 293.446 399.08L195.152 337.377L200.881 331.008L289.545 386.688C290.679 387.413 291.753 387.332 292.786 386.715C293.799 385.829 294.523 384.695 294.154 383.373C291.616 371.149 284.595 360.341 274.328 353.016C274.308 352.747 274.308 352.747 274.308 352.747L214.801 315.118L267.809 255.534C268.534 254.399 268.701 253.037 268.084 252.004C267.466 250.971 266.332 250.247 265.259 250.327L144.756 259.387C143.146 259.508 141.905 260.951 142.026 262.561C142.167 264.44 143.61 265.681 145.22 265.56L258.208 257.065L207.682 313.763C207.205 314.609 206.998 315.434 207.058 316.239C207.119 317.045 207.736 318.078 208.313 318.574L270.914 357.861C277.49 362.764 282.577 369.399 285.867 377.249L201.739 324.466C200.585 323.474 198.994 323.863 198.002 325.017L188.033 336.023C187.537 336.6 187.329 337.425 187.41 338.499C187.47 339.304 188.068 340.069 188.913 340.545L288.34 402.973C287.757 405.986 286.885 408.75 285.745 411.535L182.339 346.437C180.936 345.733 179.326 345.854 178.333 347.008L168.653 358.262C168.157 358.839 167.949 359.664 168.01 360.469C168.09 361.543 168.688 362.308 169.265 362.804L274.342 428.586C266.501 439.162 254.042 445.766 240.603 446.507L190.147 450.3C175.655 451.389 161.423 445.172 152.215 433.989C151.041 432.728 149.142 432.601 147.881 433.775C146.599 434.681 146.204 436.6 147.378 437.861C158.049 450.554 173.972 457.724 190.611 456.473Z" fill="white"/>
<path d="M389.456 357.312L327.865 361.943L327.333 354.866L388.924 350.236L389.456 357.312Z" fill="white"/>
<path d="M426.349 267.905C427.214 268.649 428.556 268.549 429.589 267.931C430.354 267.334 431.079 266.2 430.998 265.126L429.182 240.972C429.061 239.362 427.618 238.121 425.739 238.262C424.129 238.383 422.888 239.826 423.009 241.436L424.361 259.418L395.721 241.059C394.876 240.582 393.514 240.415 392.48 241.032C391.447 241.65 390.991 242.764 391.072 243.837L392.585 263.966C392.646 264.771 393.263 265.804 394.109 266.28L426.439 287.061L437.557 434.938C437.678 436.548 439.121 437.789 440.731 437.668C442.61 437.527 443.851 436.084 443.73 434.474L432.491 284.986C432.43 284.181 431.813 283.148 430.967 282.672L398.637 261.891L397.709 249.546L426.349 267.905Z" fill="white"/>
<path d="M643.423 341.46C644.289 342.205 645.631 342.104 646.396 341.507C647.429 340.889 648.153 339.755 648.072 338.681L639.537 225.157C639.416 223.547 637.973 222.306 636.095 222.447C634.485 222.568 633.243 224.011 633.365 225.621L641.436 332.973L487.453 234.162C486.607 233.686 485.245 233.518 484.212 234.136C483.179 234.753 482.723 235.867 482.803 236.941L484.317 257.069C484.377 257.874 484.995 258.907 485.84 259.384L643.514 360.616L644.442 372.961L490.459 274.151C489.614 273.674 488.251 273.507 487.218 274.124C486.185 274.742 485.729 275.856 485.81 276.929L487.323 297.058C487.384 297.863 488.001 298.896 488.847 299.372L646.52 400.604L647.448 412.95L493.465 314.139C492.6 313.394 491.258 313.495 490.225 314.113C489.192 314.73 488.736 315.844 488.816 316.918L497.351 430.442C497.472 432.053 498.915 433.294 500.525 433.172C502.404 433.031 503.645 431.588 503.524 429.978L495.453 322.626L649.436 421.437C649.993 421.665 650.55 421.893 651.087 421.853C651.623 421.813 652.16 421.772 652.408 421.484C653.442 420.866 654.166 419.732 654.085 418.659L652.572 398.53C652.511 397.725 651.894 396.692 651.048 396.216L493.375 294.983L492.447 282.638L646.43 381.449C647.275 381.925 648.637 382.092 649.402 381.495C650.435 380.878 651.16 379.744 651.079 378.67L649.566 358.542C649.505 357.736 648.888 356.703 648.042 356.227L490.368 254.995L489.44 242.649L643.423 341.46Z" fill="white"/>
<path d="M862.007 371.988L702.394 270.092C717.143 240.104 746.427 220.359 779.706 217.857C804.665 215.981 829.009 223.867 848.054 240.248C849.208 241.241 851.087 241.1 852.348 239.925C853.341 238.771 853.18 236.624 852.025 235.631C831.826 218.257 805.812 209.687 779.242 211.685C743.011 214.409 710.956 236.791 695.893 269.771C695.188 271.174 695.578 272.764 697 273.736L855.499 375.177C853.266 377.774 850.743 380.122 848.201 382.203C830.613 370.84 695.372 284.385 694.795 283.888C693.949 283.412 692.876 283.493 691.822 283.842C691.037 284.171 690.273 284.768 690.085 285.862C688.63 291.639 687.464 297.665 687.102 303.629C686.915 304.723 687.532 305.756 688.378 306.232C689.223 306.709 803.783 380.144 828.155 395.585C824.518 397.478 820.862 399.103 816.897 400.21L697.533 323.897C690.728 319.551 690.728 319.551 688.91 320.497C687.877 321.114 687.421 322.228 687.502 323.302C688.376 331.333 690.303 339.015 693.015 346.368C693.095 347.442 693.652 347.67 698.477 350.816L783.799 405.128C757.565 404.401 732.361 392.261 714.913 371.982C714.007 370.7 711.819 370.325 710.558 371.499C709.297 372.674 709.17 374.572 710.344 375.834C731.068 400.186 762.297 413.492 794.234 411.091C795.576 410.99 796.589 410.104 797.025 408.722C797.212 407.628 796.843 406.306 795.709 405.582C794.843 404.837 708.098 349.553 698.469 343.529C696.764 338.799 695.596 334.029 694.696 329.238C719.088 344.948 813.791 405.572 814.925 406.296C815.771 406.773 816.596 406.98 817.381 406.651C823.701 404.557 829.981 401.926 835.663 398.53C836.717 398.18 837.173 397.067 837.092 395.993C837.28 394.899 836.662 393.866 835.817 393.39L698.019 305.238C696.019 303.769 694.329 302.816 693.194 302.092C693.737 298.542 694.28 294.993 695.091 291.423C695.957 292.168 696.803 292.644 697.937 293.368L846.806 388.785C847.94 389.51 849.551 389.389 850.564 388.503C854.884 384.939 858.895 380.859 862.618 376.531C863.115 375.954 863.323 375.128 863.242 374.055C863.181 373.25 862.584 372.485 862.007 371.988Z" fill="white"/>
<path d="M1048.79 192.229C1047.18 192.35 1045.67 193.813 1045.79 195.424L1060.27 388.12C1060.4 389.73 1062.11 390.951 1063.72 390.83C1065.33 390.709 1066.57 389.266 1066.45 387.656L1051.96 194.96C1051.84 193.349 1050.4 192.108 1048.79 192.229ZM1032.23 287.938L1005.66 289.935C1005.12 289.976 1004.34 290.305 1003.82 290.613L909.883 372.977L908.955 360.632L981.373 297.159C982.406 296.542 982.554 294.911 982.204 293.858C981.567 292.557 980.433 291.832 979.091 291.933L952.521 293.931C951.716 293.991 951.2 294.3 950.683 294.609C950.683 294.609 919.052 322.627 906.896 333.257L905.968 320.912L928.234 301.154C929.267 300.537 929.414 298.907 929.065 297.853C928.428 296.552 927.294 295.827 925.952 295.928L904.213 297.563L897.312 205.777C897.191 204.166 895.748 202.925 893.87 203.067C892.259 203.188 891.018 204.631 891.139 206.241L898.262 300.979C898.403 302.857 899.846 304.098 901.456 303.977L917.291 302.787L900.835 317.249C900.07 317.846 899.594 318.692 899.674 319.765L901.168 339.625C901.188 339.894 901.188 339.894 901.188 339.894L901.208 340.162C901.208 340.162 901.228 340.431 901.517 340.679C901.537 340.947 901.557 341.216 901.846 341.464C901.846 341.464 902.134 341.712 902.423 341.96C902.711 342.208 902.711 342.208 902.98 342.188C903.825 342.664 904.094 342.644 904.63 342.604C905.684 342.255 906.2 341.946 906.676 341.101C908.226 340.174 910.232 338.134 913.788 335.168L954.059 300.023L970.43 298.792L903.841 357.238C903.076 357.835 902.6 358.68 902.681 359.754L904.174 379.614C904.275 380.956 904.872 381.721 905.986 382.177C907.1 382.633 908.442 382.532 909.187 381.666L1007.2 296.027L1023.57 294.797L906.848 397.226C905.566 398.132 905.439 400.031 906.345 401.312C907.211 402.057 908.056 402.533 908.861 402.473C909.667 402.412 910.183 402.103 910.7 401.795L1034.51 293.164C1035.55 292.547 1035.69 290.916 1035.34 289.863C1034.71 288.561 1033.57 287.837 1032.23 287.938Z" fill="white"/>
</g>
</g>
</g>
<defs>
<filter id="filter0_d" x="126" y="146.678" width="948" height="612.822" filterUnits="userSpaceOnUse" color-interpolation-filters="sRGB">
<feFlood flood-opacity="0" result="BackgroundImageFix"/>
<feColorMatrix in="SourceAlpha" type="matrix" values="0 0 0 0 0 0 0 0 0 0 0 0 0 0 0 0 0 0 127 0"/>
<feOffset/>
<feGaussianBlur stdDeviation="50"/>
<feColorMatrix type="matrix" values="0 0 0 0 0.337255 0 0 0 0 0.8 0 0 0 0 0.94902 0 0 0 1 0"/>
<feBlend mode="normal" in2="BackgroundImageFix" result="effect1_dropShadow"/>
<feBlend mode="normal" in="SourceGraphic" in2="effect1_dropShadow" result="shape"/>
</filter>
<filter id="filter1_d" x="68" y="326" width="1063.55" height="483.594" filterUnits="userSpaceOnUse" color-interpolation-filters="sRGB">
<feFlood flood-opacity="0" result="BackgroundImageFix"/>
<feColorMatrix in="SourceAlpha" type="matrix" values="0 0 0 0 0 0 0 0 0 0 0 0 0 0 0 0 0 0 127 0"/>
<feOffset/>
<feGaussianBlur stdDeviation="50"/>
<feColorMatrix type="matrix" values="0 0 0 0 1 0 0 0 0 0 0 0 0 0 0.960784 0 0 0 1 0"/>
<feBlend mode="normal" in2="BackgroundImageFix" result="effect1_dropShadow"/>
<feBlend mode="normal" in="SourceGraphic" in2="effect1_dropShadow" result="shape"/>
</filter>
<filter id="filter2_d" x="33.4478" y="91.1782" width="1133.22" height="468.472" filterUnits="userSpaceOnUse" color-interpolation-filters="sRGB">
<feFlood flood-opacity="0" result="BackgroundImageFix"/>
<feColorMatrix in="SourceAlpha" type="matrix" values="0 0 0 0 0 0 0 0 0 0 0 0 0 0 0 0 0 0 127 0"/>
<feOffset/>
<feGaussianBlur stdDeviation="50"/>
<feColorMatrix type="matrix" values="0 0 0 0 0 0 0 0 0 1 0 0 0 0 0.416667 0 0 0 1 0"/>
<feBlend mode="normal" in2="BackgroundImageFix" result="effect1_dropShadow"/>
<feBlend mode="normal" in="SourceGraphic" in2="effect1_dropShadow" result="shape"/>
</filter>
<radialGradient id="paint0_angular" cx="0" cy="0" r="1" gradientUnits="userSpaceOnUse" gradientTransform="translate(600 460) rotate(90) scale(650)">
<stop stop-color="#FF004D"/>
<stop offset="0.381215" stop-color="#00FF6A"/>
<stop offset="0.718232" stop-color="#0500FF"/>
</radialGradient>
<radialGradient id="paint1_angular" cx="0" cy="0" r="1" gradientUnits="userSpaceOnUse" gradientTransform="translate(600 460) rotate(41.373) scale(648.301)">
<stop offset="0.133692" stop-color="#FF004D"/>
<stop offset="0.498947" stop-color="#00FF6A"/>
<stop offset="0.777522" stop-color="#0500FF"/>
</radialGradient>
<radialGradient id="paint2_angular" cx="0" cy="0" r="1" gradientUnits="userSpaceOnUse" gradientTransform="translate(600 450) rotate(90) scale(664 650)">
<stop stop-color="#FF005C"/>
<stop offset="0.364641" stop-color="#00FF6A"/>
<stop offset="0.690608" stop-color="#006DFF"/>
</radialGradient>
<linearGradient id="paint3_linear" x1="591.806" y1="456.294" x2="607.747" y2="679.299" gradientUnits="userSpaceOnUse">
<stop stop-color="#FF00F5"/>
<stop offset="1" stop-color="#FF855F"/>
</linearGradient>
<linearGradient id="paint4_linear" x1="591.806" y1="456.294" x2="607.747" y2="679.299" gradientUnits="userSpaceOnUse">
<stop stop-color="#FF00F5"/>
<stop offset="1" stop-color="#FF855F"/>
</linearGradient>
<linearGradient id="paint5_linear" x1="591.806" y1="456.294" x2="607.747" y2="679.299" gradientUnits="userSpaceOnUse">
<stop stop-color="#FF00F5"/>
<stop offset="1" stop-color="#FF855F"/>
</linearGradient>
<linearGradient id="paint6_linear" x1="591.806" y1="456.294" x2="607.747" y2="679.299" gradientUnits="userSpaceOnUse">
<stop stop-color="#FF00F5"/>
<stop offset="1" stop-color="#FF855F"/>
</linearGradient>
<linearGradient id="paint7_linear" x1="591.806" y1="456.294" x2="607.747" y2="679.299" gradientUnits="userSpaceOnUse">
<stop stop-color="#FF00F5"/>
<stop offset="1" stop-color="#FF855F"/>
</linearGradient>
<clipPath id="clip0">
<rect width="1200" height="900" fill="white"/>
</clipPath>
</defs>
</svg>
