<svg width="800" height="600" viewBox="0 0 800 600" fill="none" xmlns="http://www.w3.org/2000/svg">
<g clip-path="url(#clip0)">
<rect width="800" height="600" fill="#FF3D00"/>
<g filter="url(#filter0_d)">
<g clip-path="url(#clip1)">
<rect x="-5" y="111" width="812" height="375" fill="#000011"/>
<g clip-path="url(#clip2)">
<path d="M757 129V469" stroke="white" stroke-width="10" stroke-dasharray="2 10"/>
<path d="M674.047 453.303L672.426 454.924L670.785 453.303H668.002L666.303 455.002L666.244 453.303H665.131V463H666.361V456.184L668.109 454.416H670.189L671.342 455.559V463H672.582V455.979L674.145 454.416H676.488L677.543 455.48V463H678.783V455.021L677.084 453.303H674.047ZM684.096 453.303L682.055 455.344V460.959L684.096 463H688.852L690.609 461.242L689.789 460.422L688.334 461.896H684.652L683.295 460.539V458.557H690.609V455.344L688.568 453.303H684.096ZM683.295 455.783L684.652 454.416H688.012L689.369 455.783V457.482H683.295V455.783ZM699.857 453.303H696.537V449.396H695.619L695.355 453.303H692.738V454.416H695.297V461.203L697.113 463H699.857V461.877H697.699L696.537 460.725V454.416H699.857V453.303ZM703.9 455.52L703.842 453.303H702.729V463H703.959V456.701L706.107 454.543H708.061V453.303H706.127L703.9 455.52ZM712.416 453.303L710.375 455.344V460.959L712.416 463H717.172L718.93 461.242L718.109 460.422L716.654 461.896H712.973L711.615 460.539V458.557H718.93V455.344L716.889 453.303H712.416ZM711.615 455.783L712.973 454.416H716.332L717.689 455.783V457.482H711.615V455.783ZM723.676 457.355L722.914 456.604V455.363L723.881 454.416H727.514L728.734 455.637L729.555 454.816L728.041 453.303H723.314L721.674 454.943V457.023L723.1 458.439L727.836 458.762L728.598 459.523V460.939L727.641 461.896H723.48L722.162 460.578L721.342 461.398L722.934 463H728.197L729.838 461.359V459.104L728.422 457.678L723.676 457.355Z" fill="white"/>
<path d="M719.336 287.448L727.413 295.448C729.389 297.404 729.389 300.596 727.413 302.552L719.336 310.552C718.4 311.48 717.136 312 715.818 312H666C663.239 312 661 309.761 661 307V291C661 288.239 663.239 286 666 286H715.818C717.136 286 718.4 286.52 719.336 287.448Z" fill="white"/>
<path d="M673.414 292.396L671.012 294.799V303.598L673.414 306H678.854L681.256 303.598V294.799L678.854 292.396H673.414ZM674.811 303.402L673.932 302.523V295.883L674.811 295.004H677.457L678.336 295.883V302.523L677.457 303.402H674.811ZM690.865 292.396H687.789L683.707 294.896L685.064 297.123L687.945 295.355V303.402H684.605V306H694.205V303.402H690.865V292.396ZM704.791 300.121L706.812 298.1V294.604L704.615 292.396H698.893L696.9 294.398L698.873 296.381L700.26 295.004H703.238L703.893 295.658V297.064L703.072 297.885L698.912 298.822L696.9 300.844V306H706.812V303.402H699.82V301.879L700.631 301.059L704.791 300.121Z" fill="black"/>
<path d="M707.23 149L701.918 135.396H698.891L693.578 149H696.654L697.592 146.363H703.07L704.018 149H707.23ZM700.336 138.697L702.113 143.678H698.559L700.336 138.697ZM712.611 135.396H709.613V149H719.779V146.324H712.611V135.396ZM718.598 135.396V138.082H722.895V149H725.893V138.082H730.199V135.396H718.598Z" fill="white"/>
</g>
<path d="M354.027 453.303L352.006 455.344V448.596H350.775V463H356.488L359.174 460.305V455.344L357.133 453.303H354.027ZM352.006 461.877V456.564L354.154 454.416H356.547L357.934 455.822V459.924L355.971 461.877H352.006ZM363.666 453.303L362.045 454.924L362.865 455.744L364.213 454.416H367.953L369.027 455.48V457.355L363.188 457.736L361.771 459.162V461.359L363.412 463H367.074L369.086 460.979L369.145 463H370.268V455.021L368.549 453.303H363.666ZM363.969 461.896L363.012 460.939V459.582L363.773 458.82L369.027 458.459V459.816L366.947 461.896H363.969ZM379.916 453.303H376.596V449.396H375.678L375.414 453.303H372.797V454.416H375.355V461.203L377.172 463H379.916V461.877H377.758L376.596 460.725V454.416H379.916V453.303ZM388.803 453.303H385.482V449.396H384.564L384.301 453.303H381.684V454.416H384.242V461.203L386.059 463H388.803V461.877H386.645L385.482 460.725V454.416H388.803V453.303ZM393.354 453.303L391.312 455.344V460.959L393.354 463H398.109L399.867 461.242L399.047 460.422L397.592 461.896H393.91L392.553 460.539V458.557H399.867V455.344L397.826 453.303H393.354ZM392.553 455.783L393.91 454.416H397.27L398.627 455.783V457.482H392.553V455.783ZM404.271 455.52L404.213 453.303H403.1V463H404.33V456.701L406.479 454.543H408.432V453.303H406.498L404.271 455.52ZM414.74 461.34L411.342 453.303H410.004L414.086 462.805L413.1 465.217L412.24 466.076H410.688V467.199H412.738L414.164 465.783L419.184 453.303H417.904L414.74 461.34ZM428.959 449.396L426.557 451.799V460.598L428.959 463H434.398L436.801 460.598V451.799L434.398 449.396H428.959ZM430.355 460.402L429.477 459.523V452.883L430.355 452.004H433.002L433.881 452.883V459.523L433.002 460.402H430.355ZM444.926 454.357V450.676L443.646 449.396H440.365L439.086 450.676V454.357L440.365 455.637H443.646L444.926 454.357ZM440.346 463H442.289L450.873 449.396H448.93L440.346 463ZM441.186 450.979H442.826L443.168 451.32V453.723L442.826 454.064H441.186L440.854 453.723V451.32L441.186 450.979ZM447.572 456.76L446.293 458.039V461.721L447.572 463H450.854L452.133 461.721V458.039L450.854 456.76H447.572ZM448.393 461.418L448.051 461.076V458.684L448.393 458.342H450.033L450.365 458.684V461.076L450.033 461.418H448.393Z" fill="white"/>
<path d="M380.824 135.396H379.477L375.102 137.916L375.678 138.902L379.564 136.637V147.857H375.58V149H384.799V147.857H380.824V135.396ZM389.77 141.002V136.539H397.172V135.396H388.568V142.145H395.131L396.449 143.463V146.539L395.131 147.857H390.59L388.734 145.982L387.895 146.822L390.072 149H395.668L397.709 146.959V143.023L395.668 141.002H389.77ZM402.035 135.396L400.482 136.959V141.178L402.035 142.74H405.58L407.123 141.178V136.959L405.58 135.396H402.035ZM402.582 141.725L401.645 140.797V137.34L402.582 136.402H405.023L405.961 137.34V140.797L405.023 141.725H402.582ZM423.578 142.857L418.402 135.396H415.062V149H418.5V140.982L424.057 149H427.016V135.396H423.578V142.857Z" fill="white"/>
<path d="M401 307L392 291H410L401 307Z" stroke="white" stroke-width="3" stroke-linejoin="bevel"/>
<g clip-path="url(#clip3)">
<path d="M45 129V469" stroke="white" stroke-width="10" stroke-dasharray="2 10"/>
<path d="M75.5605 458.02L80.6191 453.303H79.0176L74.1152 457.883V448.596H72.8848V463H74.1152V458.264L79.2227 463H80.9219L75.5605 458.02ZM92.3281 453.303L90.707 454.924L89.0664 453.303H86.2832L84.584 455.002L84.5254 453.303H83.4121V463H84.6426V456.184L86.3906 454.416H88.4707L89.623 455.559V463H90.8633V455.979L92.4258 454.416H94.7695L95.8242 455.48V463H97.0645V455.021L95.3652 453.303H92.3281ZM100.57 465.002L107.592 448.596H106.352L99.3301 465.002H100.57ZM113.441 453.303L111.42 455.344V448.596H110.189V463H111.42V456.564L113.568 454.416H116.088L117.143 455.48V463H118.383V455.021L116.664 453.303H113.441Z" fill="white"/>
<path d="M82.6635 287.448L74.5866 295.448C72.6113 297.404 72.6113 300.596 74.5866 302.552L82.6635 310.552C83.5998 311.48 84.8643 312 86.1821 312H136C138.761 312 141 309.761 141 307V291C141 288.239 138.761 286 136 286H86.1821C84.8643 286 83.5998 286.52 82.6635 287.448Z" fill="white"/>
<path d="M97.4141 292.396L95.0117 294.799V303.598L97.4141 306H102.854L105.256 303.598V294.799L102.854 292.396H97.4141ZM98.8105 303.402L97.9316 302.523V295.883L98.8105 295.004H101.457L102.336 295.883V302.523L101.457 303.402H98.8105ZM116.926 300.502V292.396H113.42L107.727 299.936V303.1H114.006V306H116.926V303.1H118.361V300.502H116.926ZM114.006 295.521V300.502H110.305L114.006 295.521ZM125.119 297.465L123.859 298.725V295.98L124.836 295.004H127.775L128.977 296.195L130.979 294.203L129.172 292.396H123.439L120.939 294.896V303.598L123.332 306H128.771L131.174 303.598V299.662L128.977 297.465H125.119ZM124.738 303.402L123.859 302.523V301.098L124.973 299.984H127.492L128.254 300.736V302.523L127.375 303.402H124.738Z" fill="black"/>
<path d="M75.8438 140.66L75.2773 140.104V138.805L76.0391 138.043H80.1016L81.5566 139.498L83.5977 137.457L81.5371 135.396H74.5645L72.2793 137.682V141.197L74.3594 143.277L80.2383 143.639L80.8047 144.195V145.602L80.043 146.363H75.502L73.959 144.82L71.918 146.861L74.0566 149H81.5176L83.8027 146.725V143.102L81.7227 141.021L75.8438 140.66ZM86.5664 135.396V149H89.5645V144.195H95.7266L97.9629 141.959V137.643L95.7266 135.396H86.5664ZM89.5645 141.52V138.082H94.3105L94.9648 138.736V140.855L94.3105 141.52H89.5645ZM100.707 135.396V149H109.604L112.289 146.324V138.082L109.604 135.396H100.707ZM108.188 146.324H103.705V138.082H108.188L109.291 139.176V145.221L108.188 146.324Z" fill="white"/>
</g>
</g>
<path fill-rule="evenodd" clip-rule="evenodd" d="M-29 152L-29 447C-29 481.794 -0.793938 510 34 510H86C86 511.657 87.3431 513 89 513H115C116.657 513 118 511.657 118 510H148C148 511.657 149.343 513 151 513H207C208.657 513 210 511.657 210 510H226C226 511.657 227.343 513 229 513H285C286.657 513 288 511.657 288 510L766 510C800.794 510 829 481.794 829 447L829 152C829 117.206 800.794 89 766 89L268 89C268 87.3431 266.657 86 265 86H171C169.343 86 168 87.3431 168 89H34C-0.793938 89 -29 117.206 -29 152ZM34 505C1.96748 505 -24 479.033 -24 447L-24 152C-24 119.967 1.96748 94 34 94L766 94C798.033 94 824 119.967 824 152L824 447C824 479.033 798.033 505 766 505L34 505Z" fill="#AABBCC"/>
<path fill-rule="evenodd" clip-rule="evenodd" d="M-29 152L-29 447C-29 481.794 -0.793938 510 34 510H86C86 511.657 87.3431 513 89 513H115C116.657 513 118 511.657 118 510H148C148 511.657 149.343 513 151 513H207C208.657 513 210 511.657 210 510H226C226 511.657 227.343 513 229 513H285C286.657 513 288 511.657 288 510L766 510C800.794 510 829 481.794 829 447L829 152C829 117.206 800.794 89 766 89L268 89C268 87.3431 266.657 86 265 86H171C169.343 86 168 87.3431 168 89H34C-0.793938 89 -29 117.206 -29 152ZM34 505C1.96748 505 -24 479.033 -24 447L-24 152C-24 119.967 1.96748 94 34 94L766 94C798.033 94 824 119.967 824 152L824 447C824 479.033 798.033 505 766 505L34 505Z" fill="#BDBDBD"/>
<path fill-rule="evenodd" clip-rule="evenodd" d="M-29 152L-29 447C-29 481.794 -0.793938 510 34 510H86C86 511.657 87.3431 513 89 513H115C116.657 513 118 511.657 118 510H148C148 511.657 149.343 513 151 513H207C208.657 513 210 511.657 210 510H226C226 511.657 227.343 513 229 513H285C286.657 513 288 511.657 288 510L766 510C800.794 510 829 481.794 829 447L829 152C829 117.206 800.794 89 766 89L268 89C268 87.3431 266.657 86 265 86H171C169.343 86 168 87.3431 168 89H34C-0.793938 89 -29 117.206 -29 152ZM34 505C1.96748 505 -24 479.033 -24 447L-24 152C-24 119.967 1.96748 94 34 94L766 94C798.033 94 824 119.967 824 152L824 447C824 479.033 798.033 505 766 505L34 505Z" fill="#313131"/>
<path fill-rule="evenodd" clip-rule="evenodd" d="M34 112C11.9 112 -6 129.9 -6 152L-6 187.5C-6 191.918 -2.41828 195.5 2 195.5H3C15.2 195.5 25 205.3 25 217.5L25 381.5C25 393.7 15.2 403.5 3 403.5H2C-2.41828 403.5 -6 407.082 -6 411.5L-6 447C-6 469.1 11.9 487 34 487L766 487C788.1 487 806 469.1 806 447V152C806 129.9 788.1 112 766 112L34 112ZM-24 447L-24 152C-24 120 2 94 34 94L766 94C798 94 824 120 824 152V447C824 479 798 505 766 505L34 505C2 505 -24 479 -24 447Z" fill="black"/>
<path d="M3 247.5C6.86597 247.5 10 250.634 10 254.5C10 258.366 6.86597 261.5 3 261.5C-0.865967 261.5 -4 258.366 -4 254.5C-4 250.634 -0.865967 247.5 3 247.5Z" fill="#252525"/>
<path d="M0 322C0 323.657 1.34314 325 3 325C4.65686 325 6 323.657 6 322L6 278C6 276.343 4.65686 275 3 275C1.34314 275 0 276.343 0 278L0 322Z" fill="#252525"/>
</g>
</g>
<defs>
<filter id="filter0_d" x="-39" y="86" width="878" height="447" filterUnits="userSpaceOnUse" color-interpolation-filters="sRGB">
<feFlood flood-opacity="0" result="BackgroundImageFix"/>
<feColorMatrix in="SourceAlpha" type="matrix" values="0 0 0 0 0 0 0 0 0 0 0 0 0 0 0 0 0 0 127 0"/>
<feOffset dy="10"/>
<feGaussianBlur stdDeviation="5"/>
<feColorMatrix type="matrix" values="0 0 0 0 0 0 0 0 0 0 0 0 0 0 0 0 0 0 0.25 0"/>
<feBlend mode="normal" in2="BackgroundImageFix" result="effect1_dropShadow"/>
<feBlend mode="normal" in="SourceGraphic" in2="effect1_dropShadow" result="shape"/>
</filter>
<clipPath id="clip0">
<rect width="800" height="600" fill="white"/>
</clipPath>
<clipPath id="clip1">
<rect width="812" height="375" fill="white" transform="translate(-5 112)"/>
</clipPath>
<clipPath id="clip2">
<rect width="120" height="340" fill="white" transform="translate(637 129)"/>
</clipPath>
<clipPath id="clip3">
<rect width="120" height="340" fill="white" transform="translate(45 129)"/>
</clipPath>
</defs>
</svg>
