<svg width="1200" height="900" viewBox="0 0 1200 900" fill="none" xmlns="http://www.w3.org/2000/svg">
<g clip-path="url(#clip0)">
<rect width="1200" height="900" fill="#423737"/>
<mask id="mask0" mask-type="alpha" maskUnits="userSpaceOnUse" x="625" y="77" width="539" height="856">
<rect x="625" y="77" width="539" height="856" rx="20" fill="#111111"/>
</mask>
<g mask="url(#mask0)">
<rect width="539" height="856" transform="translate(625 77)" fill="black"/>
<path d="M828.215 405.14C821.044 405.774 814.152 408.49 808.326 412.994C806.879 414.111 803.363 417.588 802.183 419.085C800.102 421.699 797.868 425.544 796.675 428.539C795.608 431.217 794.86 433.996 794.339 437.168L794.047 438.945L794.009 503.725C793.984 550.79 794.009 569.012 794.111 570.345C794.999 581.829 801.079 592.222 810.662 598.63C815.193 601.663 820.536 603.731 825.931 604.543C828.583 604.949 831.058 605 844.182 604.962L857.255 604.924L856.621 604.556C850.617 601.104 845.198 592.12 842.215 580.7C840.489 574.088 839.676 568.619 838.89 558.29C838.775 556.818 838.725 538.456 838.699 485.718L838.661 415.114L839.41 415.799C839.829 416.179 857.814 433.983 879.391 455.378L918.623 494.271V506.453V518.635L916.504 516.528C913.001 513.077 870.024 470.377 862.079 462.458L854.717 455.124L854.679 493.548C854.641 532.327 854.679 536.527 855.11 543.76C856.075 560.117 858.372 572.324 862.193 581.423C862.929 583.174 864.668 586.549 865.632 588.11C867.612 591.295 871.141 595.216 873.857 597.234C878.388 600.609 883.745 602.932 890.611 604.48L892.858 605L926.277 604.949C963.009 604.911 960.127 604.975 964.138 604.162C976.336 601.701 986.82 592.831 991.402 581.118C992.493 578.314 993.179 575.662 993.724 572.121C993.927 570.751 993.953 566.881 993.991 506.326C994.016 462.496 993.991 441.394 993.889 440.125C993.648 436.597 993.115 433.907 992.062 430.696C987.315 416.408 974.584 406.409 959.556 405.127C958.642 405.051 952.512 405 944.325 405H930.618L931.354 405.419C932.623 406.129 933.626 406.929 935.123 408.426C941.025 414.301 945.379 424.58 947.549 437.739C948.235 441.914 948.679 446.038 949.11 452.269C949.212 453.855 949.263 472.914 949.301 524.65L949.352 594.861L948.857 594.442C948.577 594.201 935.225 580.991 919.182 565.079C903.139 549.166 885.356 531.553 879.696 525.931L869.377 515.716V503.484V491.264L892.896 514.65C905.817 527.518 920.21 541.844 924.881 546.476L933.347 554.914V516.528C933.347 494.334 933.296 476.518 933.22 474.285C932.496 451.52 929.742 436.318 924.398 425.582C922.456 421.674 920.451 418.781 917.735 415.989C914.93 413.109 912.137 411.091 908.406 409.251C905.03 407.589 901.603 406.421 897.198 405.431L895.244 405L862.294 405.013C844.157 405.025 828.837 405.076 828.215 405.14Z" fill="white"/>
<path d="M752.736 160.898H756.295V155.638H761.555V152.078H756.295V146.818H752.736V152.078H747.476V155.638H752.736V160.898ZM773.554 143.636H769.338C769.288 144.879 767.538 146.997 764.923 146.997V150.418C767.17 150.418 768.632 149.582 769.069 148.906H769.258V164H773.554V143.636ZM784.718 153.818C784.718 158.76 786.021 162.866 788.735 166.406H792.782C790.704 163.781 789.123 158.531 789.123 153.818C789.123 149.115 790.704 143.865 792.782 141.24H788.735C786.021 144.78 784.718 148.876 784.718 153.818ZM802.079 164.278C806.613 164.278 809.695 161.325 809.685 157.209C809.695 153.311 806.971 150.507 803.302 150.507C801.512 150.507 799.971 151.253 799.255 152.257H799.135L799.662 147.156H808.561V143.636H796.113L795.148 154.375L798.976 155.061C799.603 154.216 800.816 153.689 802.019 153.689C804.067 153.699 805.539 155.18 805.539 157.318C805.539 159.436 804.097 160.898 802.079 160.898C800.368 160.898 798.986 159.824 798.887 158.243H794.711C794.79 161.763 797.863 164.278 802.079 164.278ZM819.565 164.278C824.099 164.278 827.182 161.325 827.172 157.209C827.182 153.311 824.457 150.507 820.788 150.507C818.999 150.507 817.457 151.253 816.742 152.257H816.622L817.149 147.156H826.048V143.636H813.599L812.635 154.375L816.463 155.061C817.09 154.216 818.303 153.689 819.506 153.689C821.554 153.699 823.026 155.18 823.026 157.318C823.026 159.436 821.584 160.898 819.565 160.898C817.855 160.898 816.473 159.824 816.374 158.243H812.198C812.277 161.763 815.349 164.278 819.565 164.278ZM837.052 164.278C841.586 164.278 844.669 161.325 844.659 157.209C844.669 153.311 841.944 150.507 838.275 150.507C836.486 150.507 834.944 151.253 834.228 152.257H834.109L834.636 147.156H843.535V143.636H831.086L830.122 154.375L833.95 155.061C834.576 154.216 835.79 153.689 836.993 153.689C839.041 153.699 840.513 155.18 840.513 157.318C840.513 159.436 839.071 160.898 837.052 160.898C835.342 160.898 833.96 159.824 833.861 158.243H829.684C829.764 161.763 832.836 164.278 837.052 164.278ZM854.281 153.818C854.281 148.876 852.978 144.77 850.264 141.23H846.217C848.295 143.855 849.876 149.105 849.876 153.818C849.876 158.521 848.295 163.771 846.217 166.396H850.264C852.978 162.857 854.281 158.76 854.281 153.818ZM863.611 160.42H873.385V164H877.432V160.42H880.027V156.97H877.432V151.273H873.504V156.97H867.936V156.811L875.364 143.636H871.217L863.611 157.03V160.42ZM882.336 164H896.853V160.48H888.302V160.341L891.275 157.428C895.461 153.609 896.584 151.7 896.584 149.384C896.584 145.854 893.701 143.358 889.336 143.358C885.06 143.358 882.127 145.913 882.137 149.911H886.224C886.214 147.962 887.447 146.768 889.306 146.768C891.096 146.768 892.428 147.882 892.428 149.672C892.428 151.293 891.434 152.406 889.584 154.186L882.336 160.898V164ZM907.397 164.428C912.518 164.428 915.61 160.53 915.62 153.818C915.63 147.156 912.498 143.338 907.397 143.338C902.286 143.338 899.184 147.146 899.174 153.818C899.154 160.51 902.266 164.418 907.397 164.428ZM907.397 160.858C906.572 160.858 905.846 160.56 905.249 159.973L910.589 149.483C910.996 150.577 911.225 152.028 911.225 153.818C911.235 158.511 909.724 160.858 907.397 160.858ZM904.155 158.114C903.768 157.02 903.559 155.588 903.559 153.818C903.569 149.195 905.07 146.868 907.397 146.868C908.182 146.868 908.878 147.136 909.445 147.673L904.155 158.114ZM927.685 152.138H918.398V155.499H927.685V152.138ZM930.655 157.388C930.635 161.743 934.036 164.278 938.102 164.278C942.328 164.278 945.411 161.484 945.411 157.298C945.411 153.381 942.716 150.666 938.968 150.666C938.411 150.666 937.864 150.766 937.367 150.875L942.308 143.636H937.973L933.26 150.616C931.49 153.222 930.665 155.24 930.655 157.388ZM934.861 157.428C934.861 155.409 936.173 153.977 938.083 153.977C939.942 153.977 941.274 155.409 941.274 157.447C941.274 159.466 939.962 160.918 938.083 160.918C936.173 160.918 934.861 159.466 934.861 157.428ZM947.498 150.338C947.498 154.256 950.173 156.97 953.941 156.97C954.508 156.97 955.045 156.871 955.542 156.741L950.61 164H954.936L959.649 157.02C961.399 154.415 962.244 152.396 962.264 150.249C962.274 145.874 958.853 143.358 954.806 143.358C950.561 143.358 947.498 146.152 947.498 150.338ZM951.634 150.189C951.634 148.17 952.947 146.719 954.826 146.719C956.715 146.719 958.048 148.17 958.048 150.209C958.048 152.227 956.715 153.659 954.826 153.659C952.947 153.659 951.634 152.227 951.634 150.189ZM964.649 160.42H974.424V164H978.47V160.42H981.066V156.97H978.47V151.273H974.543V156.97H968.975V156.811L976.402 143.636H972.256L964.649 157.03V160.42ZM983.374 164H997.891V160.48H989.34V160.341L992.313 157.428C996.499 153.609 997.623 151.7 997.623 149.384C997.623 145.854 994.739 143.358 990.374 143.358C986.099 143.358 983.165 145.913 983.175 149.911H987.262C987.252 147.962 988.485 146.768 990.344 146.768C992.134 146.768 993.466 147.882 993.466 149.672C993.466 151.293 992.472 152.406 990.623 154.186L983.374 160.898V164Z" fill="white"/>
<path d="M746.472 111.307H752.925V130H754.784V111.307H761.237V109.636H746.472V111.307ZM768.217 130.318C772.174 130.318 774.938 127.087 774.938 122.433C774.938 117.75 772.174 114.518 768.217 114.518C764.259 114.518 761.495 117.75 761.495 122.433C761.495 127.087 764.259 130.318 768.217 130.318ZM768.217 128.697C765.045 128.697 763.275 125.854 763.275 122.433C763.275 119.013 765.045 116.129 768.217 116.129C771.389 116.129 773.158 119.013 773.158 122.433C773.158 125.854 771.389 128.697 768.217 128.697ZM785.579 130H787.348V120.136C787.348 117.879 789.088 116.229 791.475 116.229C792.061 116.229 792.529 116.328 792.877 116.487L793.493 114.966C793.006 114.688 792.39 114.499 791.604 114.499C789.675 114.499 788.034 115.533 787.428 117.074H787.299V114.727H785.579V130ZM801.256 130.318C804.318 130.318 806.376 128.658 807.072 126.739L805.392 126.192C804.805 127.564 803.423 128.697 801.256 128.697C798.134 128.697 796.155 126.42 796.075 122.891H807.45V122.016C807.45 116.915 804.298 114.518 800.987 114.518C797.03 114.518 794.296 117.83 794.296 122.453C794.296 127.087 796.98 130.318 801.256 130.318ZM796.085 121.33C796.274 118.486 798.193 116.129 800.987 116.129C803.722 116.129 805.641 118.386 805.641 121.33H796.085ZM810.761 135.727H812.541V127.166H812.7C813.306 128.568 814.619 130.318 817.393 130.318C821.131 130.318 823.677 127.136 823.677 122.403C823.677 117.69 821.141 114.518 817.363 114.518C814.559 114.518 813.316 116.268 812.7 117.641H812.481V114.727H810.761V135.727ZM812.511 122.374C812.511 118.714 814.191 116.129 817.174 116.129C820.247 116.129 821.897 118.854 821.897 122.374C821.897 125.933 820.217 128.697 817.174 128.697C814.221 128.697 812.511 126.062 812.511 122.374ZM832.928 130.318C836.886 130.318 839.65 127.087 839.65 122.433C839.65 117.75 836.886 114.518 832.928 114.518C828.971 114.518 826.207 117.75 826.207 122.433C826.207 127.087 828.971 130.318 832.928 130.318ZM832.928 128.697C829.756 128.697 827.987 125.854 827.987 122.433C827.987 119.013 829.756 116.129 832.928 116.129C836.1 116.129 837.87 119.013 837.87 122.433C837.87 125.854 836.1 128.697 832.928 128.697ZM842.975 130H844.745V120.136C844.745 117.879 846.485 116.229 848.872 116.229C849.458 116.229 849.926 116.328 850.274 116.487L850.89 114.966C850.403 114.688 849.786 114.499 849.001 114.499C847.072 114.499 845.431 115.533 844.825 117.074H844.695V114.727H842.975V130ZM859.915 114.727H856.684V111.068H854.904V114.727H852.627V116.268H854.904V126.43C854.904 128.926 856.873 130.229 858.831 130.229C859.567 130.229 860.064 130.089 860.402 129.96L860.025 128.359C859.776 128.429 859.458 128.499 858.991 128.499C857.787 128.499 856.684 127.932 856.684 126.013V116.268H859.915V114.727ZM876.656 130.318C879.838 130.318 882.075 128.31 882.482 125.545H880.693C880.285 127.494 878.684 128.697 876.656 128.697C873.663 128.697 871.684 126.092 871.684 122.374C871.684 118.675 873.722 116.129 876.656 116.129C878.833 116.129 880.305 117.531 880.683 119.261H882.472C882.055 116.428 879.688 114.518 876.626 114.518C872.629 114.518 869.904 117.839 869.904 122.433C869.904 126.987 872.549 130.318 876.656 130.318ZM885.716 130H887.486V120.136C887.486 117.879 889.226 116.229 891.612 116.229C892.199 116.229 892.666 116.328 893.014 116.487L893.63 114.966C893.143 114.688 892.527 114.499 891.741 114.499C889.812 114.499 888.172 115.533 887.565 117.074H887.436V114.727H885.716V130ZM895.703 130H897.483V114.727H895.703V130ZM896.608 112.102C897.334 112.102 897.94 111.526 897.94 110.83C897.94 110.134 897.334 109.557 896.608 109.557C895.882 109.557 895.285 110.134 895.285 110.83C895.285 111.526 895.882 112.102 896.608 112.102ZM901.604 130H903.373V120.216C903.373 117.839 904.954 116.149 907.072 116.149C909.16 116.149 910.373 117.541 910.373 119.609V130H912.183V119.947C912.183 117.75 913.496 116.149 915.822 116.149C917.841 116.149 919.183 117.362 919.183 119.768V130H920.953V119.768C920.953 116.348 919.193 114.528 916.359 114.528C914.132 114.528 912.521 115.612 911.835 117.303H911.706C911.03 115.572 909.687 114.528 907.579 114.528C905.581 114.528 904.089 115.493 903.483 117.074H903.324V114.727H901.604V130ZM925.099 130H926.878V114.727H925.099V130ZM926.003 112.102C926.729 112.102 927.336 111.526 927.336 110.83C927.336 110.134 926.729 109.557 926.003 109.557C925.278 109.557 924.681 110.134 924.681 110.83C924.681 111.526 925.278 112.102 926.003 112.102ZM932.769 120.455C932.769 117.79 934.519 116.149 936.925 116.149C939.272 116.149 940.783 117.72 940.783 120.216V130H942.553V120.107C942.553 116.487 940.455 114.528 937.373 114.528C935.136 114.528 933.594 115.562 932.878 117.124H932.719V114.727H930.999V130H932.769V120.455ZM952.153 130.318C954.927 130.318 956.219 128.558 956.846 127.166H957.055V130H958.785V114.727H957.005V117.641H956.846C956.239 116.268 954.976 114.518 952.182 114.518C948.414 114.518 945.868 117.7 945.868 122.403C945.868 127.146 948.404 130.318 952.153 130.318ZM952.361 128.697C949.319 128.697 947.648 125.933 947.648 122.374C947.648 118.854 949.299 116.129 952.361 116.129C955.344 116.129 957.035 118.714 957.035 122.374C957.035 126.062 955.324 128.697 952.361 128.697ZM963.266 109.636V126.947C963.266 129.115 964.409 130.199 966.527 130.07C967.004 130.06 967.502 129.96 967.77 129.881L967.402 128.33C967.243 128.379 967.094 128.429 966.696 128.449C965.523 128.578 965.036 128.111 965.036 126.53V109.636H963.266ZM977.279 130H979V127.166H979.218C979.835 128.568 981.127 130.318 983.911 130.318C987.66 130.318 990.196 127.146 990.196 122.403C990.196 117.7 987.65 114.518 983.882 114.518C981.088 114.518 979.825 116.268 979.218 117.641H979.059V109.636H977.279V130ZM979.029 122.374C979.029 118.714 980.71 116.129 983.693 116.129C986.755 116.129 988.416 118.854 988.416 122.374C988.416 125.933 986.735 128.697 983.693 128.697C980.73 128.697 979.029 126.062 979.029 122.374ZM999.698 130.318C1002.76 130.318 1004.82 128.658 1005.51 126.739L1003.83 126.192C1003.25 127.564 1001.87 128.697 999.698 128.697C996.576 128.697 994.597 126.42 994.518 122.891H1005.89V122.016C1005.89 116.915 1002.74 114.518 999.43 114.518C995.472 114.518 992.738 117.83 992.738 122.453C992.738 127.087 995.423 130.318 999.698 130.318ZM994.528 121.33C994.717 118.486 996.636 116.129 999.43 116.129C1002.16 116.129 1004.08 118.386 1004.08 121.33H994.528ZM1011 120.455C1011 117.79 1012.79 116.149 1015.24 116.149C1017.61 116.149 1019.12 117.7 1019.12 120.216V130H1020.9V120.107C1020.9 116.467 1018.79 114.528 1015.69 114.528C1013.38 114.528 1011.88 115.543 1011.16 117.124H1011V109.636H1009.23V130H1011V120.455ZM1030.5 130.318C1033.27 130.318 1034.56 128.558 1035.19 127.166H1035.4V130H1037.13V114.727H1035.35V117.641H1035.19C1034.58 116.268 1033.32 114.518 1030.53 114.518C1026.76 114.518 1024.21 117.7 1024.21 122.403C1024.21 127.146 1026.75 130.318 1030.5 130.318ZM1030.7 128.697C1027.66 128.697 1025.99 125.933 1025.99 122.374C1025.99 118.854 1027.64 116.129 1030.7 116.129C1033.69 116.129 1035.38 118.714 1035.38 122.374C1035.38 126.062 1033.67 128.697 1030.7 128.697ZM1053.43 114.727H1051.51L1046.98 127.663H1046.84L1042.31 114.727H1040.39L1045.96 130H1047.85L1053.43 114.727ZM1056.35 130H1058.13V114.727H1056.35V130ZM1057.26 112.102C1057.98 112.102 1058.59 111.526 1058.59 110.83C1058.59 110.134 1057.98 109.557 1057.26 109.557C1056.53 109.557 1055.94 110.134 1055.94 110.83C1055.94 111.526 1056.53 112.102 1057.26 112.102ZM1068.19 130.318C1072.15 130.318 1074.91 127.087 1074.91 122.433C1074.91 117.75 1072.15 114.518 1068.19 114.518C1064.23 114.518 1061.47 117.75 1061.47 122.433C1061.47 127.087 1064.23 130.318 1068.19 130.318ZM1068.19 128.697C1065.02 128.697 1063.25 125.854 1063.25 122.433C1063.25 119.013 1065.02 116.129 1068.19 116.129C1071.36 116.129 1073.13 119.013 1073.13 122.433C1073.13 125.854 1071.36 128.697 1068.19 128.697ZM1078.24 130H1080.01V120.136C1080.01 117.879 1081.75 116.229 1084.13 116.229C1084.72 116.229 1085.19 116.328 1085.54 116.487L1086.15 114.966C1085.67 114.688 1085.05 114.499 1084.26 114.499C1082.33 114.499 1080.69 115.533 1080.09 117.074H1079.96V114.727H1078.24V130Z" fill="white"/>
<path d="M661.854 114.42L672.002 112.075C673.075 111.782 674.246 112.368 674.734 113.443L679.417 124.385C679.808 125.362 679.515 126.437 678.734 127.121L672.782 132.006C676.295 139.431 682.442 145.684 690.053 149.299L694.931 143.339C695.615 142.558 696.688 142.265 697.664 142.655L708.592 147.345C709.665 147.833 710.153 149.006 709.958 150.081L707.616 160.241C707.323 161.316 706.445 162 705.274 162C680.295 162 660 141.776 660 116.667C660 115.592 660.781 114.713 661.854 114.42Z" fill="#CC241D"/>
</g>
<mask id="mask1" mask-type="alpha" maskUnits="userSpaceOnUse" x="36" y="77" width="539" height="856">
<rect x="36" y="77" width="539" height="856" rx="20" fill="#111111"/>
</mask>
<g mask="url(#mask1)">
<rect width="539" height="200" transform="translate(36 733)" fill="white"/>
<path d="M155 833V908H157.913V833H155Z" fill="black"/>
<path d="M163.738 833V908H166.65V833H163.738Z" fill="black"/>
<path d="M169.563 908V833H175.388V908H169.563Z" fill="black"/>
<path d="M178.301 833V908H184.126V833H178.301Z" fill="black"/>
<path d="M187.039 908V833H189.951V908H187.039Z" fill="black"/>
<path d="M192.864 833V908H195.777V833H192.864Z" fill="black"/>
<path d="M198.689 908V833H201.602V908H198.689Z" fill="black"/>
<path d="M207.427 833V908H213.252V833H207.427Z" fill="black"/>
<path d="M216.165 908V833H221.99V908H216.165Z" fill="black"/>
<path d="M224.903 833V908H227.816V833H224.903Z" fill="black"/>
<path d="M230.728 908V833H233.641V908H230.728Z" fill="black"/>
<path d="M236.553 833V908H239.466V833H236.553Z" fill="black"/>
<path d="M245.291 908V833H251.117V908H245.291Z" fill="black"/>
<path d="M254.029 833V908H259.854V833H254.029Z" fill="black"/>
<path d="M262.767 908V833H265.68V908H262.767Z" fill="black"/>
<path d="M268.592 833V908H271.505V833H268.592Z" fill="black"/>
<path d="M274.417 908V833H277.33V908H274.417Z" fill="black"/>
<path d="M283.155 833V908H288.981V833H283.155Z" fill="black"/>
<path d="M291.893 908V833H297.718V908H291.893Z" fill="black"/>
<path d="M300.631 833V908H303.544V833H300.631Z" fill="black"/>
<path d="M306.456 908V833H309.369V908H306.456Z" fill="black"/>
<path d="M312.282 833V908H315.194V833H312.282Z" fill="black"/>
<path d="M321.019 908V833H326.845V908H321.019Z" fill="black"/>
<path d="M329.757 833V908H335.583V833H329.757Z" fill="black"/>
<path d="M338.495 908V833H341.408V908H338.495Z" fill="black"/>
<path d="M344.32 833V908H347.233V833H344.32Z" fill="black"/>
<path d="M350.146 908V833H353.058V908H350.146Z" fill="black"/>
<path d="M358.883 833V908H364.709V833H358.883Z" fill="black"/>
<path d="M367.621 908V833H373.447V908H367.621Z" fill="black"/>
<path d="M376.359 833V908H379.272V833H376.359Z" fill="black"/>
<path d="M382.184 908V833H385.097V908H382.184Z" fill="black"/>
<path d="M388.01 833V908H390.922V833H388.01Z" fill="black"/>
<path d="M396.748 908V833H402.573V908H396.748Z" fill="black"/>
<path d="M405.485 833V908H411.311V833H405.485Z" fill="black"/>
<path d="M414.223 908V833H417.136V908H414.223Z" fill="black"/>
<path d="M420.049 833V908H422.961V833H420.049Z" fill="black"/>
<path d="M428.786 908V833H431.699V908H428.786Z" fill="black"/>
<path d="M434.612 833V908H440.437V833H434.612Z" fill="black"/>
<path d="M443.35 908V833H449.175V908H443.35Z" fill="black"/>
<path d="M452.087 833V908H455V833H452.087Z" fill="black"/>
<path d="M215.707 794.131C215.912 800.335 221.315 804.477 228.986 804.477C236.673 804.477 242.435 800.267 242.435 794.062C242.435 789.409 239.196 784.875 231.849 784.159V783.886L241.224 774.409V769.091H217.463V775.125H232.156V775.364L224.418 783.409V788.54H228.185C232.514 788.54 234.747 790.688 234.747 793.568C234.747 796.551 232.378 798.392 229.003 798.392C225.832 798.392 223.344 796.756 223.156 794.131H215.707ZM245.6 797.864H262.356V804H269.293V797.864H273.742V791.949H269.293V782.182H262.56V791.949H253.015V791.676L265.748 769.091H258.64L245.6 792.051V797.864ZM277.555 804H302.441V797.966H287.782V797.727L292.879 792.733C300.055 786.188 301.981 782.915 301.981 778.943C301.981 772.892 297.038 768.614 289.555 768.614C282.226 768.614 277.197 772.994 277.214 779.847H284.22C284.203 776.506 286.316 774.46 289.504 774.46C292.572 774.46 294.856 776.369 294.856 779.438C294.856 782.216 293.152 784.125 289.981 787.176L277.555 798.682V804ZM320.164 804.733C328.942 804.733 334.243 798.051 334.26 786.545C334.277 775.125 328.908 768.58 320.164 768.58C311.402 768.58 306.084 775.108 306.067 786.545C306.033 798.017 311.368 804.716 320.164 804.733ZM320.164 798.614C318.749 798.614 317.505 798.102 316.482 797.097L325.635 779.114C326.334 780.989 326.726 783.477 326.726 786.545C326.743 794.591 324.152 798.614 320.164 798.614ZM314.607 793.909C313.942 792.034 313.584 789.58 313.584 786.545C313.601 778.619 316.175 774.631 320.164 774.631C321.51 774.631 322.703 775.091 323.675 776.011L314.607 793.909ZM336.982 794.131C337.187 800.335 342.59 804.477 350.261 804.477C357.948 804.477 363.71 800.267 363.71 794.062C363.71 789.409 360.471 784.875 353.124 784.159V783.886L362.499 774.409V769.091H338.738V775.125H353.431V775.364L345.693 783.409V788.54H349.46C353.789 788.54 356.022 790.688 356.022 793.568C356.022 796.551 353.653 798.392 350.278 798.392C347.107 798.392 344.619 796.756 344.431 794.131H336.982ZM380.801 804.477C388.676 804.477 394.335 800.267 394.352 794.608C394.335 790.244 390.977 786.682 386.784 785.983V785.744C390.432 784.994 393.04 781.841 393.057 778.006C393.04 772.602 387.858 768.614 380.801 768.614C373.727 768.614 368.545 772.602 368.562 778.006C368.545 781.824 371.119 784.994 374.835 785.744V785.983C370.574 786.682 367.25 790.244 367.267 794.608C367.25 800.267 372.926 804.477 380.801 804.477ZM380.801 799.057C377.29 799.057 374.938 796.977 374.938 794.028C374.938 791.011 377.409 788.83 380.801 788.83C384.176 788.83 386.665 791.011 386.665 794.028C386.665 796.994 384.295 799.057 380.801 799.057ZM380.801 783.46C377.852 783.46 375.756 781.534 375.756 778.773C375.756 776.045 377.818 774.17 380.801 774.17C383.767 774.17 385.847 776.062 385.847 778.773C385.847 781.534 383.733 783.46 380.801 783.46Z" fill="black"/>
<g clip-path="url(#clip1)">
<rect width="539" height="656" transform="translate(36 77)" fill="black"/>
<path d="M232.615 577.477C237.592 577.477 241.155 575.364 243.626 571.46H243.78L244.121 577H246.848V560.091H233.365V562.955H243.763C243.609 569.909 239.058 574.477 232.615 574.477C225.558 574.477 220.479 568.903 220.479 559.545C220.479 550.136 225.678 544.614 232.479 544.614C238.24 544.614 242.144 548.347 243.354 553H246.626C245.484 546.847 240.115 541.614 232.479 541.614C223.649 541.614 217.393 548.602 217.393 559.545C217.393 570.472 223.479 577.477 232.615 577.477ZM269.82 566.994C269.82 571.801 266.206 574.392 262.661 574.392C258.877 574.392 256.218 571.682 256.218 567.591V550.818H253.184V567.778C253.184 573.983 256.763 577.341 261.791 577.341C265.627 577.341 268.354 575.347 269.581 572.653H269.82V577H272.854V550.818H269.82V566.994ZM297.518 556.562C296.239 552.778 293.444 550.46 288.654 550.46C283.37 550.46 279.535 553.477 279.535 557.79C279.535 561.301 281.665 563.688 286.216 564.778L290.495 565.801C293.375 566.483 294.756 567.966 294.756 570.062C294.756 572.79 292.148 574.818 288.125 574.818C284.546 574.818 282.313 573.199 281.58 570.097L278.665 570.812C279.586 575.176 283.046 577.545 288.177 577.545C293.938 577.545 297.893 574.375 297.893 569.926C297.893 566.432 295.694 564.097 291.313 563.023L287.358 562.051C284.103 561.233 282.586 559.92 282.586 557.653C282.586 554.994 285.125 553.136 288.654 553.136C292.182 553.136 293.921 554.994 294.739 557.347L297.518 556.562ZM313.888 550.818H308.349V544.545H305.298V550.818H301.394V553.46H305.298V570.881C305.298 575.159 308.673 577.392 312.031 577.392C313.292 577.392 314.144 577.153 314.724 576.932L314.076 574.188C313.65 574.307 313.104 574.426 312.303 574.426C310.241 574.426 308.349 573.455 308.349 570.165V553.46H313.888V550.818ZM328.964 577.545C333.72 577.545 335.936 574.528 337.009 572.142H337.367V577H340.333V550.818H337.282V555.812H337.009C335.97 553.46 333.805 550.46 329.015 550.46C322.555 550.46 318.191 555.915 318.191 563.977C318.191 572.108 322.538 577.545 328.964 577.545ZM329.322 574.767C324.106 574.767 321.242 570.028 321.242 563.926C321.242 557.892 324.072 553.222 329.322 553.222C334.436 553.222 337.333 557.653 337.333 563.926C337.333 570.25 334.402 574.767 329.322 574.767ZM368.282 550.818H364.993L357.22 572.994H356.981L349.209 550.818H345.919L355.481 577H358.72L368.282 550.818ZM382.497 577.545C389.281 577.545 394.02 572.006 394.02 564.028C394.02 556 389.281 550.46 382.497 550.46C375.713 550.46 370.974 556 370.974 564.028C370.974 572.006 375.713 577.545 382.497 577.545ZM382.497 574.767C377.06 574.767 374.026 569.892 374.026 564.028C374.026 558.165 377.06 553.222 382.497 553.222C387.935 553.222 390.969 558.165 390.969 564.028C390.969 569.892 387.935 574.767 382.497 574.767ZM269.615 635C280.251 635 286.694 628.42 286.694 617.511C286.694 606.636 280.251 600.091 269.717 600.091H257.24V635H269.615ZM264.62 628.676V606.415H269.325C275.87 606.415 279.331 609.756 279.331 617.511C279.331 625.301 275.87 628.676 269.308 628.676H264.62ZM291.065 635H298.327V608.818H291.065V635ZM294.713 605.443C296.878 605.443 298.65 603.79 298.65 601.761C298.65 599.75 296.878 598.097 294.713 598.097C292.565 598.097 290.793 599.75 290.793 601.761C290.793 603.79 292.565 605.443 294.713 605.443ZM312.831 635.426C317.058 635.426 319.257 632.989 320.263 630.807H320.57V635H327.729V608.818H320.485V613.216H320.263C319.291 611.085 317.195 608.477 312.814 608.477C307.07 608.477 302.212 612.943 302.212 621.943C302.212 630.705 306.865 635.426 312.831 635.426ZM315.132 629.648C311.57 629.648 309.627 626.477 309.627 621.909C309.627 617.375 311.536 614.256 315.132 614.256C318.661 614.256 320.638 617.239 320.638 621.909C320.638 626.58 318.627 629.648 315.132 629.648ZM354.523 616.284C353.875 611.46 349.989 608.477 343.375 608.477C336.676 608.477 332.262 611.58 332.279 616.625C332.262 620.545 334.733 623.085 339.847 624.108L344.381 625.011C346.665 625.472 347.705 626.307 347.739 627.619C347.705 629.17 346.017 630.278 343.478 630.278C340.887 630.278 339.165 629.17 338.722 627.04L331.58 627.415C332.262 632.426 336.523 635.511 343.461 635.511C350.245 635.511 355.103 632.051 355.12 626.886C355.103 623.102 352.631 620.835 347.551 619.795L342.813 618.841C340.375 618.312 339.472 617.477 339.489 616.216C339.472 614.648 341.245 613.625 343.495 613.625C346.017 613.625 347.517 615.006 347.875 616.693L354.523 616.284Z" fill="white"/>
<path d="M273.114 664.636V678.835C273.104 680.794 272.229 681.828 270.638 681.828C269.137 681.828 268.163 680.893 268.133 679.273H263.847C263.827 683.339 266.731 685.278 270.42 685.278C274.546 685.278 277.36 682.783 277.37 678.835V664.636H273.114ZM290.084 678.497C290.094 680.545 288.692 681.619 287.171 681.619C285.57 681.619 284.536 680.496 284.526 678.696V669.727H280.29V679.452C280.3 683.021 282.388 685.199 285.461 685.199C287.757 685.199 289.408 684.016 290.094 682.226H290.253V685H294.32V669.727H290.084V678.497ZM301.384 676.17C301.394 674.202 302.567 673.048 304.277 673.048C305.978 673.048 307.002 674.162 306.992 676.031V685H311.228V675.276C311.228 671.716 309.14 669.528 305.958 669.528C303.691 669.528 302.05 670.642 301.364 672.422H301.185V669.727H297.148V685H301.384V676.17ZM314.006 685H318.242V669.727H314.006V685ZM316.134 667.759C317.397 667.759 318.431 666.794 318.431 665.611C318.431 664.438 317.397 663.473 316.134 663.473C314.881 663.473 313.847 664.438 313.847 665.611C313.847 666.794 314.881 667.759 316.134 667.759ZM327.976 685.298C332.609 685.298 335.493 682.126 335.493 677.423C335.493 672.69 332.609 669.528 327.976 669.528C323.342 669.528 320.458 672.69 320.458 677.423C320.458 682.126 323.342 685.298 327.976 685.298ZM327.995 682.017C325.858 682.017 324.764 680.058 324.764 677.393C324.764 674.729 325.858 672.76 327.995 672.76C330.093 672.76 331.187 674.729 331.187 677.393C331.187 680.058 330.093 682.017 327.995 682.017ZM337.687 685H341.923V676.359C341.933 674.49 343.285 673.207 344.995 673.207C345.572 673.207 346.039 673.366 346.437 673.565L347.71 670.065C347.153 669.727 346.437 669.509 345.621 669.509C343.901 669.509 342.509 670.503 341.952 672.392H341.793V669.727H337.687V685Z" fill="#CC241D"/>
<rect x="187.5" y="199.5" width="235" height="295" rx="7.5" fill="#111111" stroke="white" stroke-width="5"/>
<path d="M158.267 164H170.925V162.33H160.852V162.2L165.903 156.562C169.284 152.824 170.288 151.134 170.288 148.876C170.288 145.774 167.842 143.358 164.432 143.358C160.991 143.358 158.436 145.784 158.436 149.155H160.216C160.216 146.739 161.866 144.999 164.382 144.999C166.749 144.999 168.538 146.55 168.538 148.876C168.538 150.805 167.514 152.237 164.919 155.161L158.267 162.638V164ZM181.121 164.288C185.406 164.288 187.922 160.42 187.922 153.828C187.922 147.266 185.386 143.368 181.121 143.368C176.855 143.368 174.32 147.266 174.32 153.828C174.32 160.42 176.835 164.288 181.121 164.288ZM181.121 162.618C179.878 162.618 178.844 162.121 178.038 161.166L184.849 147.425C185.675 148.926 186.122 151.104 186.122 153.828C186.122 159.406 184.253 162.618 181.121 162.618ZM177.233 159.923C176.507 158.442 176.119 156.384 176.119 153.828C176.119 148.26 177.999 145.009 181.121 145.009C182.254 145.009 183.229 145.436 184.004 146.251L177.233 159.923ZM197.226 143.636H195.585C195.456 143.845 193.944 146.669 190.941 146.709V148.3C193.288 148.27 194.919 147.017 195.217 146.5H195.376V164H197.226V143.636ZM202.365 149.831C202.365 153.51 205.07 156.324 208.62 156.324C209.286 156.324 209.932 156.165 210.519 155.916L204.961 164H207.019L212.408 156.085C214.158 153.5 214.794 151.75 214.824 149.96C214.854 146.192 212.169 143.358 208.59 143.358C205.04 143.358 202.365 146.142 202.365 149.831ZM204.135 149.831C204.135 147.087 206.034 144.999 208.59 144.999C211.155 144.999 213.044 147.087 213.044 149.851C213.044 152.615 211.155 154.653 208.59 154.653C206.034 154.653 204.135 152.615 204.135 149.831ZM259.101 164H271.759V162.33H261.686V162.2L266.737 156.562C270.118 152.824 271.122 151.134 271.122 148.876C271.122 145.774 268.676 143.358 265.266 143.358C261.825 143.358 259.27 145.784 259.27 149.155H261.05C261.05 146.739 262.7 144.999 265.216 144.999C267.582 144.999 269.372 146.55 269.372 148.876C269.372 150.805 268.348 152.237 265.753 155.161L259.101 162.638V164ZM281.955 164.288C286.24 164.288 288.756 160.42 288.756 153.828C288.756 147.266 286.22 143.368 281.955 143.368C277.689 143.368 275.154 147.266 275.154 153.828C275.154 160.42 277.669 164.288 281.955 164.288ZM281.955 162.618C280.712 162.618 279.678 162.121 278.872 161.166L285.683 147.425C286.509 148.926 286.956 151.104 286.956 153.828C286.956 159.406 285.087 162.618 281.955 162.618ZM278.067 159.923C277.341 158.442 276.953 156.384 276.953 153.828C276.953 148.26 278.832 145.009 281.955 145.009C283.088 145.009 284.063 145.436 284.838 146.251L278.067 159.923ZM292.243 164H304.9V162.33H294.828V162.2L299.879 156.562C303.26 152.824 304.264 151.134 304.264 148.876C304.264 145.774 301.818 143.358 298.407 143.358C294.967 143.358 292.412 145.784 292.412 149.155H294.192C294.192 146.739 295.842 144.999 298.358 144.999C300.724 144.999 302.514 146.55 302.514 148.876C302.514 150.805 301.49 152.237 298.895 155.161L292.243 162.638V164ZM315.096 164.288C319.382 164.288 321.898 160.42 321.898 153.828C321.898 147.266 319.362 143.368 315.096 143.368C310.831 143.368 308.295 147.266 308.295 153.828C308.295 160.42 310.811 164.288 315.096 164.288ZM315.096 162.618C313.853 162.618 312.819 162.121 312.014 161.166L318.825 147.425C319.65 148.926 320.098 151.104 320.098 153.828C320.098 159.406 318.228 162.618 315.096 162.618ZM311.209 159.923C310.483 158.442 310.095 156.384 310.095 153.828C310.095 148.26 311.974 145.009 315.096 145.009C316.23 145.009 317.204 145.436 317.98 146.251L311.209 159.923Z" fill="white"/>
<path d="M238.418 162.727L247.327 153.818L238.418 144.909L237.245 146.072L244.165 152.983H226.864V154.653H244.165L237.245 161.564L238.418 162.727Z" fill="#CC241D"/>
<path d="M170.378 109.636V122.95C170.378 125.128 168.618 126.45 166.212 126.45C163.835 126.45 162.075 125.128 162.075 122.95V109.636H157.77V123.099C157.77 127.713 161.27 130.288 166.212 130.288C171.134 130.288 174.653 127.713 174.653 123.099V109.636H170.378ZM181.792 121.17C181.802 119.202 182.975 118.048 184.685 118.048C186.386 118.048 187.41 119.162 187.4 121.031V130H191.636V120.276C191.636 116.716 189.548 114.528 186.366 114.528C184.099 114.528 182.458 115.642 181.772 117.422H181.593V114.727H177.556V130H181.792V121.17ZM194.414 130H198.65V125.148L199.793 123.845L203.96 130H208.921L202.965 121.339L208.633 114.727H203.771L198.879 120.524H198.65V109.636H194.414V130ZM214.387 121.17C214.397 119.202 215.57 118.048 217.28 118.048C218.981 118.048 220.005 119.162 219.995 121.031V130H224.231V120.276C224.231 116.716 222.142 114.528 218.961 114.528C216.694 114.528 215.053 115.642 214.367 117.422H214.188V114.727H210.151V130H214.387V121.17ZM233.91 130.298C238.543 130.298 241.427 127.126 241.427 122.423C241.427 117.69 238.543 114.528 233.91 114.528C229.276 114.528 226.392 117.69 226.392 122.423C226.392 127.126 229.276 130.298 233.91 130.298ZM233.929 127.017C231.792 127.017 230.698 125.058 230.698 122.393C230.698 119.729 231.792 117.76 233.929 117.76C236.027 117.76 237.121 119.729 237.121 122.393C237.121 125.058 236.027 127.017 233.929 127.017ZM246.251 130H250.725L253.35 120.395H253.539L256.164 130H260.649L264.795 114.727H260.519L258.193 124.929H258.063L255.558 114.727H251.352L248.886 124.989H248.747L246.38 114.727H242.095L246.251 130ZM270.73 121.17C270.74 119.202 271.913 118.048 273.624 118.048C275.324 118.048 276.348 119.162 276.338 121.031V130H280.574V120.276C280.574 116.716 278.486 114.528 275.304 114.528C273.037 114.528 271.396 115.642 270.71 117.422H270.531V114.727H266.494V130H270.73V121.17ZM289.352 130H293.658V121.588H302.398V130H306.693V109.636H302.398V118.038H293.658V109.636H289.352V130ZM309.603 130H313.839V114.727H309.603V130ZM311.731 112.759C312.994 112.759 314.028 111.794 314.028 110.611C314.028 109.438 312.994 108.473 311.731 108.473C310.478 108.473 309.444 109.438 309.444 110.611C309.444 111.794 310.478 112.759 311.731 112.759ZM323.553 135.946C327.918 135.946 331.02 133.957 331.02 130.149V114.727H326.814V117.293H326.655C326.089 116.05 324.846 114.528 322.29 114.528C318.939 114.528 316.106 117.134 316.106 122.334C316.106 127.415 318.86 129.781 322.3 129.781C324.736 129.781 326.099 128.558 326.655 127.295H326.834V130.089C326.834 132.088 325.492 132.903 323.652 132.903C321.783 132.903 320.839 132.088 320.491 131.263L316.573 131.79C317.08 134.097 319.437 135.946 323.553 135.946ZM323.643 126.599C321.564 126.599 320.431 124.949 320.431 122.314C320.431 119.719 321.545 117.899 323.643 117.899C325.701 117.899 326.854 119.639 326.854 122.314C326.854 125.009 325.681 126.599 323.643 126.599ZM338.067 121.17C338.077 119.202 339.28 118.048 341.01 118.048C342.73 118.048 343.744 119.152 343.735 121.031V130H347.97V120.276C347.98 116.696 345.872 114.528 342.69 114.528C340.374 114.528 338.823 115.622 338.127 117.422H337.948V109.636H333.831V130H338.067V121.17ZM367.791 115.493H371.917C371.857 111.864 368.874 109.358 364.34 109.358C359.876 109.358 356.605 111.824 356.624 115.523C356.615 118.526 358.732 120.246 362.173 121.071L364.39 121.628C366.607 122.165 367.84 122.801 367.85 124.173C367.84 125.665 366.428 126.679 364.241 126.679C362.004 126.679 360.393 125.645 360.254 123.607H356.088C356.197 128.011 359.349 130.288 364.291 130.288C369.262 130.288 372.186 127.912 372.195 124.183C372.186 120.793 369.63 118.993 366.09 118.197L364.261 117.76C362.491 117.352 361.009 116.696 361.039 115.234C361.039 113.922 362.203 112.957 364.311 112.957C366.369 112.957 367.632 113.892 367.791 115.493ZM381.352 130.298C385.419 130.298 387.975 127.912 388.173 124.402H384.176C383.928 126.033 382.854 126.947 381.402 126.947C379.423 126.947 378.141 125.287 378.141 122.364C378.141 119.48 379.433 117.83 381.402 117.83C382.953 117.83 383.948 118.854 384.176 120.375H388.173C387.995 116.845 385.32 114.528 381.333 114.528C376.699 114.528 373.835 117.74 373.835 122.423C373.835 127.067 376.649 130.298 381.352 130.298ZM394.561 121.17C394.571 119.202 395.774 118.048 397.504 118.048C399.225 118.048 400.239 119.152 400.229 121.031V130H404.465V120.276C404.475 116.696 402.367 114.528 399.185 114.528C396.868 114.528 395.317 115.622 394.621 117.422H394.442V109.636H390.326V130H394.561V121.17ZM414.139 130.298C418.772 130.298 421.656 127.126 421.656 122.423C421.656 117.69 418.772 114.528 414.139 114.528C409.505 114.528 406.622 117.69 406.622 122.423C406.622 127.126 409.505 130.298 414.139 130.298ZM414.159 127.017C412.021 127.017 410.927 125.058 410.927 122.393C410.927 119.729 412.021 117.76 414.159 117.76C416.257 117.76 417.35 119.729 417.35 122.393C417.35 125.058 416.257 127.017 414.159 127.017ZM430.751 130.298C435.384 130.298 438.268 127.126 438.268 122.423C438.268 117.69 435.384 114.528 430.751 114.528C426.117 114.528 423.234 117.69 423.234 122.423C423.234 127.126 426.117 130.298 430.751 130.298ZM430.77 127.017C428.633 127.017 427.539 125.058 427.539 122.393C427.539 119.729 428.633 117.76 430.77 117.76C432.869 117.76 433.962 119.729 433.962 122.393C433.962 125.058 432.869 127.017 430.77 127.017ZM440.462 109.636V125.993C440.472 128.906 441.983 130.219 445.235 130.099C446.289 130.05 446.865 129.901 447.303 129.761L446.627 126.679C446.458 126.739 446.259 126.788 445.831 126.798C445.016 126.808 444.708 126.391 444.698 125.426V109.636H440.462Z" fill="white"/>
<path d="M120.651 129.016L98.8374 122.293C97.6646 121.902 96.3354 121.902 95.1626 122.293L73.3487 129.016C71.5504 129.564 71.5504 131.987 73.3487 132.534L77.1798 133.707C76.3198 134.723 75.8507 136.052 75.7725 137.381C74.9906 137.85 74.5215 138.632 74.5215 139.492C74.5215 140.352 74.9124 141.055 75.5379 141.524L73.5833 150.515C73.4269 151.296 73.9742 152 74.7561 152H79.2127C79.9945 152 80.5418 151.296 80.3855 150.515L78.4308 141.524C79.0563 141.055 79.5254 140.352 79.5254 139.492C79.5254 138.632 78.9781 137.85 78.2744 137.459C78.3526 136.287 78.8999 135.192 79.9163 134.567L95.1626 139.257C95.8663 139.492 97.2737 139.726 98.8374 139.257L120.651 132.534C122.45 131.987 122.45 129.564 120.651 129.016ZM99.541 141.681C97.3518 142.306 95.3972 141.993 94.459 141.681L83.122 138.163L82.0274 146.997C82.0274 149.811 88.6732 152 97.0391 152C105.327 152 112.051 149.811 112.051 146.997L110.878 138.163L99.541 141.681Z" fill="#CC241D"/>
</g>
</g>
</g>
<defs>
<clipPath id="clip0">
<rect width="1200" height="900" fill="white"/>
</clipPath>
<clipPath id="clip1">
<rect width="539" height="656" fill="white" transform="translate(36 77)"/>
</clipPath>
</defs>
</svg>
