<svg width="400" height="300" viewBox="0 0 400 300" fill="none" xmlns="http://www.w3.org/2000/svg">
<rect width="400" height="300" fill="#333333"/>
<path d="M78.741 112.672C81.2162 111.243 84.2658 111.243 86.741 112.672L113.382 128.053C115.857 129.482 117.382 132.123 117.382 134.981V165.744C117.382 168.602 115.857 171.243 113.382 172.672L86.741 188.053C84.2658 189.482 81.2162 189.482 78.741 188.053L52.1 172.672C49.6248 171.243 48.1 168.602 48.1 165.744V134.981C48.1 132.123 49.6248 129.482 52.1 128.053L78.741 112.672Z" fill="#111111"/>
<path d="M85.941 155.162C85.941 153.395 87.1818 151.246 88.7123 150.362L110.883 137.562C112.413 136.679 113.654 137.395 113.654 139.162L113.654 164.762C113.654 166.53 112.413 168.679 110.883 169.562L88.7123 182.362C87.1818 183.246 85.941 182.53 85.941 180.762L85.941 155.162Z" fill="#222233"/>
<path d="M106.664 163.15L99.236 167.439L99.236 150.362L94.741 152.958L94.741 174.362L106.664 167.478V163.15Z" fill="#DDDDDD"/>
<path fill-rule="evenodd" clip-rule="evenodd" d="M78.741 188.053V152.813C78.741 149.985 80.2349 147.366 82.67 145.927L113.141 127.914L86.741 112.672C84.2658 111.243 81.2162 111.243 78.741 112.672L52.1 128.053C49.6248 129.482 48.1 132.123 48.1 134.981V166.362C48.1 168.838 49.4205 171.125 51.5641 172.362L78.741 188.053Z" fill="#FF3344"/>
<path d="M141.76 130.227V161.772C141.779 167.391 144.694 169.922 150.964 169.692C152.997 169.596 154.109 169.308 154.953 169.04L153.649 163.095C153.323 163.21 152.94 163.306 152.115 163.325C150.543 163.344 149.948 162.539 149.929 160.679V130.227H141.76ZM156.922 130.227V161.772C156.941 167.391 159.856 169.922 166.127 169.692C168.159 169.596 169.272 169.308 170.115 169.04L168.811 163.095C168.485 163.21 168.102 163.306 167.277 163.325C165.705 163.344 165.11 162.539 165.091 160.679V130.227H156.922ZM185.508 170.075C192.795 170.075 197.704 166.528 198.854 161.062L191.299 160.564C190.474 162.808 188.365 163.977 185.642 163.977C181.557 163.977 178.969 161.273 178.969 156.882V156.863H199.027V154.619C199.027 144.609 192.967 139.662 185.182 139.662C176.514 139.662 170.895 145.817 170.895 154.907C170.895 164.246 176.437 170.075 185.508 170.075ZM178.969 151.8C179.141 148.445 181.692 145.76 185.316 145.76C188.863 145.76 191.318 148.291 191.337 151.8H178.969ZM203.431 169.5H211.485V164.783H211.849C212.981 167.237 215.455 169.979 220.21 169.979C226.922 169.979 232.157 164.668 232.157 154.811C232.157 144.686 226.692 139.662 220.229 139.662C215.301 139.662 212.943 142.596 211.849 144.993H211.6V130.227H203.431V169.5ZM211.428 154.773C211.428 149.518 213.652 146.163 217.622 146.163C221.668 146.163 223.815 149.672 223.815 154.773C223.815 159.912 221.629 163.479 217.622 163.479C213.69 163.479 211.428 160.027 211.428 154.773ZM247.946 130.227V161.772C247.965 167.391 250.88 169.922 257.15 169.692C259.183 169.596 260.295 169.308 261.139 169.04L259.835 163.095C259.509 163.21 259.126 163.306 258.301 163.325C256.729 163.344 256.134 162.539 256.115 160.679V130.227H247.946ZM273.962 169.979C278.717 169.979 281.191 167.237 282.323 164.783H282.668V169.5H290.722V140.045H282.572V144.993H282.323C281.23 142.596 278.871 139.662 273.943 139.662C267.48 139.662 262.015 144.686 262.015 154.811C262.015 164.668 267.25 169.979 273.962 169.979ZM276.551 163.479C272.543 163.479 270.357 159.912 270.357 154.773C270.357 149.672 272.504 146.163 276.551 146.163C280.52 146.163 282.744 149.518 282.744 154.773C282.744 160.027 280.482 163.479 276.551 163.479ZM296.512 169.5H304.566V164.783H304.93C306.061 167.237 308.535 169.979 313.291 169.979C320.002 169.979 325.237 164.668 325.237 154.811C325.237 144.686 319.772 139.662 313.31 139.662C308.382 139.662 306.023 142.596 304.93 144.993H304.681V130.227H296.512V169.5ZM304.508 154.773C304.508 149.518 306.732 146.163 310.702 146.163C314.748 146.163 316.896 149.672 316.896 154.773C316.896 159.912 314.71 163.479 310.702 163.479C306.771 163.479 304.508 160.027 304.508 154.773ZM354.115 148.445C353.387 143.018 349.014 139.662 341.574 139.662C334.038 139.662 329.071 143.152 329.09 148.828C329.071 153.239 331.852 156.096 337.605 157.246L342.706 158.263C345.275 158.781 346.445 159.72 346.483 161.197C346.445 162.942 344.546 164.188 341.689 164.188C338.774 164.188 336.838 162.942 336.339 160.545L328.304 160.967C329.071 166.604 333.865 170.075 341.67 170.075C349.302 170.075 354.767 166.183 354.786 160.372C354.767 156.115 351.987 153.565 346.272 152.395L340.941 151.321C338.199 150.727 337.183 149.787 337.202 148.368C337.183 146.604 339.177 145.453 341.708 145.453C344.546 145.453 346.234 147.006 346.637 148.905L354.115 148.445Z" fill="white"/>
</svg>
