<svg width="400" height="300" viewBox="0 0 400 300" fill="none" xmlns="http://www.w3.org/2000/svg">
<rect width="400" height="300" fill="#111122"/>
<path d="M68.4 96H69.856L70.5 88.916L71.144 96H72.6L73.818 85.71H72.012L71.774 92.836L71.228 86.732H69.772L69.226 92.836L68.988 85.71H67.182L68.4 96ZM77.528 96.112C77.8827 96.112 78.2327 96.0747 78.578 96C78.9233 95.916 79.236 95.7667 79.516 95.552C79.8053 95.3373 80.0293 95.0713 80.188 94.754C80.3467 94.4273 80.4353 94.0867 80.454 93.732H78.648C78.6387 93.9 78.5733 94.0493 78.452 94.18C78.3307 94.3013 78.186 94.3853 78.018 94.432C77.8593 94.4693 77.696 94.488 77.528 94.488C77.36 94.488 77.1967 94.46 77.038 94.404C76.8793 94.348 76.7393 94.2593 76.618 94.138C76.506 94.0073 76.4267 93.8627 76.38 93.704C76.3427 93.536 76.324 93.368 76.324 93.2V93.102H80.482V91.38C80.482 91.0627 80.4447 90.75 80.37 90.442C80.3047 90.134 80.1787 89.8493 79.992 89.588C79.8053 89.3173 79.5767 89.098 79.306 88.93C79.0447 88.7527 78.7553 88.6313 78.438 88.566C78.13 88.5007 77.8173 88.468 77.5 88.468C77.1827 88.468 76.8653 88.5007 76.548 88.566C76.24 88.6313 75.9507 88.7527 75.68 88.93C75.4187 89.098 75.1947 89.3173 75.008 89.588C74.8213 89.8493 74.6907 90.134 74.616 90.442C74.5507 90.75 74.518 91.0627 74.518 91.38V93.2C74.518 93.4613 74.5413 93.7227 74.588 93.984C74.6347 94.2453 74.7187 94.4973 74.84 94.74C74.9707 94.9733 75.134 95.1833 75.33 95.37C75.526 95.5473 75.7453 95.6967 75.988 95.818C76.2307 95.93 76.4827 96.0047 76.744 96.042C77.0053 96.0887 77.2667 96.112 77.528 96.112ZM76.324 91.478V91.38C76.324 91.212 76.3427 91.0487 76.38 90.89C76.4267 90.7313 76.5013 90.5867 76.604 90.456C76.716 90.3253 76.8513 90.232 77.01 90.176C77.1687 90.12 77.332 90.092 77.5 90.092C77.668 90.092 77.8313 90.12 77.99 90.176C78.1487 90.232 78.2793 90.3253 78.382 90.456C78.494 90.5867 78.5687 90.7313 78.606 90.89C78.6527 91.0487 78.676 91.212 78.676 91.38V91.478H76.324ZM82.05 96H86.95V94.376H85.494V85.71H82.246V87.334H83.702V94.376H82.05V96ZM91.472 96.112C91.836 96.112 92.2 96.0653 92.564 95.972C92.928 95.8693 93.25 95.6967 93.53 95.454C93.8193 95.202 94.034 94.9033 94.174 94.558C94.3233 94.2033 94.398 93.8393 94.398 93.466H92.592C92.592 93.662 92.5407 93.844 92.438 94.012C92.3447 94.18 92.2047 94.3013 92.018 94.376C91.8407 94.4507 91.6587 94.488 91.472 94.488C91.304 94.488 91.1407 94.46 90.982 94.404C90.8327 94.348 90.702 94.2547 90.59 94.124C90.4873 93.9933 90.4173 93.8487 90.38 93.69C90.3427 93.522 90.324 93.3587 90.324 93.2V91.38C90.324 91.212 90.3427 91.0487 90.38 90.89C90.4173 90.7313 90.4873 90.5867 90.59 90.456C90.702 90.3253 90.8327 90.232 90.982 90.176C91.1407 90.12 91.304 90.092 91.472 90.092C91.6587 90.092 91.8407 90.1293 92.018 90.204C92.2047 90.2787 92.3447 90.4 92.438 90.568C92.5407 90.736 92.592 90.918 92.592 91.114H94.398C94.398 90.7407 94.3233 90.3813 94.174 90.036C94.034 89.6813 93.8193 89.3827 93.53 89.14C93.25 88.888 92.928 88.7153 92.564 88.622C92.2 88.5193 91.836 88.468 91.472 88.468C91.2107 88.468 90.9493 88.4913 90.688 88.538C90.4267 88.5753 90.1747 88.6547 89.932 88.776C89.6987 88.888 89.4887 89.0373 89.302 89.224C89.1153 89.4107 88.9613 89.6207 88.84 89.854C88.7187 90.0873 88.6347 90.3347 88.588 90.596C88.5413 90.8573 88.518 91.1187 88.518 91.38V93.2C88.518 93.4613 88.5413 93.7227 88.588 93.984C88.6347 94.2453 88.7187 94.4927 88.84 94.726C88.9613 94.9593 89.1153 95.1693 89.302 95.356C89.4887 95.5427 89.6987 95.692 89.932 95.804C90.1747 95.916 90.4267 95.9953 90.688 96.042C90.9493 96.0887 91.2107 96.112 91.472 96.112ZM98.5 96.112C98.8173 96.112 99.13 96.0793 99.438 96.014C99.7553 95.9487 100.045 95.832 100.306 95.664C100.577 95.4867 100.805 95.2673 100.992 95.006C101.179 94.7353 101.305 94.446 101.37 94.138C101.445 93.83 101.482 93.5173 101.482 93.2V91.38C101.482 91.0627 101.445 90.75 101.37 90.442C101.305 90.134 101.179 89.8493 100.992 89.588C100.805 89.3173 100.577 89.098 100.306 88.93C100.045 88.7527 99.7553 88.6313 99.438 88.566C99.13 88.5007 98.8173 88.468 98.5 88.468C98.1827 88.468 97.8653 88.5007 97.548 88.566C97.24 88.6313 96.9507 88.7527 96.68 88.93C96.4187 89.098 96.1947 89.3173 96.008 89.588C95.8213 89.8493 95.6907 90.134 95.616 90.442C95.5507 90.75 95.518 91.0627 95.518 91.38V93.2C95.518 93.5173 95.5507 93.83 95.616 94.138C95.6907 94.446 95.8213 94.7353 96.008 95.006C96.1947 95.2673 96.4187 95.4867 96.68 95.664C96.9507 95.832 97.24 95.9487 97.548 96.014C97.8653 96.0793 98.1827 96.112 98.5 96.112ZM98.5 94.488C98.332 94.488 98.1687 94.46 98.01 94.404C97.8513 94.348 97.716 94.2547 97.604 94.124C97.5013 93.9933 97.4267 93.8487 97.38 93.69C97.3427 93.5313 97.324 93.368 97.324 93.2V91.38C97.324 91.212 97.3427 91.0487 97.38 90.89C97.4267 90.7313 97.5013 90.5867 97.604 90.456C97.716 90.3253 97.8513 90.232 98.01 90.176C98.1687 90.12 98.332 90.092 98.5 90.092C98.668 90.092 98.8313 90.12 98.99 90.176C99.1487 90.232 99.2793 90.3253 99.382 90.456C99.494 90.5867 99.5687 90.7313 99.606 90.89C99.6527 91.0487 99.676 91.212 99.676 91.38V93.2C99.676 93.368 99.6527 93.5313 99.606 93.69C99.5687 93.8487 99.494 93.9933 99.382 94.124C99.2793 94.2547 99.1487 94.348 98.99 94.404C98.8313 94.46 98.668 94.488 98.5 94.488ZM102.406 96H103.932V90.54C103.932 90.0733 104.067 89.84 104.338 89.84C104.609 89.84 104.744 90.0733 104.744 90.54V96H106.256V90.54C106.256 90.0733 106.391 89.84 106.662 89.84C106.933 89.84 107.068 90.0733 107.068 90.54V96H108.594V90.54C108.594 90.3533 108.585 90.1713 108.566 89.994C108.547 89.8073 108.51 89.63 108.454 89.462C108.398 89.2847 108.319 89.1167 108.216 88.958C108.123 88.7993 107.992 88.678 107.824 88.594C107.656 88.51 107.479 88.468 107.292 88.468C106.723 88.468 106.34 88.818 106.144 89.518C105.939 88.818 105.547 88.468 104.968 88.468C104.501 88.468 104.156 88.706 103.932 89.182V88.58H102.406V96ZM112.528 96.112C112.883 96.112 113.233 96.0747 113.578 96C113.923 95.916 114.236 95.7667 114.516 95.552C114.805 95.3373 115.029 95.0713 115.188 94.754C115.347 94.4273 115.435 94.0867 115.454 93.732H113.648C113.639 93.9 113.573 94.0493 113.452 94.18C113.331 94.3013 113.186 94.3853 113.018 94.432C112.859 94.4693 112.696 94.488 112.528 94.488C112.36 94.488 112.197 94.46 112.038 94.404C111.879 94.348 111.739 94.2593 111.618 94.138C111.506 94.0073 111.427 93.8627 111.38 93.704C111.343 93.536 111.324 93.368 111.324 93.2V93.102H115.482V91.38C115.482 91.0627 115.445 90.75 115.37 90.442C115.305 90.134 115.179 89.8493 114.992 89.588C114.805 89.3173 114.577 89.098 114.306 88.93C114.045 88.7527 113.755 88.6313 113.438 88.566C113.13 88.5007 112.817 88.468 112.5 88.468C112.183 88.468 111.865 88.5007 111.548 88.566C111.24 88.6313 110.951 88.7527 110.68 88.93C110.419 89.098 110.195 89.3173 110.008 89.588C109.821 89.8493 109.691 90.134 109.616 90.442C109.551 90.75 109.518 91.0627 109.518 91.38V93.2C109.518 93.4613 109.541 93.7227 109.588 93.984C109.635 94.2453 109.719 94.4973 109.84 94.74C109.971 94.9733 110.134 95.1833 110.33 95.37C110.526 95.5473 110.745 95.6967 110.988 95.818C111.231 95.93 111.483 96.0047 111.744 96.042C112.005 96.0887 112.267 96.112 112.528 96.112ZM111.324 91.478V91.38C111.324 91.212 111.343 91.0487 111.38 90.89C111.427 90.7313 111.501 90.5867 111.604 90.456C111.716 90.3253 111.851 90.232 112.01 90.176C112.169 90.12 112.332 90.092 112.5 90.092C112.668 90.092 112.831 90.12 112.99 90.176C113.149 90.232 113.279 90.3253 113.382 90.456C113.494 90.5867 113.569 90.7313 113.606 90.89C113.653 91.0487 113.676 91.212 113.676 91.38V91.478H111.324ZM127.452 96.112C127.732 96.112 128.007 96.0747 128.278 96C128.549 95.9347 128.796 95.818 129.02 95.65C129.244 95.482 129.426 95.2767 129.566 95.034C129.706 94.7913 129.809 94.5347 129.874 94.264C129.939 93.9933 129.972 93.718 129.972 93.438C129.972 93.3913 129.972 93.34 129.972 93.284H128.166C128.166 93.3027 128.166 93.326 128.166 93.354C128.166 93.4753 128.152 93.6013 128.124 93.732C128.105 93.8533 128.073 93.9747 128.026 94.096C127.979 94.208 127.9 94.3013 127.788 94.376C127.685 94.4507 127.573 94.488 127.452 94.488C127.247 94.488 127.083 94.39 126.962 94.194C126.841 93.998 126.766 93.7973 126.738 93.592C126.71 93.3867 126.696 93.1813 126.696 92.976V90.204H128.586V88.58H126.696V85.71H124.904V88.58H123.686V90.204H124.904V92.976C124.904 93.284 124.923 93.592 124.96 93.9C125.007 94.1987 125.095 94.488 125.226 94.768C125.357 95.048 125.534 95.2953 125.758 95.51C125.982 95.7247 126.243 95.8787 126.542 95.972C126.841 96.0653 127.144 96.112 127.452 96.112ZM133.5 96.112C133.817 96.112 134.13 96.0793 134.438 96.014C134.755 95.9487 135.045 95.832 135.306 95.664C135.577 95.4867 135.805 95.2673 135.992 95.006C136.179 94.7353 136.305 94.446 136.37 94.138C136.445 93.83 136.482 93.5173 136.482 93.2V91.38C136.482 91.0627 136.445 90.75 136.37 90.442C136.305 90.134 136.179 89.8493 135.992 89.588C135.805 89.3173 135.577 89.098 135.306 88.93C135.045 88.7527 134.755 88.6313 134.438 88.566C134.13 88.5007 133.817 88.468 133.5 88.468C133.183 88.468 132.865 88.5007 132.548 88.566C132.24 88.6313 131.951 88.7527 131.68 88.93C131.419 89.098 131.195 89.3173 131.008 89.588C130.821 89.8493 130.691 90.134 130.616 90.442C130.551 90.75 130.518 91.0627 130.518 91.38V93.2C130.518 93.5173 130.551 93.83 130.616 94.138C130.691 94.446 130.821 94.7353 131.008 95.006C131.195 95.2673 131.419 95.4867 131.68 95.664C131.951 95.832 132.24 95.9487 132.548 96.014C132.865 96.0793 133.183 96.112 133.5 96.112ZM133.5 94.488C133.332 94.488 133.169 94.46 133.01 94.404C132.851 94.348 132.716 94.2547 132.604 94.124C132.501 93.9933 132.427 93.8487 132.38 93.69C132.343 93.5313 132.324 93.368 132.324 93.2V91.38C132.324 91.212 132.343 91.0487 132.38 90.89C132.427 90.7313 132.501 90.5867 132.604 90.456C132.716 90.3253 132.851 90.232 133.01 90.176C133.169 90.12 133.332 90.092 133.5 90.092C133.668 90.092 133.831 90.12 133.99 90.176C134.149 90.232 134.279 90.3253 134.382 90.456C134.494 90.5867 134.569 90.7313 134.606 90.89C134.653 91.0487 134.676 91.212 134.676 91.38V93.2C134.676 93.368 134.653 93.5313 134.606 93.69C134.569 93.8487 134.494 93.9933 134.382 94.124C134.279 94.2547 134.149 94.348 133.99 94.404C133.831 94.46 133.668 94.488 133.5 94.488ZM140.5 91.324C140.696 91.324 140.883 91.296 141.06 91.24C141.247 91.184 141.41 91.086 141.55 90.946C141.69 90.806 141.788 90.6427 141.844 90.456C141.9 90.2693 141.928 90.0827 141.928 89.896C141.928 89.7 141.9 89.5133 141.844 89.336C141.788 89.1493 141.69 88.986 141.55 88.846C141.41 88.706 141.247 88.608 141.06 88.552C140.883 88.496 140.696 88.468 140.5 88.468C140.313 88.468 140.127 88.496 139.94 88.552C139.753 88.608 139.59 88.706 139.45 88.846C139.31 88.986 139.212 89.1493 139.156 89.336C139.1 89.5133 139.072 89.7 139.072 89.896C139.072 90.0827 139.1 90.2693 139.156 90.456C139.212 90.6427 139.31 90.806 139.45 90.946C139.59 91.086 139.753 91.184 139.94 91.24C140.127 91.296 140.313 91.324 140.5 91.324ZM140.5 96.112C140.696 96.112 140.883 96.084 141.06 96.028C141.247 95.972 141.41 95.874 141.55 95.734C141.69 95.594 141.788 95.4307 141.844 95.244C141.9 95.0573 141.928 94.8707 141.928 94.684C141.928 94.488 141.9 94.3013 141.844 94.124C141.788 93.9373 141.69 93.774 141.55 93.634C141.41 93.494 141.247 93.396 141.06 93.34C140.883 93.284 140.696 93.256 140.5 93.256C140.313 93.256 140.127 93.284 139.94 93.34C139.753 93.396 139.59 93.494 139.45 93.634C139.31 93.774 139.212 93.9373 139.156 94.124C139.1 94.3013 139.072 94.488 139.072 94.684C139.072 94.8707 139.1 95.0573 139.156 95.244C139.212 95.4307 139.31 95.594 139.45 95.734C139.59 95.874 139.753 95.972 139.94 96.028C140.127 96.084 140.313 96.112 140.5 96.112ZM62.772 216.442H64.228V214.538C64.6293 214.473 64.998 214.323 65.334 214.09C65.6793 213.857 65.936 213.553 66.104 213.18C66.2813 212.797 66.37 212.405 66.37 212.004C66.37 211.593 66.272 211.201 66.076 210.828C65.88 210.445 65.6047 210.133 65.25 209.89C64.9047 209.647 64.5313 209.47 64.13 209.358V206.516C64.298 206.572 64.4427 206.661 64.564 206.782C64.6947 206.894 64.788 207.034 64.844 207.202C64.9093 207.361 64.942 207.524 64.942 207.692C64.942 207.701 64.942 207.706 64.942 207.706H66.398C66.398 207.697 66.398 207.687 66.398 207.678C66.398 207.277 66.3093 206.889 66.132 206.516C65.9547 206.133 65.6933 205.83 65.348 205.606C65.0027 205.373 64.6293 205.223 64.228 205.158V203.268H62.772V205.172C62.38 205.237 62.0113 205.387 61.666 205.62C61.3207 205.853 61.0593 206.157 60.882 206.53C60.714 206.903 60.63 207.295 60.63 207.706C60.63 208.117 60.728 208.513 60.924 208.896C61.1293 209.269 61.4047 209.577 61.75 209.82C62.0953 210.063 62.4687 210.24 62.87 210.352V213.194C62.702 213.138 62.5527 213.054 62.422 212.942C62.3007 212.821 62.2073 212.681 62.142 212.522C62.086 212.354 62.058 212.186 62.058 212.018C62.058 212.009 62.058 212.004 62.058 212.004H60.602C60.602 212.013 60.602 212.023 60.602 212.032C60.602 212.433 60.6907 212.825 60.868 213.208C61.0453 213.581 61.3067 213.885 61.652 214.118C61.9973 214.342 62.3707 214.487 62.772 214.552V216.442ZM62.87 208.924C62.646 208.784 62.4547 208.602 62.296 208.378C62.1467 208.154 62.072 207.911 62.072 207.65C62.072 207.482 62.1 207.323 62.156 207.174C62.2213 207.015 62.3147 206.88 62.436 206.768C62.5667 206.656 62.7113 206.572 62.87 206.516V208.924ZM64.13 213.194V210.786C64.3633 210.917 64.5547 211.099 64.704 211.332C64.8533 211.556 64.928 211.799 64.928 212.06C64.928 212.228 64.8953 212.391 64.83 212.55C64.774 212.699 64.6807 212.83 64.55 212.942C64.4287 213.054 64.2887 213.138 64.13 213.194ZM67.63 216.624H73.37V215H67.63V216.624Z" fill="white"/>
<path d="M88.63 114.624H94.37V113H88.63V114.624ZM95.63 114.624H101.37V113H95.63V114.624ZM102.63 114.624H108.37V113H102.63V114.624ZM109.63 114.624H115.37V113H109.63V114.624ZM151.63 114.624H157.37V113H151.63V114.624ZM158.63 114.624H164.37V113H158.63V114.624ZM214.63 114.624H220.37V113H214.63V114.624ZM221.63 114.624H227.37V113H221.63V114.624ZM270.63 114.624H276.37V113H270.63V114.624ZM277.63 114.624H283.37V113H277.63V114.624ZM81.518 132.002H83.366L87.482 118.478H85.634L81.518 132.002ZM95.518 132.002H97.366L101.482 118.478H99.634L95.518 132.002ZM109.518 132.002H111.366L115.482 118.478H113.634L109.518 132.002ZM116.63 131.624H122.37V130H116.63V131.624ZM123.63 131.624H129.37V130H123.63V131.624ZM144.518 132.002H146.366L150.482 118.478H148.634L144.518 132.002ZM158.518 132.002H160.366L164.482 118.478H162.634L158.518 132.002ZM165.63 131.624H171.37V130H165.63V131.624ZM207.518 132.002H209.366L213.482 118.478H211.634L207.518 132.002ZM221.518 132.002H223.366L227.482 118.478H225.634L221.518 132.002ZM228.63 131.624H234.37V130H228.63V131.624ZM235.63 131.624H241.37V130H235.63V131.624ZM242.63 131.624H248.37V130H242.63V131.624ZM256.63 131.624H262.37V130H256.63V131.624ZM263.518 132.002H265.366L269.482 118.478H267.634L263.518 132.002ZM277.518 132.002H279.366L283.482 118.478H281.634L277.518 132.002ZM284.63 131.624H290.37V130H284.63V131.624ZM305.63 131.624H311.37V130H305.63V131.624ZM312.63 131.624H318.37V130H312.63V131.624ZM319.63 131.624H325.37V130H319.63V131.624ZM326.63 131.624H332.37V130H326.63V131.624ZM333.63 131.624H339.37V130H333.63V131.624ZM74.518 149.002H76.366L80.482 135.478H78.634L74.518 149.002ZM88.518 149.002H90.366L94.482 135.478H92.634L88.518 149.002ZM102.518 149.002H104.366L108.482 135.478H106.634L102.518 149.002ZM116.63 148.624H122.37V147H116.63V148.624ZM134.634 149.002H136.482L132.366 135.478H130.518L134.634 149.002ZM137.518 149.002H139.366L143.482 135.478H141.634L137.518 149.002ZM151.63 148.624H157.37V147H151.63V148.624ZM158.63 148.624H164.37V147H158.63V148.624ZM176.634 149.002H178.482L174.366 135.478H172.518L176.634 149.002ZM200.518 149.002H202.366L206.482 135.478H204.634L200.518 149.002ZM214.518 149.002H216.366L220.482 135.478H218.634L214.518 149.002ZM228.63 148.624H234.37V147H228.63V148.624ZM235.63 148.624H241.37V147H235.63V148.624ZM253.158 139.86L254.292 138.81L251.282 135.646L249.896 136.92L253.158 139.86ZM256.518 149.002H258.366L262.482 135.478H260.634L256.518 149.002ZM270.63 148.624H276.37V147H270.63V148.624ZM277.63 148.624H283.37V147H277.63V148.624ZM295.634 149.002H297.482L293.366 135.478H291.518L295.634 149.002ZM298.518 149.002H300.366L304.482 135.478H302.634L298.518 149.002ZM312.63 148.624H318.37V147H312.63V148.624ZM319.63 148.624H325.37V147H319.63V148.624ZM326.63 148.624H332.37V147H326.63V148.624ZM333.518 149.002H335.366L339.482 135.478H337.634L333.518 149.002ZM67.518 166.002H69.366L73.482 152.478H71.634L67.518 166.002ZM81.518 166.002H83.366L87.482 152.478H85.634L81.518 166.002ZM95.518 166.002H97.366L101.482 152.478H99.634L95.518 166.002ZM116.63 165.624H122.37V164H116.63V165.624ZM123.63 165.624H129.37V164H123.63V165.624ZM130.518 166.002H132.366L136.482 152.478H134.634L130.518 166.002ZM144.518 166.002H146.366L150.482 152.478H148.634L144.518 166.002ZM151.63 165.624H157.37V164H151.63V165.624ZM158.518 166.002H160.366L164.482 152.478H162.634L158.518 166.002ZM172.518 166.002H174.366L178.482 152.478H176.634L172.518 166.002ZM193.518 166.002H195.366L199.482 152.478H197.634L193.518 166.002ZM207.518 166.002H209.366L213.482 152.478H211.634L207.518 166.002ZM221.518 166.002H223.366L227.482 152.478H225.634L221.518 166.002ZM228.63 165.624H234.37V164H228.63V165.624ZM235.518 166.002H237.366L241.482 152.478H239.634L235.518 166.002ZM249.518 166.002H251.366L255.482 152.478H253.634L249.518 166.002ZM263.518 166.002H265.366L269.482 152.478H267.634L263.518 166.002ZM270.63 165.624H276.37V164H270.63V165.624ZM277.518 166.002H279.366L283.482 152.478H281.634L277.518 166.002ZM296.796 166.254L297.58 164.798C297.095 164.537 296.651 164.21 296.25 163.818C295.858 163.417 295.531 162.969 295.27 162.474C295.018 161.97 294.841 161.443 294.738 160.892C294.635 160.341 294.584 159.791 294.584 159.24C294.584 158.68 294.635 158.129 294.738 157.588C294.841 157.037 295.018 156.515 295.27 156.02C295.531 155.516 295.858 155.068 296.25 154.676C296.651 154.275 297.095 153.943 297.58 153.682L296.796 152.226C296.152 152.534 295.569 152.935 295.046 153.43C294.523 153.925 294.085 154.489 293.73 155.124C293.385 155.749 293.137 156.417 292.988 157.126C292.848 157.826 292.778 158.531 292.778 159.24C292.778 159.949 292.848 160.659 292.988 161.368C293.137 162.068 293.385 162.735 293.73 163.37C294.085 163.995 294.523 164.555 295.046 165.05C295.569 165.545 296.152 165.946 296.796 166.254ZM298.63 165.624H304.37V164H298.63V165.624ZM305.63 165.624H311.37V164H305.63V165.624ZM327.204 166.254C327.848 165.946 328.431 165.545 328.954 165.05C329.477 164.555 329.911 163.995 330.256 163.37C330.611 162.735 330.858 162.068 330.998 161.368C331.147 160.659 331.222 159.949 331.222 159.24C331.222 158.531 331.147 157.826 330.998 157.126C330.858 156.417 330.611 155.749 330.256 155.124C329.911 154.489 329.477 153.925 328.954 153.43C328.431 152.935 327.848 152.534 327.204 152.226L326.42 153.682C326.905 153.943 327.344 154.275 327.736 154.676C328.137 155.068 328.464 155.516 328.716 156.02C328.977 156.515 329.159 157.037 329.262 157.588C329.365 158.129 329.416 158.68 329.416 159.24C329.416 159.791 329.365 160.341 329.262 160.892C329.159 161.443 328.977 161.97 328.716 162.474C328.464 162.969 328.137 163.417 327.736 163.818C327.344 164.21 326.905 164.537 326.42 164.798L327.204 166.254ZM60.518 183.002H62.366L66.482 169.478H64.634L60.518 183.002ZM67.63 182.624H73.37V181H67.63V182.624ZM74.518 183.002H76.366L80.482 169.478H78.634L74.518 183.002ZM81.63 182.624H87.37V181H81.63V182.624ZM88.518 183.002H90.366L94.482 169.478H92.634L88.518 183.002ZM99.634 183.002H101.482L97.366 169.478H95.518L99.634 183.002ZM102.63 182.624H108.37V181H102.63V182.624ZM109.63 182.624H115.37V181H109.63V182.624ZM116.63 182.624H122.37V181H116.63V182.624ZM123.518 183.002H125.366L129.482 169.478H127.634L123.518 183.002ZM130.63 182.624H136.37V181H130.63V182.624ZM140.5 181.112C140.696 181.112 140.883 181.084 141.06 181.028C141.247 180.972 141.41 180.874 141.55 180.734C141.69 180.594 141.788 180.431 141.844 180.244C141.9 180.057 141.928 179.871 141.928 179.684C141.928 179.488 141.9 179.301 141.844 179.124C141.788 178.937 141.69 178.774 141.55 178.634C141.41 178.494 141.247 178.396 141.06 178.34C140.883 178.284 140.696 178.256 140.5 178.256C140.313 178.256 140.127 178.284 139.94 178.34C139.753 178.396 139.59 178.494 139.45 178.634C139.31 178.774 139.212 178.937 139.156 179.124C139.1 179.301 139.072 179.488 139.072 179.684C139.072 179.871 139.1 180.057 139.156 180.244C139.212 180.431 139.31 180.594 139.45 180.734C139.59 180.874 139.753 180.972 139.94 181.028C140.127 181.084 140.313 181.112 140.5 181.112ZM144.63 182.624H150.37V181H144.63V182.624ZM151.63 182.624H157.37V181H151.63V182.624ZM158.63 182.624H164.37V181H158.63V182.624ZM165.518 183.002H167.366L171.482 169.478H169.634L165.518 183.002ZM186.518 183.002H188.366L192.482 169.478H190.634L186.518 183.002ZM193.63 182.624H199.37V181H193.63V182.624ZM200.518 183.002H202.366L206.482 169.478H204.634L200.518 183.002ZM211.634 183.002H213.482L209.366 169.478H207.518L211.634 183.002ZM214.63 182.624H220.37V181H214.63V182.624ZM221.63 182.624H227.37V181H221.63V182.624ZM231.108 183.87C232.321 182.479 232.928 181.084 232.928 179.684C232.928 179.488 232.9 179.301 232.844 179.124C232.788 178.937 232.69 178.774 232.55 178.634C232.41 178.494 232.247 178.396 232.06 178.34C231.883 178.284 231.696 178.256 231.5 178.256C231.313 178.256 231.127 178.284 230.94 178.34C230.753 178.396 230.59 178.494 230.45 178.634C230.31 178.774 230.212 178.937 230.156 179.124C230.1 179.301 230.072 179.488 230.072 179.684C230.072 179.908 230.109 180.127 230.184 180.342C230.268 180.547 230.403 180.72 230.59 180.86C230.777 180.991 230.982 181.07 231.206 181.098C230.963 181.733 230.562 182.367 230.002 183.002L231.108 183.87ZM235.63 182.624H241.37V181H235.63V182.624ZM242.518 183.002H244.366L248.482 169.478H246.634L242.518 183.002ZM249.63 182.624H255.37V181H249.63V182.624ZM259.5 181.112C259.696 181.112 259.883 181.084 260.06 181.028C260.247 180.972 260.41 180.874 260.55 180.734C260.69 180.594 260.788 180.431 260.844 180.244C260.9 180.057 260.928 179.871 260.928 179.684C260.928 179.488 260.9 179.301 260.844 179.124C260.788 178.937 260.69 178.774 260.55 178.634C260.41 178.494 260.247 178.396 260.06 178.34C259.883 178.284 259.696 178.256 259.5 178.256C259.313 178.256 259.127 178.284 258.94 178.34C258.753 178.396 258.59 178.494 258.45 178.634C258.31 178.774 258.212 178.937 258.156 179.124C258.1 179.301 258.072 179.488 258.072 179.684C258.072 179.871 258.1 180.057 258.156 180.244C258.212 180.431 258.31 180.594 258.45 180.734C258.59 180.874 258.753 180.972 258.94 181.028C259.127 181.084 259.313 181.112 259.5 181.112ZM263.63 182.624H269.37V181H263.63V182.624ZM270.63 182.624H276.37V181H270.63V182.624ZM277.63 182.624H283.37V181H277.63V182.624ZM284.518 183.002H286.366L290.482 169.478H288.634L284.518 183.002ZM291.63 182.624H297.37V181H291.63V182.624ZM298.63 182.624H304.37V181H298.63V182.624ZM305.63 182.624H311.37V181H305.63V182.624ZM312.63 182.624H318.37V181H312.63V182.624ZM319.518 183.002H321.366L325.482 169.478H323.634L319.518 183.002Z" fill="#FF3344"/>
</svg>
