<svg width="500" height="375" viewBox="0 0 500 375" fill="none" xmlns="http://www.w3.org/2000/svg">
<g clip-path="url(#clip0)">
<rect width="500" height="375" fill="#777777"/>
<rect x="62" y="55" width="375" height="812" fill="#444444"/>
<g filter="url(#filter0_d)">
<path fill-rule="evenodd" clip-rule="evenodd" d="M62 55H437V148H62V55Z" fill="#76C7A6"/>
</g>
<path d="M289.132 120.468C289.132 122.026 289.14 123.584 289.132 125.142C289.124 126.061 288.485 126.817 287.628 126.965C286.732 127.121 285.899 126.653 285.556 125.812C285.455 125.555 285.416 125.29 285.416 125.018C285.416 121.956 285.408 118.895 285.416 115.833C285.416 115.039 285.759 114.416 286.483 114.073C287.161 113.746 287.823 113.824 288.423 114.283C288.906 114.649 289.14 115.156 289.14 115.771C289.132 117.329 289.132 118.903 289.132 120.468Z" fill="#F2F2F2"/>
<path d="M289.225 110.979C289.225 112.1 288.384 112.926 287.247 112.918C286.14 112.91 285.299 112.046 285.307 110.924C285.315 109.841 286.179 109 287.278 109C288.407 109.008 289.233 109.841 289.225 110.979Z" fill="#F2F2F2"/>
<path fill-rule="evenodd" clip-rule="evenodd" d="M273.544 126.964C268.567 126.971 264.555 122.975 264.555 117.998C264.555 113.028 268.551 109.039 273.529 109.016C278.265 108.993 282.518 112.778 282.518 117.99C282.518 123.256 278.218 127.026 273.544 126.964ZM273.521 123.246C276.434 123.246 278.802 120.894 278.81 117.988C278.818 115.044 276.473 112.652 273.552 112.668C270.67 112.683 268.247 114.903 268.255 117.965C268.255 121.104 270.787 123.238 273.521 123.246Z" fill="#F2F2F2"/>
<path d="M256.43 114.486C256.469 115.686 256.399 117.072 256.477 118.459C256.617 120.866 258.767 123.078 261.174 123.234C261.431 123.25 261.688 123.281 261.945 123.288C262.942 123.32 263.729 124.13 263.729 125.135C263.729 126.124 262.935 126.942 261.937 126.973C257.443 127.098 253.524 123.826 252.839 119.378C252.777 118.996 252.738 118.607 252.738 118.217C252.746 115.764 252.73 113.31 252.746 110.856C252.753 109.563 254.007 108.698 255.223 109.127C255.932 109.384 256.414 110.03 256.422 110.786C256.438 111.962 256.43 113.131 256.43 114.486Z" fill="#F2F2F2"/>
<path d="M261.867 113.481C261.875 114.665 260.956 115.6 259.795 115.6C258.635 115.608 257.676 114.673 257.669 113.52C257.653 112.375 258.611 111.401 259.756 111.393C260.925 111.386 261.867 112.32 261.867 113.481Z" fill="#F2F2F2"/>
<path d="M249.715 121.356C249.715 122.618 249.723 123.873 249.715 125.134C249.707 126.046 249.077 126.809 248.212 126.965C247.308 127.129 246.451 126.646 246.124 125.781C246.015 125.485 245.992 125.173 245.992 124.862C245.992 122.603 245.961 120.344 246 118.085C246.039 115.553 244.2 113.317 241.684 112.827C238.864 112.274 235.92 114.33 235.522 117.181C235.476 117.532 235.452 117.874 235.452 118.225C235.452 120.523 235.46 122.821 235.452 125.119C235.452 125.921 235.078 126.521 234.33 126.833C233.629 127.129 232.959 127.035 232.367 126.529C231.916 126.139 231.729 125.625 231.729 125.041C231.721 122.65 231.682 120.266 231.736 117.874C231.838 113.419 234.969 109.882 239.207 109.165C244.262 108.309 248.703 111.713 249.559 116.387C249.793 117.648 249.676 118.918 249.708 120.188C249.723 120.577 249.715 120.967 249.715 121.356Z" fill="#F2F2F2"/>
<path fill-rule="evenodd" clip-rule="evenodd" d="M219.989 126.989C215.012 126.996 211 123 211 118.023C211 113.053 214.996 109.064 219.974 109.041C224.71 109.018 228.963 112.803 228.963 118.015C228.963 123.281 224.663 127.051 219.989 126.989ZM219.966 123.271C222.879 123.271 225.248 120.919 225.255 118.013C225.263 115.069 222.918 112.677 219.997 112.693C217.115 112.708 214.692 114.928 214.7 117.99C214.7 121.129 217.232 123.263 219.966 123.271Z" fill="#F2F2F2"/>
<path d="M85.5 121H104.5L106 122.5L104.5 124H85.5L84 122.5L85.5 121Z" fill="#F2F2F2"/>
<path d="M85.5 112H104.5L106 113.5L104.5 115H85.5L84 113.5L85.5 112Z" fill="#F2F2F2"/>
<path opacity="0.35" d="M401 73.5027H417.667C418.863 73.5027 419.833 74.4727 419.833 75.6694V81.6694C419.833 82.866 418.863 83.836 417.667 83.836H401C399.803 83.836 398.833 82.866 398.833 81.6694V75.6693C398.833 74.4727 399.803 73.5027 401 73.5027Z" stroke="white"/>
<path opacity="0.4" d="M421.333 76.6693V80.6693C422.138 80.3305 422.661 79.5424 422.661 78.6693C422.661 77.7962 422.138 77.0081 421.333 76.6693" fill="white"/>
<path d="M400.333 76.336C400.333 75.5996 400.93 75.0027 401.667 75.0027H417C417.736 75.0027 418.333 75.5996 418.333 76.336V81.0027C418.333 81.7391 417.736 82.336 417 82.336H401.667C400.93 82.336 400.333 81.7391 400.333 81.0027V76.336Z" fill="white"/>
<path fill-rule="evenodd" clip-rule="evenodd" d="M385.664 75.2773C387.88 75.2774 390.011 76.1289 391.617 77.6557C391.738 77.7735 391.931 77.772 392.05 77.6523L393.206 76.4857C393.266 76.4249 393.3 76.3427 393.299 76.2571C393.299 76.1715 393.264 76.0897 393.203 76.0297C388.988 71.9901 382.338 71.9901 378.123 76.0297C378.062 76.0896 378.028 76.1715 378.027 76.257C378.027 76.3426 378.06 76.4249 378.12 76.4857L379.277 77.6523C379.396 77.7722 379.589 77.7737 379.71 77.6557C381.316 76.1288 383.448 75.2773 385.664 75.2773ZM385.664 79.073C386.881 79.0729 388.055 79.5255 388.958 80.3427C389.08 80.4586 389.272 80.4561 389.391 80.337L390.546 79.1703C390.607 79.1091 390.64 79.0261 390.639 78.9399C390.638 78.8536 390.603 78.7713 390.541 78.7113C387.793 76.1549 383.537 76.1549 380.789 78.7113C380.727 78.7713 380.691 78.8536 380.69 78.9399C380.69 79.0262 380.723 79.1092 380.784 79.1703L381.939 80.337C382.058 80.4561 382.25 80.4586 382.372 80.3427C383.274 79.526 384.447 79.0735 385.664 79.073ZM387.977 81.6268C387.978 81.7133 387.944 81.7967 387.883 81.8573L385.885 83.873C385.827 83.9322 385.747 83.9656 385.664 83.9656C385.58 83.9656 385.501 83.9322 385.442 83.873L383.444 81.8573C383.383 81.7967 383.349 81.7132 383.351 81.6267C383.352 81.5402 383.39 81.4583 383.454 81.4003C384.73 80.3214 386.598 80.3214 387.873 81.4003C387.938 81.4584 387.975 81.5403 387.977 81.6268Z" fill="white"/>
<path fill-rule="evenodd" clip-rule="evenodd" d="M372 73.3359H371C370.448 73.3359 370 73.7837 370 74.3359V83.0026C370 83.5549 370.448 84.0026 371 84.0026H372C372.552 84.0026 373 83.5549 373 83.0026V74.3359C373 73.7837 372.552 73.3359 372 73.3359ZM366.333 75.6693H367.333C367.886 75.6693 368.333 76.117 368.333 76.6693V83.0026C368.333 83.5549 367.886 84.0026 367.333 84.0026H366.333C365.781 84.0026 365.333 83.5549 365.333 83.0026V76.6693C365.333 76.117 365.781 75.6693 366.333 75.6693ZM362.667 78.0026H361.667C361.114 78.0026 360.667 78.4503 360.667 79.0026V83.0026C360.667 83.5549 361.114 84.0026 361.667 84.0026H362.667C363.219 84.0026 363.667 83.5549 363.667 83.0026V79.0026C363.667 78.4503 363.219 78.0026 362.667 78.0026ZM358 80.0026H357C356.448 80.0026 356 80.4503 356 81.0026V83.0026C356 83.5549 356.448 84.0026 357 84.0026H358C358.552 84.0026 359 83.5549 359 83.0026V81.0026C359 80.4503 358.552 80.0026 358 80.0026Z" fill="white"/>
<path d="M91.8252 84H93.8691V74.1357H91.8184L89.2686 75.9062V77.7383L91.7842 76.0293H91.8252V84ZM99.9531 84.2188C102.305 84.2188 103.952 83.043 103.952 81.334C103.952 80.0352 103.002 79.0781 101.655 78.8115V78.7705C102.811 78.4834 103.59 77.6357 103.59 76.5762C103.59 75.0312 102.093 73.917 99.9531 73.917C97.8135 73.917 96.3096 75.0381 96.3096 76.5693C96.3096 77.6426 97.0957 78.4902 98.2578 78.7705V78.8115C96.9111 79.0713 95.9541 80.0283 95.9541 81.3271C95.9541 83.0361 97.5947 84.2188 99.9531 84.2188ZM99.9531 82.7148C98.8662 82.7148 98.1074 82.0723 98.1074 81.1768C98.1074 80.2949 98.8662 79.6523 99.9531 79.6523C101.04 79.6523 101.792 80.2881 101.792 81.1768C101.792 82.0723 101.04 82.7148 99.9531 82.7148ZM99.9531 78.1484C99.0166 78.1484 98.3535 77.5879 98.3535 76.7812C98.3535 75.9678 99.0166 75.4072 99.9531 75.4072C100.883 75.4072 101.553 75.9678 101.553 76.7812C101.553 77.5879 100.883 78.1484 99.9531 78.1484ZM106.468 82.6055C107.076 82.6055 107.568 82.1133 107.568 81.5049C107.568 80.8896 107.076 80.4043 106.468 80.4043C105.853 80.4043 105.367 80.8896 105.367 81.5049C105.367 82.1133 105.853 82.6055 106.468 82.6055ZM106.468 77.7246C107.076 77.7246 107.568 77.2324 107.568 76.624C107.568 76.0088 107.076 75.5234 106.468 75.5234C105.853 75.5234 105.367 76.0088 105.367 76.624C105.367 77.2324 105.853 77.7246 106.468 77.7246ZM111.458 79.6592H112.586C113.782 79.6592 114.486 80.1924 114.479 81.1494C114.479 81.9834 113.769 82.5576 112.736 82.5576C111.649 82.5576 110.938 82.0107 110.87 81.2041H108.901C108.99 83.0156 110.508 84.2188 112.736 84.2188C115.026 84.2188 116.578 83.0293 116.578 81.2383C116.578 79.8848 115.621 79.0166 114.158 78.8799V78.8389C115.32 78.5996 116.216 77.7861 116.216 76.5283C116.216 74.9492 114.808 73.917 112.723 73.917C110.658 73.917 109.223 75.0723 109.12 76.877H111.014C111.075 76.0225 111.752 75.5029 112.723 75.5029C113.707 75.5029 114.261 76.0156 114.261 76.8223C114.261 77.6289 113.591 78.1895 112.559 78.1895H111.458V79.6592ZM121.746 84.2188C124.248 84.2188 125.766 82.2295 125.766 79.0439C125.766 75.8584 124.234 73.9102 121.746 73.9102C119.258 73.9102 117.72 75.8652 117.72 79.0508C117.72 82.2432 119.244 84.2188 121.746 84.2188ZM121.746 82.5645C120.529 82.5645 119.818 81.3135 119.818 79.0508C119.818 76.8086 120.543 75.5645 121.746 75.5645C122.956 75.5645 123.667 76.8018 123.667 79.0508C123.667 81.3135 122.963 82.5645 121.746 82.5645Z" fill="white"/>
<g filter="url(#filter1_d)">
<rect x="72" y="162" width="356" height="669" rx="10" fill="#171717"/>
</g>
<path d="M287.945 486.056C285.748 488.252 282.168 488.265 280.142 485.91C271.736 476.138 265.969 464.337 263.441 451.632C260.547 437.083 262.033 422.003 267.709 408.299C273.386 394.594 282.999 382.881 295.333 374.64C307.666 366.399 322.167 362 337 362C351.834 362 366.334 366.399 378.668 374.64C391.002 382.881 400.615 394.594 406.291 408.299C411.968 422.003 413.453 437.083 410.559 451.632C408.032 464.337 402.264 476.138 393.858 485.91C391.832 488.265 388.252 488.252 386.056 486.056V486.056C383.859 483.859 383.881 480.312 385.875 477.93C392.725 469.751 397.432 459.959 399.525 449.437C401.985 437.071 400.723 424.253 395.898 412.604C391.073 400.955 382.902 390.999 372.418 383.994C361.934 376.989 349.609 373.25 337 373.25C324.392 373.25 312.066 376.989 301.583 383.994C291.099 390.999 282.928 400.955 278.103 412.604C273.278 424.253 272.015 437.071 274.475 449.437C276.568 459.959 281.276 469.751 288.125 477.93C290.12 480.312 290.141 483.859 287.945 486.056V486.056Z" fill="#E0E0E0" fill-opacity="0.5"/>
<path d="M287.945 486.056C285.748 488.252 282.168 488.265 280.142 485.91C269.786 473.871 263.485 458.812 262.231 442.884C260.83 425.082 265.827 407.363 276.324 392.916C286.821 378.469 302.128 368.241 319.492 364.072C335.027 360.343 351.297 361.682 365.946 367.811C368.812 369.01 369.906 372.418 368.496 375.186V375.186C367.086 377.954 363.706 379.03 360.824 377.869C348.576 372.934 335.048 371.907 322.118 375.011C307.358 378.555 294.347 387.249 285.425 399.529C276.503 411.809 272.256 426.869 273.447 442.002C274.49 455.258 279.647 467.807 288.125 477.93C290.12 480.312 290.141 483.859 287.945 486.056V486.056Z" fill="white"/>
<path d="M287.945 336.056C285.748 338.252 282.168 338.265 280.142 335.91C271.736 326.138 265.968 314.337 263.441 301.632C260.547 287.083 262.033 272.003 267.709 258.299C273.386 244.594 282.999 232.881 295.332 224.64C307.666 216.399 322.167 212 337 212C351.834 212 366.334 216.399 378.668 224.64C391.002 232.881 400.615 244.594 406.291 258.299C411.968 272.003 413.453 287.083 410.559 301.632C408.032 314.337 402.264 326.138 393.858 335.91C391.832 338.265 388.252 338.252 386.056 336.056V336.056C383.859 333.859 383.881 330.312 385.875 327.93C392.725 319.751 397.432 309.959 399.525 299.437C401.985 287.071 400.723 274.253 395.897 262.604C391.072 250.955 382.901 240.999 372.418 233.994C361.934 226.989 349.609 223.25 337 223.25C324.392 223.25 312.066 226.989 301.583 233.994C291.099 240.999 282.928 250.955 278.103 262.604C273.278 274.253 272.015 287.071 274.475 299.437C276.568 309.959 281.276 319.751 288.125 327.93C290.12 330.312 290.141 333.859 287.945 336.056V336.056Z" fill="#E0E0E0" fill-opacity="0.5"/>
<path d="M287.945 336.056C285.748 338.252 282.168 338.265 280.142 335.91C269.795 323.882 263.496 308.838 262.235 292.925C260.825 275.137 265.804 257.429 276.276 242.982C286.749 228.534 302.03 218.294 319.373 214.101C334.889 210.349 351.147 211.656 365.796 217.748C368.665 218.941 369.766 222.347 368.362 225.118V225.118C366.958 227.89 363.58 228.972 360.696 227.817C348.448 222.913 334.931 221.913 322.017 225.036C307.275 228.6 294.287 237.304 285.385 249.584C276.483 261.865 272.251 276.916 273.449 292.036C274.499 305.28 279.654 317.816 288.125 327.93C290.12 330.312 290.141 333.859 287.945 336.056V336.056Z" fill="white"/>
<path d="M297.268 289V269.005H292.536C292.009 269.283 288.273 271.759 287.761 272.14V276.402C288.229 276.065 291.906 273.619 292.272 273.414H292.478V289H297.268ZM299.547 286.7C299.547 288.15 300.733 289.337 302.184 289.337C303.634 289.337 304.82 288.15 304.82 286.7C304.82 285.25 303.634 284.063 302.184 284.063C300.733 284.063 299.547 285.25 299.547 286.7ZM311.113 280.504H313.325C315.376 280.504 316.489 281.646 316.489 283.067C316.504 284.562 315.317 285.689 313.384 285.689C311.509 285.689 310.234 284.635 310.132 283.199H305.708C305.752 286.466 308.14 289.366 313.267 289.366C317.559 289.366 321.338 287.096 321.309 283.375C321.279 280.211 319.038 278.702 317.104 278.57V278.365C318.613 278.16 320.737 276.739 320.708 273.897C320.679 270.792 317.573 268.653 313.457 268.653C308.784 268.653 306.118 271.173 305.986 274.732H310.483C310.527 273.531 311.494 272.257 313.267 272.257C314.878 272.257 315.991 273.238 316.006 274.527C316.006 275.919 314.907 276.93 313.223 276.93H311.113V280.504ZM332.869 273.429C329.148 273.429 326.775 276.314 326.775 280.489V282.188C326.775 286.378 328.958 289.234 332.869 289.234C335.213 289.234 336.766 287.975 337.513 286.539H337.571V289H339.49V267.95H337.469V275.992H337.41C336.707 274.674 335.14 273.429 332.869 273.429ZM333.03 275.245C335.799 275.245 337.513 277.428 337.513 280.592V282.115C337.513 285.367 335.857 287.433 333.074 287.433C330.613 287.433 328.797 285.631 328.797 282.101V280.606C328.797 276.988 330.657 275.245 333.03 275.245ZM341.433 283.727C341.506 286.217 343.308 289.439 348.479 289.439C352.521 289.439 355.744 287.418 355.744 283.595C355.744 280.445 353.679 279.083 350.5 278.219L347.233 277.325C345.153 276.783 344.157 275.699 344.157 274.044C344.157 271.744 346.047 270.411 348.742 270.411C351.789 270.411 353.269 272.096 353.43 274.044H355.495C355.422 270.382 352.214 268.551 348.786 268.551C345.227 268.551 342.062 270.572 342.062 274.161C342.062 277.193 344.245 278.687 346.662 279.332L350.002 280.226C352.448 280.855 353.635 281.852 353.635 283.741C353.635 286.07 351.687 287.564 348.728 287.564C345.329 287.564 343.688 285.689 343.513 283.727H341.433ZM357.804 293.453L365.011 267.95H363.106L355.914 293.453H357.804ZM366.089 289H368.11V279.215C368.11 276.798 369.619 275.289 371.743 275.289C373.984 275.289 375.317 276.681 375.317 279.171V289H377.324V279.186C377.324 277.003 378.613 275.289 381.001 275.289C383.286 275.289 384.531 276.798 384.531 278.966V289H386.553V278.57C386.553 275.362 384.59 273.429 381.426 273.429C378.833 273.429 377.251 274.747 376.724 276.051H376.636C376.064 274.513 374.629 273.429 372.168 273.429C370.015 273.429 368.696 274.63 368.213 275.685H368.11V273.692H366.089V289ZM295.941 302.162C295.941 299.525 297.119 297.873 299.342 297.873C301.188 297.873 302.392 299.112 302.427 300.686H303.649V300.677C303.649 298.488 301.9 296.757 299.342 296.757C296.372 296.757 294.728 298.866 294.728 302.188V303.894C294.728 307.181 296.354 309.264 299.351 309.264C301.865 309.264 303.667 307.638 303.667 305.511H302.454C302.419 307.049 301.179 308.139 299.351 308.139C297.11 308.139 295.941 306.504 295.941 303.911V302.162ZM308.611 299.657C306.15 299.657 304.744 301.433 304.744 303.92V304.878C304.744 307.374 306.15 309.149 308.611 309.149C311.072 309.149 312.47 307.374 312.47 304.878V303.92C312.47 301.441 311.063 299.657 308.611 299.657ZM308.611 300.729C310.264 300.729 311.257 301.951 311.257 303.99V304.816C311.257 306.847 310.264 308.068 308.611 308.068C306.95 308.068 305.957 306.847 305.957 304.816V303.99C305.957 301.951 306.959 300.729 308.611 300.729ZM314.013 309H315.226V303.375C315.226 302.03 315.982 300.773 317.704 300.773C319.163 300.773 320.086 301.687 320.086 303.261V309H321.299V303.085C321.299 300.861 319.902 299.657 318.012 299.657C316.474 299.657 315.604 300.475 315.261 301.134H315.226V299.815H314.013V309ZM326.358 299.657C324.126 299.657 322.702 301.389 322.702 303.894V304.913C322.702 307.427 324.012 309.141 326.358 309.141C327.764 309.141 328.696 308.385 329.144 307.523H329.179V309H330.331V296.37H329.118V301.195H329.083C328.661 300.404 327.721 299.657 326.358 299.657ZM326.455 300.747C328.116 300.747 329.144 302.057 329.144 303.955V304.869C329.144 306.82 328.151 308.06 326.481 308.06C325.005 308.06 323.915 306.979 323.915 304.86V303.964C323.915 301.793 325.031 300.747 326.455 300.747ZM339.38 299.815H338.158V305.484C338.158 307.014 337.192 308.033 335.689 308.033C334.362 308.033 333.351 307.374 333.351 305.643V299.815H332.138V305.985C332.138 308.077 333.509 309.149 335.381 309.149C336.902 309.149 337.789 308.446 338.114 307.69H338.167V309H339.38V299.815ZM340.923 304.887C340.923 307.348 342.286 309.149 344.659 309.149C346.795 309.149 347.867 307.98 348.148 306.539H346.944C346.768 307.33 346.056 308.042 344.755 308.042C343.156 308.042 342.136 306.82 342.136 304.878V303.929C342.136 301.934 343.112 300.765 344.729 300.765C345.889 300.765 346.68 301.564 346.882 302.426H348.095C348.007 301.081 346.768 299.657 344.65 299.657C342.338 299.657 340.923 301.354 340.923 303.85V304.887ZM350.245 299.815H348.953V300.853H350.245V306.548C350.245 308.297 350.658 309.088 352.706 309.088C353.022 309.088 353.33 309.053 353.471 309.018V308.024C353.33 308.042 353.181 308.051 353.005 308.051C351.836 308.051 351.449 307.761 351.449 306.636V300.853H353.392V299.815H351.449V297.521H350.245V299.815ZM354.891 309H356.104V299.815H354.891V309ZM354.654 297.548C354.654 298.022 355.032 298.4 355.497 298.4C355.963 298.4 356.35 298.022 356.35 297.548C356.35 297.082 355.963 296.704 355.497 296.704C355.032 296.704 354.654 297.082 354.654 297.548ZM360.231 309H361.523L364.854 299.815H363.633L360.89 307.471H360.846L358.236 299.815H356.962L360.231 309ZM365.554 309H366.767V299.815H365.554V309ZM365.317 297.548C365.317 298.022 365.695 298.4 366.16 298.4C366.626 298.4 367.013 298.022 367.013 297.548C367.013 297.082 366.626 296.704 366.16 296.704C365.695 296.704 365.317 297.082 365.317 297.548ZM369.303 299.815H368.011V300.853H369.303V306.548C369.303 308.297 369.716 309.088 371.764 309.088C372.081 309.088 372.388 309.053 372.529 309.018V308.024C372.388 308.042 372.239 308.051 372.063 308.051C370.894 308.051 370.507 307.761 370.507 306.636V300.853H372.45V299.815H370.507V297.521H369.303V299.815ZM381.095 299.815H379.803L377.14 307.603H377.096L374.415 299.815H373.07L376.498 309.141L376.305 309.756C376.015 310.731 375.479 311.127 374.477 311.127C374.248 311.127 373.967 311.109 373.809 311.092V312.111C374.055 312.164 374.327 312.182 374.591 312.182C375.988 312.182 376.832 311.61 377.5 309.835L377.781 309.079L381.095 299.815Z" fill="#F2F2F2"/>
<path d="M322.384 189.379C322.463 191.77 324.476 193.22 327.499 193.22C330.672 193.22 332.614 191.646 332.614 189.168C332.614 187.243 331.445 186.162 328.765 185.626L327.42 185.354C325.926 185.055 325.311 184.571 325.311 183.789C325.311 182.857 326.19 182.242 327.499 182.242C328.835 182.242 329.776 182.893 329.863 183.974H332.368C332.324 181.645 330.461 180.098 327.499 180.098C324.678 180.098 322.656 181.636 322.656 183.956C322.656 185.846 323.896 187.059 326.427 187.56L327.763 187.823C329.354 188.148 329.951 188.623 329.951 189.458C329.951 190.39 328.985 191.075 327.569 191.075C326.128 191.075 325.056 190.442 324.889 189.379H322.384ZM338.345 193.202C341.193 193.202 343.012 191.383 343.012 188.28C343.012 185.222 341.166 183.376 338.345 183.376C335.524 183.376 333.678 185.23 333.678 188.28C333.678 191.374 335.497 193.202 338.345 193.202ZM338.345 191.242C337.079 191.242 336.279 190.179 336.279 188.289C336.279 186.417 337.097 185.336 338.345 185.336C339.593 185.336 340.402 186.417 340.402 188.289C340.402 190.179 339.602 191.242 338.345 191.242ZM344.383 193H346.949V183.578H344.383V193ZM345.657 182.304C346.404 182.304 346.993 181.706 346.993 180.985C346.993 180.256 346.404 179.667 345.657 179.667C344.91 179.667 344.321 180.256 344.321 180.985C344.321 181.706 344.91 182.304 345.657 182.304ZM348.725 193H351.291V180.317H348.725V193Z" fill="#F2F2F2"/>
<path d="M112.945 486.056C110.748 488.252 107.168 488.265 105.142 485.91C96.736 476.138 90.9685 464.337 88.4413 451.632C85.5475 437.083 87.0327 422.003 92.7093 408.299C98.3859 394.594 107.999 382.881 120.332 374.64C132.666 366.399 147.167 362 162 362C176.834 362 191.334 366.399 203.668 374.64C216.002 382.881 225.615 394.594 231.291 408.299C236.968 422.003 238.453 437.083 235.559 451.632C233.032 464.337 227.264 476.138 218.858 485.91C216.832 488.265 213.252 488.252 211.056 486.056V486.056C208.859 483.859 208.881 480.312 210.875 477.93C217.725 469.751 222.432 459.959 224.525 449.437C226.985 437.071 225.723 424.253 220.898 412.604C216.072 400.955 207.901 390.999 197.418 383.994C186.934 376.989 174.609 373.25 162 373.25C149.392 373.25 137.066 376.989 126.583 383.994C116.099 390.999 107.928 400.955 103.103 412.604C98.2778 424.253 97.0154 437.071 99.4752 449.437C101.568 459.959 106.276 469.751 113.125 477.93C115.12 480.312 115.141 483.859 112.945 486.056V486.056Z" fill="#E0E0E0" fill-opacity="0.5"/>
<path d="M112.945 486.056C110.748 488.252 107.168 488.265 105.142 485.91C96.736 476.138 90.9685 464.337 88.4413 451.632C85.5475 437.083 87.0327 422.003 92.7093 408.299C98.3859 394.594 107.999 382.881 120.332 374.64C131.103 367.443 143.526 363.177 156.38 362.211C159.478 361.978 162 364.518 162 367.625V367.625C162 370.732 159.477 373.224 156.382 373.498C145.756 374.438 135.503 378.034 126.583 383.994C116.099 390.999 107.928 400.955 103.103 412.604C98.2778 424.253 97.0154 437.071 99.4752 449.437C101.568 459.959 106.276 469.751 113.125 477.93C115.12 480.312 115.141 483.859 112.945 486.056V486.056Z" fill="white"/>
<path d="M112.945 336.056C110.748 338.252 107.168 338.265 105.142 335.91C96.7359 326.138 90.9684 314.337 88.4412 301.632C85.5473 287.083 87.0326 272.003 92.7092 258.299C98.3857 244.594 107.999 232.881 120.332 224.64C132.666 216.399 147.167 212 162 212C176.834 212 191.334 216.399 203.668 224.64C216.002 232.881 225.615 244.594 231.291 258.299C236.968 272.003 238.453 287.083 235.559 301.632C233.032 314.337 227.264 326.138 218.858 335.91C216.832 338.265 213.252 338.252 211.056 336.056V336.056C208.859 333.859 208.881 330.312 210.875 327.93C217.725 319.751 222.432 309.959 224.525 299.437C226.985 287.071 225.723 274.253 220.897 262.604C216.072 250.955 207.901 240.999 197.418 233.994C186.934 226.989 174.609 223.25 162 223.25C149.392 223.25 137.066 226.989 126.583 233.994C116.099 240.999 107.928 250.955 103.103 262.604C98.2777 274.253 97.0153 287.071 99.4751 299.437C101.568 309.959 106.276 319.751 113.125 327.93C115.12 330.312 115.141 333.859 112.945 336.056V336.056Z" fill="#E0E0E0" fill-opacity="0.5"/>
<path d="M112.945 336.056C110.748 338.252 107.168 338.265 105.142 335.91C99.4242 329.263 94.9063 321.653 91.8073 313.419C88.0467 303.428 86.4625 292.749 87.1606 282.096C87.8588 271.443 90.8231 261.062 95.8554 251.646C100.002 243.888 105.475 236.932 112.012 231.088C114.328 229.017 117.875 229.497 119.766 231.962V231.962C121.657 234.427 121.173 237.94 118.885 240.041C113.604 244.89 109.169 250.603 105.777 256.949C101.5 264.952 98.98 273.776 98.3866 282.831C97.7932 291.886 99.1397 300.964 102.336 309.456C104.871 316.191 108.522 322.434 113.125 327.93C115.12 330.312 115.141 333.859 112.945 336.056V336.056Z" fill="white"/>
<path d="M119.749 267.006C116.726 271.998 113.667 277.131 110.995 282.299V286.904H122.562V291H127.976V286.904H130.788V282.352H127.976V267.006H119.749ZM116.058 282.352V282.281C117.974 278.432 120.136 274.723 122.333 271.172H122.562V282.352H116.058ZM136.811 278.238C136.811 273.457 138.287 271.225 140.484 271.225C142.664 271.225 144.158 273.492 144.158 278.238V279.732C144.158 284.479 142.664 286.799 140.484 286.799C138.287 286.799 136.811 284.514 136.811 279.732V278.238ZM130.992 279.75C130.992 286.676 134.314 291.439 140.414 291.439C146.812 291.439 149.959 286.236 149.959 279.75V278.221C149.959 271.242 146.654 266.584 140.537 266.584C134.473 266.584 130.992 271.295 130.992 278.221V279.75ZM156.35 278.238C156.35 273.457 157.827 271.225 160.024 271.225C162.204 271.225 163.698 273.492 163.698 278.238V279.732C163.698 284.479 162.204 286.799 160.024 286.799C157.827 286.799 156.35 284.514 156.35 279.732V278.238ZM150.532 279.75C150.532 286.676 153.854 291.439 159.954 291.439C166.352 291.439 169.499 286.236 169.499 279.75V278.221C169.499 271.242 166.194 266.584 160.077 266.584C154.012 266.584 150.532 271.295 150.532 278.221V279.75ZM177.184 291H179.61V265.74H177.184V291ZM197.796 272.631H195.353V283.969C195.353 287.027 193.419 289.066 190.413 289.066C187.759 289.066 185.737 287.748 185.737 284.285V272.631H183.312V284.971C183.312 289.154 186.054 291.299 189.798 291.299C192.839 291.299 194.614 289.893 195.265 288.381H195.37V291H197.796V272.631ZM212.273 291H215.209L208.793 281.789L215.033 272.631H212.238L207.387 279.926H207.369L202.535 272.631H199.6L205.822 281.789L199.406 291H202.201L207.211 283.687H207.229L212.273 291ZM134.065 308.836C134.109 310.33 135.19 312.264 138.292 312.264C140.718 312.264 142.652 311.051 142.652 308.757C142.652 306.867 141.412 306.05 139.505 305.531L137.545 304.995C136.297 304.67 135.7 304.02 135.7 303.026C135.7 301.646 136.833 300.847 138.451 300.847C140.279 300.847 141.166 301.857 141.263 303.026H142.502C142.458 300.829 140.534 299.73 138.477 299.73C136.341 299.73 134.443 300.943 134.443 303.097C134.443 304.916 135.752 305.812 137.203 306.199L139.206 306.735C140.674 307.113 141.386 307.711 141.386 308.845C141.386 310.242 140.217 311.139 138.442 311.139C136.403 311.139 135.418 310.014 135.313 308.836H134.065ZM151.138 302.815H149.917V308.484C149.917 310.014 148.95 311.033 147.447 311.033C146.12 311.033 145.109 310.374 145.109 308.643V302.815H143.896V308.985C143.896 311.077 145.267 312.149 147.139 312.149C148.66 312.149 149.548 311.446 149.873 310.69H149.926V312H151.138V302.815ZM153.06 312H154.273V306.375C154.273 305.03 155.029 303.773 156.751 303.773C158.21 303.773 159.133 304.687 159.133 306.261V312H160.346V306.085C160.346 303.861 158.948 302.657 157.059 302.657C155.521 302.657 154.651 303.475 154.308 304.134H154.273V302.815H153.06V312ZM162.197 312H163.41V299.37H162.197V312ZM165.472 312H166.685V302.815H165.472V312ZM165.234 300.548C165.234 301.022 165.612 301.4 166.078 301.4C166.544 301.4 166.931 301.022 166.931 300.548C166.931 300.082 166.544 299.704 166.078 299.704C165.612 299.704 165.234 300.082 165.234 300.548ZM172.157 314.276C170.812 314.276 169.951 313.547 169.792 312.703H168.536C168.729 314.224 169.951 315.322 172.148 315.322C174.24 315.322 175.936 314.127 175.936 311.886V302.815H174.767V304.204H174.732C174.319 303.36 173.264 302.657 171.981 302.657C169.828 302.657 168.316 304.187 168.316 306.806V307.702C168.316 310.356 169.836 311.868 171.981 311.868C173.255 311.868 174.345 311.156 174.697 310.304H174.732V311.895C174.732 313.38 173.704 314.276 172.157 314.276ZM172.157 303.729C173.712 303.729 174.732 304.995 174.732 306.929V307.605C174.732 309.557 173.747 310.796 172.157 310.796C170.513 310.796 169.529 309.574 169.529 307.597V306.929C169.529 304.916 170.504 303.729 172.157 303.729ZM177.945 312H179.158V306.375C179.158 305.03 179.905 303.773 181.637 303.773C183.095 303.773 184.027 304.687 184.027 306.261V312H185.231V306.085C185.231 303.861 183.825 302.657 181.944 302.657C180.406 302.657 179.527 303.475 179.193 304.134H179.158V299.37H177.945V312ZM187.548 302.815H186.256V303.853H187.548V309.548C187.548 311.297 187.961 312.088 190.009 312.088C190.325 312.088 190.633 312.053 190.774 312.018V311.024C190.633 311.042 190.484 311.051 190.308 311.051C189.139 311.051 188.752 310.761 188.752 309.636V303.853H190.695V302.815H188.752V300.521H187.548V302.815Z" fill="#F2F2F2"/>
<path d="M136.45 193H139.272L134.86 180.317H131.739L127.336 193H130.061L131.027 189.924H135.484L136.45 193ZM133.225 182.743H133.286L134.912 187.937H131.599L133.225 182.743ZM140.353 193H142.919V187.313C142.919 186.259 143.578 185.521 144.554 185.521C145.503 185.521 146.074 186.118 146.074 187.129V193H148.544V187.278C148.544 186.232 149.186 185.521 150.161 185.521C151.154 185.521 151.699 186.118 151.699 187.208V193H154.266V186.566C154.266 184.668 153.026 183.402 151.181 183.402C149.801 183.402 148.676 184.149 148.254 185.336H148.201C147.885 184.105 146.936 183.402 145.573 183.402C144.29 183.402 143.279 184.149 142.884 185.283H142.831V183.578H140.353V193ZM161.49 193.149C163.863 193.149 165.314 191.321 165.314 188.289C165.314 185.248 163.855 183.429 161.482 183.429C160.137 183.429 159.091 184.097 158.572 185.213H158.52V180.317H155.953V193H158.485V191.383H158.537C159.056 192.481 160.11 193.149 161.49 193.149ZM160.603 185.485C161.877 185.485 162.686 186.575 162.686 188.289C162.686 190.012 161.886 191.084 160.603 191.084C159.355 191.084 158.511 189.994 158.511 188.289C158.511 186.602 159.363 185.485 160.603 185.485ZM166.693 193H169.26V183.578H166.693V193ZM167.968 182.304C168.715 182.304 169.304 181.706 169.304 180.985C169.304 180.256 168.715 179.667 167.968 179.667C167.221 179.667 166.632 180.256 166.632 180.985C166.632 181.706 167.221 182.304 167.968 182.304ZM175.201 185.274C176.344 185.274 177.126 186.101 177.179 187.305H173.18C173.268 186.127 174.076 185.274 175.201 185.274ZM177.214 190.117C176.977 190.838 176.256 191.304 175.316 191.304C174.006 191.304 173.153 190.381 173.153 189.036V188.878H179.649V188.096C179.649 185.23 177.917 183.376 175.175 183.376C172.389 183.376 170.631 185.327 170.631 188.333C170.631 191.348 172.371 193.202 175.272 193.202C177.601 193.202 179.288 191.963 179.569 190.117H177.214ZM180.976 193H183.542V187.595C183.542 186.373 184.272 185.529 185.423 185.529C186.574 185.529 187.154 186.232 187.154 187.463V193H189.721V186.927C189.721 184.721 188.543 183.402 186.451 183.402C185.001 183.402 184.008 184.088 183.507 185.257H183.454V183.578H180.976V193ZM192.032 181.407V183.578H190.705V185.512H192.032V190.46C192.032 192.297 192.894 193.035 195.109 193.035C195.627 193.035 196.067 192.991 196.33 192.93V191.04C196.172 191.066 195.935 191.084 195.706 191.084C194.95 191.084 194.599 190.741 194.599 190.021V185.512H196.339V183.578H194.599V181.407H192.032Z" fill="#F2F2F2"/>
<path fill-rule="evenodd" clip-rule="evenodd" d="M397 32H102C67.2061 32 39 60.2061 39 95V147C37.3431 147 36 148.343 36 150V176C36 177.657 37.3431 179 39 179V209C37.3431 209 36 210.343 36 212V268C36 269.657 37.3431 271 39 271V287C37.3431 287 36 288.343 36 290V346C36 347.657 37.3431 349 39 349V827C39 861.794 67.2061 890 102 890H397C431.794 890 460 861.794 460 827V329C461.657 329 463 327.657 463 326V232C463 230.343 461.657 229 460 229V95C460 60.2061 431.794 32 397 32ZM44 95C44 62.9675 69.9675 37 102 37H397C429.033 37 455 62.9675 455 95V827C455 859.033 429.033 885 397 885H102C69.9675 885 44 859.033 44 827V95Z" fill="#AABBCC"/>
<path fill-rule="evenodd" clip-rule="evenodd" d="M397 32H102C67.2061 32 39 60.2061 39 95V147C37.3431 147 36 148.343 36 150V176C36 177.657 37.3431 179 39 179V209C37.3431 209 36 210.343 36 212V268C36 269.657 37.3431 271 39 271V287C37.3431 287 36 288.343 36 290V346C36 347.657 37.3431 349 39 349V827C39 861.794 67.2061 890 102 890H397C431.794 890 460 861.794 460 827V329C461.657 329 463 327.657 463 326V232C463 230.343 461.657 229 460 229V95C460 60.2061 431.794 32 397 32ZM44 95C44 62.9675 69.9675 37 102 37H397C429.033 37 455 62.9675 455 95V827C455 859.033 429.033 885 397 885H102C69.9675 885 44 859.033 44 827V95Z" fill="#BDBDBD"/>
<path fill-rule="evenodd" clip-rule="evenodd" d="M397 32H102C67.2061 32 39 60.2061 39 95V147C37.3431 147 36 148.343 36 150V176C36 177.657 37.3431 179 39 179V209C37.3431 209 36 210.343 36 212V268C36 269.657 37.3431 271 39 271V287C37.3431 287 36 288.343 36 290V346C36 347.657 37.3431 349 39 349V827C39 861.794 67.2061 890 102 890H397C431.794 890 460 861.794 460 827V329C461.657 329 463 327.657 463 326V232C463 230.343 461.657 229 460 229V95C460 60.2061 431.794 32 397 32ZM44 95C44 62.9675 69.9675 37 102 37H397C429.033 37 455 62.9675 455 95V827C455 859.033 429.033 885 397 885H102C69.9675 885 44 859.033 44 827V95Z" fill="#313131"/>
<path fill-rule="evenodd" clip-rule="evenodd" d="M437 95C437 72.9 419.1 55 397 55H361.5C357.082 55 353.5 58.5817 353.5 63V64C353.5 76.2 343.7 86 331.5 86H167.5C155.3 86 145.5 76.2 145.5 64V63C145.5 58.5817 141.918 55 137.5 55H102C79.9 55 62 72.9 62 95V827C62 849.1 79.9 867 102 867H397C419.1 867 437 849.1 437 827V95ZM102 37H397C429 37 455 63 455 95V827C455 859 429 885 397 885H102C70 885 44 859 44 827V95C44 63 70 37 102 37Z" fill="black"/>
<path d="M301.5 64C301.5 67.866 298.366 71 294.5 71C290.634 71 287.5 67.866 287.5 64C287.5 60.134 290.634 57 294.5 57C298.366 57 301.5 60.134 301.5 64Z" fill="#252525"/>
<path d="M227 61C225.343 61 224 62.3431 224 64C224 65.6569 225.343 67 227 67H271C272.657 67 274 65.6569 274 64C274 62.3431 272.657 61 271 61H227Z" fill="#252525"/>
</g>
<defs>
<filter id="filter0_d" x="52" y="50" width="395" height="113" filterUnits="userSpaceOnUse" color-interpolation-filters="sRGB">
<feFlood flood-opacity="0" result="BackgroundImageFix"/>
<feColorMatrix in="SourceAlpha" type="matrix" values="0 0 0 0 0 0 0 0 0 0 0 0 0 0 0 0 0 0 127 0"/>
<feOffset dy="5"/>
<feGaussianBlur stdDeviation="5"/>
<feColorMatrix type="matrix" values="0 0 0 0 0 0 0 0 0 0 0 0 0 0 0 0 0 0 0.25 0"/>
<feBlend mode="normal" in2="BackgroundImageFix" result="effect1_dropShadow"/>
<feBlend mode="normal" in="SourceGraphic" in2="effect1_dropShadow" result="shape"/>
</filter>
<filter id="filter1_d" x="62" y="157" width="376" height="689" filterUnits="userSpaceOnUse" color-interpolation-filters="sRGB">
<feFlood flood-opacity="0" result="BackgroundImageFix"/>
<feColorMatrix in="SourceAlpha" type="matrix" values="0 0 0 0 0 0 0 0 0 0 0 0 0 0 0 0 0 0 127 0"/>
<feOffset dy="5"/>
<feGaussianBlur stdDeviation="5"/>
<feColorMatrix type="matrix" values="0 0 0 0 0 0 0 0 0 0 0 0 0 0 0 0 0 0 0.25 0"/>
<feBlend mode="normal" in2="BackgroundImageFix" result="effect1_dropShadow"/>
<feBlend mode="normal" in="SourceGraphic" in2="effect1_dropShadow" result="shape"/>
</filter>
<clipPath id="clip0">
<rect width="500" height="375" fill="white"/>
</clipPath>
</defs>
</svg>
