<svg width="400" height="300" viewBox="0 0 400 300" fill="none" xmlns="http://www.w3.org/2000/svg">
<g clip-path="url(#clip0)">
<rect width="400" height="300" fill="#222233"/>
<rect x="-0.5" y="-0.5" width="401" height="21" fill="#222222"/>
<path d="M29 16V12H25V8H21V16H29Z" fill="white"/>
<path d="M25 4V8H29V12H33V4H25Z" fill="white"/>
<path d="M56.712 14.5H58.2V7.012H60.252V5.68H54.66V7.012H56.712V14.5ZM64.4061 14.596C64.7181 14.596 65.0261 14.564 65.3301 14.5C65.6421 14.436 65.9301 14.316 66.1941 14.14C66.4581 13.964 66.6701 13.74 66.8301 13.468C66.9901 13.188 67.0781 12.892 67.0941 12.58H65.6181C65.6021 12.748 65.5221 12.888 65.3781 13C65.2341 13.112 65.0781 13.184 64.9101 13.216C64.7421 13.248 64.5741 13.264 64.4061 13.264C64.2301 13.264 64.0581 13.24 63.8901 13.192C63.7221 13.136 63.5741 13.048 63.4461 12.928C63.3261 12.808 63.2381 12.664 63.1821 12.496C63.1261 12.328 63.0981 12.16 63.0981 11.992H67.1181V10.66C67.1181 10.372 67.0821 10.088 67.0101 9.808C66.9461 9.52 66.8261 9.26 66.6501 9.028C66.4821 8.788 66.2741 8.592 66.0261 8.44C65.7781 8.288 65.5101 8.184 65.2221 8.128C64.9421 8.072 64.6581 8.044 64.3701 8.044C64.0821 8.044 63.7941 8.072 63.5061 8.128C63.2261 8.184 62.9621 8.288 62.7141 8.44C62.4661 8.592 62.2541 8.788 62.0781 9.028C61.9101 9.26 61.7901 9.52 61.7181 9.808C61.6541 10.088 61.6221 10.372 61.6221 10.66V11.98C61.6221 12.22 61.6421 12.46 61.6821 12.7C61.7301 12.94 61.8141 13.168 61.9341 13.384C62.0541 13.592 62.2021 13.78 62.3781 13.948C62.5621 14.108 62.7661 14.24 62.9901 14.344C63.2141 14.44 63.4461 14.504 63.6861 14.536C63.9261 14.576 64.1661 14.596 64.4061 14.596ZM63.0981 10.648C63.0981 10.48 63.1221 10.316 63.1701 10.156C63.2261 9.988 63.3141 9.844 63.4341 9.724C63.5541 9.596 63.6981 9.508 63.8661 9.46C64.0341 9.404 64.2021 9.376 64.3701 9.376C64.5381 9.376 64.7061 9.404 64.8741 9.46C65.0421 9.508 65.1861 9.596 65.3061 9.724C65.4261 9.844 65.5101 9.988 65.5581 10.156C65.6141 10.316 65.6421 10.48 65.6421 10.648H63.0981ZM69.3521 14.5H70.8281V11.128C70.8281 10.968 70.8361 10.812 70.8521 10.66C70.8761 10.5 70.9121 10.344 70.9601 10.192C71.0161 10.04 71.0921 9.9 71.1881 9.772C71.2841 9.644 71.4041 9.548 71.5481 9.484C71.7001 9.412 71.8561 9.376 72.0161 9.376C72.4961 9.376 72.7361 9.624 72.7361 10.12H74.2121C74.2121 9.92 74.2001 9.72 74.1761 9.52C74.1521 9.32 74.0961 9.128 74.0081 8.944C73.9281 8.752 73.8161 8.584 73.6721 8.44C73.5281 8.296 73.3561 8.196 73.1561 8.14C72.9641 8.076 72.7681 8.044 72.5681 8.044C71.7281 8.044 71.1481 8.528 70.8281 9.496V8.14H69.3521V14.5ZM75.2222 14.5H76.6262V9.904C76.6262 9.808 76.6382 9.716 76.6622 9.628C76.6862 9.532 76.7342 9.456 76.8062 9.4C76.8862 9.336 76.9702 9.304 77.0582 9.304C77.1542 9.304 77.2382 9.336 77.3102 9.4C77.3902 9.456 77.4422 9.532 77.4662 9.628C77.4902 9.716 77.5022 9.808 77.5022 9.904V14.5H78.8942V9.904C78.8942 9.808 78.9062 9.716 78.9302 9.628C78.9542 9.532 79.0022 9.456 79.0742 9.4C79.1542 9.336 79.2422 9.304 79.3382 9.304C79.4262 9.304 79.5062 9.336 79.5782 9.4C79.6582 9.456 79.7102 9.532 79.7342 9.628C79.7582 9.716 79.7702 9.808 79.7702 9.904V14.5H81.1742V9.904C81.1742 9.736 81.1622 9.568 81.1382 9.4C81.1222 9.232 81.0822 9.068 81.0182 8.908C80.9622 8.748 80.8822 8.6 80.7782 8.464C80.6742 8.32 80.5422 8.216 80.3822 8.152C80.2302 8.08 80.0702 8.044 79.9022 8.044C79.3422 8.044 78.9662 8.352 78.7742 8.968C78.5742 8.352 78.1902 8.044 77.6222 8.044C77.1742 8.044 76.8422 8.252 76.6262 8.668V8.14H75.2222V14.5ZM82.7003 14.5H87.5243V13.168H85.9523V8.14H82.8923V9.472H84.4643V13.168H82.7003V14.5ZM85.1123 7.216C85.2403 7.216 85.3643 7.2 85.4843 7.168C85.6043 7.128 85.7083 7.064 85.7963 6.976C85.8923 6.88 85.9563 6.772 85.9883 6.652C86.0283 6.532 86.0483 6.408 86.0483 6.28C86.0483 6.152 86.0283 6.028 85.9883 5.908C85.9563 5.788 85.8923 5.684 85.7963 5.596C85.7083 5.5 85.6043 5.432 85.4843 5.392C85.3643 5.352 85.2403 5.332 85.1123 5.332C84.9843 5.332 84.8603 5.352 84.7402 5.392C84.6203 5.432 84.5123 5.5 84.4163 5.596C84.3283 5.684 84.2643 5.788 84.2243 5.908C84.1843 6.028 84.1643 6.152 84.1643 6.28C84.1643 6.408 84.1843 6.532 84.2243 6.652C84.2643 6.772 84.3283 6.88 84.4163 6.976C84.5123 7.064 84.6203 7.128 84.7402 7.168C84.8603 7.2 84.9843 7.216 85.1123 7.216ZM89.3743 14.5H90.8503V10.66C90.8503 10.492 90.8703 10.328 90.9103 10.168C90.9583 10.008 91.0343 9.864 91.1383 9.736C91.2503 9.608 91.3823 9.516 91.5343 9.46C91.6943 9.404 91.8583 9.376 92.0263 9.376C92.1943 9.376 92.3543 9.404 92.5063 9.46C92.6663 9.516 92.7983 9.608 92.9023 9.736C93.0143 9.864 93.0903 10.008 93.1303 10.168C93.1783 10.328 93.2023 10.492 93.2023 10.66V14.5H94.6783V10.66C94.6783 10.412 94.6583 10.164 94.6183 9.916C94.5863 9.66 94.5183 9.416 94.4143 9.184C94.3103 8.952 94.1703 8.744 93.9943 8.56C93.8183 8.376 93.6063 8.244 93.3583 8.164C93.1183 8.084 92.8743 8.044 92.6263 8.044C91.7943 8.044 91.2023 8.408 90.8503 9.136V8.14H89.3743V14.5ZM98.2324 14.596C99.1204 14.596 99.7484 14.256 100.116 13.576V14.5H101.592V10.168C101.592 9.952 101.564 9.74 101.508 9.532C101.46 9.324 101.372 9.132 101.244 8.956C101.116 8.78 100.96 8.632 100.776 8.512C100.6 8.392 100.408 8.296 100.2 8.224C100 8.152 99.7924 8.104 99.5764 8.08C99.3604 8.056 99.1444 8.044 98.9284 8.044C98.6164 8.044 98.3004 8.08 97.9804 8.152C97.6684 8.216 97.3804 8.34 97.1164 8.524C96.8524 8.708 96.6484 8.948 96.5044 9.244C96.3604 9.54 96.2884 9.844 96.2884 10.156C96.2884 10.164 96.2884 10.168 96.2884 10.168H97.7644C97.7644 9.992 97.8284 9.836 97.9564 9.7C98.0924 9.564 98.2444 9.476 98.4124 9.436C98.5884 9.396 98.7604 9.376 98.9284 9.376C99.0644 9.376 99.1964 9.388 99.3244 9.412C99.4604 9.436 99.5884 9.48 99.7084 9.544C99.8364 9.6 99.9364 9.688 100.008 9.808C100.08 9.92 100.116 10.04 100.116 10.168V10.564H99.2044C98.9724 10.564 98.7404 10.576 98.5084 10.6C98.2764 10.616 98.0444 10.656 97.8124 10.72C97.5884 10.776 97.3724 10.86 97.1644 10.972C96.9644 11.076 96.7804 11.212 96.6124 11.38C96.4444 11.548 96.3244 11.744 96.2524 11.968C96.1804 12.192 96.1444 12.42 96.1444 12.652C96.1444 12.924 96.1884 13.192 96.2764 13.456C96.3644 13.712 96.5124 13.932 96.7204 14.116C96.9284 14.3 97.1644 14.428 97.4284 14.5C97.6924 14.564 97.9604 14.596 98.2324 14.596ZM98.8084 13.264C98.6484 13.264 98.4844 13.252 98.3164 13.228C98.1564 13.204 98.0004 13.144 97.8484 13.048C97.6964 12.944 97.6204 12.808 97.6204 12.64C97.6204 12.424 97.7244 12.26 97.9324 12.148C98.1484 12.036 98.3604 11.968 98.5684 11.944C98.7764 11.912 98.9884 11.896 99.2044 11.896H100.116V12.232C100.116 12.392 100.08 12.544 100.008 12.688C99.9444 12.832 99.8444 12.948 99.7084 13.036C99.5724 13.124 99.4284 13.184 99.2764 13.216C99.1244 13.248 98.9684 13.264 98.8084 13.264ZM103.442 14.5H108.266V13.168H106.694V5.68H103.634V7.012H105.206V13.168H103.442V14.5Z" fill="white"/>
<path d="M139.072 14.5H140.56V5.68H139.072L137.08 7.24L137.896 8.188L139.072 7.264V14.5ZM146.586 14.5L147.882 12.232C148.082 11.88 148.282 11.528 148.482 11.176C148.682 10.816 148.838 10.44 148.95 10.048C149.062 9.648 149.118 9.244 149.118 8.836C149.118 8.516 149.09 8.196 149.034 7.876C148.986 7.556 148.886 7.252 148.734 6.964C148.59 6.668 148.398 6.412 148.158 6.196C147.918 5.972 147.638 5.816 147.318 5.728C147.006 5.632 146.69 5.584 146.37 5.584C146.066 5.584 145.766 5.62 145.47 5.692C145.182 5.756 144.914 5.88 144.666 6.064C144.418 6.24 144.21 6.456 144.042 6.712C143.882 6.968 143.77 7.244 143.706 7.54C143.65 7.836 143.622 8.136 143.622 8.44C143.622 8.736 143.65 9.032 143.706 9.328C143.77 9.624 143.882 9.9 144.042 10.156C144.202 10.412 144.402 10.632 144.642 10.816C144.89 10.992 145.158 11.116 145.446 11.188C145.742 11.26 146.042 11.296 146.346 11.296C146.498 11.296 146.638 11.288 146.766 11.272C146.718 11.36 146.662 11.456 146.598 11.56L144.918 14.5H146.586ZM146.358 9.964C146.174 9.964 145.994 9.928 145.818 9.856C145.642 9.776 145.498 9.66 145.386 9.508C145.274 9.348 145.198 9.176 145.158 8.992C145.118 8.808 145.098 8.624 145.098 8.44C145.098 8.256 145.118 8.072 145.158 7.888C145.206 7.696 145.286 7.524 145.398 7.372C145.51 7.22 145.654 7.108 145.83 7.036C146.006 6.956 146.186 6.916 146.37 6.916C146.562 6.916 146.746 6.956 146.922 7.036C147.098 7.108 147.242 7.224 147.354 7.384C147.466 7.536 147.542 7.704 147.582 7.888C147.622 8.072 147.642 8.256 147.642 8.44C147.642 8.632 147.618 8.82 147.57 9.004C147.53 9.188 147.454 9.356 147.342 9.508C147.23 9.66 147.086 9.776 146.91 9.856C146.734 9.928 146.55 9.964 146.358 9.964ZM153.5 14.5L154.796 12.232C154.996 11.88 155.196 11.528 155.396 11.176C155.596 10.816 155.752 10.44 155.864 10.048C155.976 9.648 156.032 9.244 156.032 8.836C156.032 8.516 156.004 8.196 155.948 7.876C155.9 7.556 155.8 7.252 155.648 6.964C155.504 6.668 155.312 6.412 155.072 6.196C154.832 5.972 154.552 5.816 154.232 5.728C153.92 5.632 153.604 5.584 153.284 5.584C152.98 5.584 152.68 5.62 152.384 5.692C152.096 5.756 151.828 5.88 151.58 6.064C151.332 6.24 151.124 6.456 150.956 6.712C150.796 6.968 150.684 7.244 150.62 7.54C150.564 7.836 150.536 8.136 150.536 8.44C150.536 8.736 150.564 9.032 150.62 9.328C150.684 9.624 150.796 9.9 150.956 10.156C151.116 10.412 151.316 10.632 151.556 10.816C151.804 10.992 152.072 11.116 152.36 11.188C152.656 11.26 152.956 11.296 153.26 11.296C153.412 11.296 153.552 11.288 153.68 11.272C153.632 11.36 153.576 11.456 153.512 11.56L151.832 14.5H153.5ZM153.272 9.964C153.088 9.964 152.908 9.928 152.732 9.856C152.556 9.776 152.412 9.66 152.3 9.508C152.188 9.348 152.112 9.176 152.072 8.992C152.032 8.808 152.012 8.624 152.012 8.44C152.012 8.256 152.032 8.072 152.072 7.888C152.12 7.696 152.2 7.524 152.312 7.372C152.424 7.22 152.568 7.108 152.744 7.036C152.92 6.956 153.1 6.916 153.284 6.916C153.476 6.916 153.66 6.956 153.836 7.036C154.012 7.108 154.156 7.224 154.268 7.384C154.38 7.536 154.456 7.704 154.496 7.888C154.536 8.072 154.556 8.256 154.556 8.44C154.556 8.632 154.532 8.82 154.484 9.004C154.444 9.188 154.368 9.356 154.256 9.508C154.144 9.66 154 9.776 153.824 9.856C153.648 9.928 153.464 9.964 153.272 9.964ZM159.814 14.5H161.302V5.68H159.814L157.822 7.24L158.638 8.188L159.814 7.264V14.5ZM164.46 11.092H169.764V9.748H164.46V11.092ZM173.642 14.5H175.13V5.68H173.642L171.65 7.24L172.466 8.188L173.642 7.264V14.5ZM180.556 14.5H182.044V5.68H180.556L178.564 7.24L179.38 8.188L180.556 7.264V14.5ZM185.202 11.092H190.506V9.748H185.202V11.092ZM192.117 14.5H197.421V13.168H193.713C193.801 12.816 193.949 12.488 194.157 12.184C194.365 11.88 194.613 11.62 194.901 11.404C195.197 11.18 195.497 10.976 195.801 10.792C196.113 10.6 196.401 10.38 196.665 10.132C196.929 9.876 197.129 9.58 197.265 9.244C197.401 8.9 197.469 8.544 197.469 8.176C197.469 7.896 197.437 7.616 197.372 7.336C197.309 7.056 197.193 6.8 197.025 6.568C196.857 6.328 196.649 6.132 196.401 5.98C196.161 5.828 195.901 5.724 195.621 5.668C195.341 5.612 195.057 5.584 194.769 5.584C194.441 5.584 194.113 5.624 193.785 5.704C193.457 5.784 193.161 5.932 192.896 6.148C192.633 6.356 192.433 6.616 192.297 6.928C192.161 7.24 192.093 7.564 192.093 7.9H193.569C193.577 7.708 193.637 7.528 193.749 7.36C193.861 7.192 194.009 7.076 194.193 7.012C194.385 6.948 194.577 6.916 194.769 6.916C194.937 6.916 195.101 6.944 195.261 7C195.421 7.048 195.557 7.136 195.669 7.264C195.789 7.384 195.873 7.524 195.921 7.684C195.969 7.844 195.993 8.008 195.993 8.176C195.993 8.504 195.897 8.812 195.705 9.1C195.521 9.38 195.285 9.604 194.997 9.772C194.717 9.94 194.441 10.116 194.169 10.3C193.897 10.476 193.641 10.68 193.401 10.912C193.161 11.136 192.949 11.388 192.765 11.668C192.589 11.94 192.449 12.232 192.345 12.544C192.241 12.856 192.177 13.176 192.153 13.504C192.129 13.832 192.117 14.16 192.117 14.488V14.5ZM201.695 14.596C201.999 14.596 202.299 14.56 202.595 14.488C202.899 14.416 203.171 14.288 203.411 14.104C203.659 13.912 203.859 13.688 204.011 13.432C204.171 13.168 204.279 12.888 204.335 12.592C204.399 12.288 204.431 11.984 204.431 11.68C204.431 11.376 204.403 11.076 204.347 10.78C204.291 10.484 204.187 10.204 204.035 9.94C203.883 9.676 203.683 9.452 203.435 9.268C203.195 9.076 202.927 8.944 202.631 8.872C202.343 8.8 202.047 8.764 201.743 8.764C201.311 8.764 200.935 8.82 200.615 8.932V7.012H204.071V5.68H199.139V11.044H200.615C200.631 10.86 200.691 10.688 200.795 10.528C200.899 10.368 201.035 10.256 201.203 10.192C201.379 10.128 201.559 10.096 201.743 10.096C201.935 10.096 202.115 10.14 202.283 10.228C202.459 10.308 202.595 10.432 202.691 10.6C202.795 10.76 202.863 10.932 202.895 11.116C202.935 11.3 202.955 11.484 202.955 11.668C202.955 11.86 202.935 12.052 202.895 12.244C202.855 12.436 202.779 12.612 202.667 12.772C202.563 12.932 202.423 13.056 202.247 13.144C202.071 13.224 201.887 13.264 201.695 13.264C201.543 13.264 201.391 13.244 201.239 13.204C201.095 13.164 200.963 13.092 200.843 12.988C200.731 12.884 200.643 12.76 200.579 12.616C200.523 12.472 200.491 12.324 200.483 12.172H199.007C199.015 12.508 199.083 12.836 199.211 13.156C199.347 13.476 199.543 13.752 199.799 13.984C200.063 14.208 200.359 14.368 200.687 14.464C201.023 14.552 201.359 14.596 201.695 14.596Z" fill="white"/>
<path d="M225.072 14.5H226.56V5.68H225.072L223.08 7.24L223.896 8.188L225.072 7.264V14.5ZM232.37 14.596C232.706 14.596 233.038 14.56 233.366 14.488C233.694 14.416 233.994 14.28 234.266 14.08C234.546 13.88 234.758 13.624 234.902 13.312C235.054 13 235.13 12.676 235.13 12.34C235.13 11.428 234.63 10.652 233.63 10.012C234.478 9.412 234.902 8.688 234.902 7.84C234.902 7.52 234.838 7.208 234.71 6.904C234.59 6.6 234.406 6.344 234.158 6.136C233.91 5.928 233.63 5.784 233.318 5.704C233.006 5.624 232.69 5.584 232.37 5.584C232.05 5.584 231.734 5.624 231.422 5.704C231.11 5.784 230.83 5.928 230.582 6.136C230.334 6.344 230.146 6.6 230.018 6.904C229.898 7.208 229.838 7.52 229.838 7.84C229.838 8.688 230.262 9.412 231.11 10.012C230.118 10.652 229.622 11.428 229.622 12.34C229.622 12.676 229.694 13 229.838 13.312C229.982 13.624 230.19 13.88 230.462 14.08C230.742 14.28 231.046 14.416 231.374 14.488C231.702 14.56 232.034 14.596 232.37 14.596ZM232.37 13.264C232.226 13.264 232.078 13.252 231.926 13.228C231.782 13.196 231.646 13.144 231.518 13.072C231.39 12.992 231.286 12.888 231.206 12.76C231.134 12.624 231.098 12.484 231.098 12.34C231.098 11.796 231.522 11.272 232.37 10.768C233.218 11.272 233.642 11.796 233.642 12.34C233.642 12.484 233.602 12.624 233.522 12.76C233.45 12.888 233.35 12.992 233.222 13.072C233.094 13.144 232.954 13.196 232.802 13.228C232.658 13.252 232.514 13.264 232.37 13.264ZM232.37 9.28C231.666 8.848 231.314 8.364 231.314 7.828C231.314 7.66 231.362 7.5 231.458 7.348C231.554 7.188 231.686 7.076 231.854 7.012C232.022 6.948 232.194 6.916 232.37 6.916C232.546 6.916 232.718 6.948 232.886 7.012C233.054 7.076 233.186 7.188 233.282 7.348C233.378 7.5 233.426 7.66 233.426 7.828C233.426 8.364 233.074 8.848 232.37 9.28ZM239.284 10.396C239.444 10.396 239.6 10.372 239.752 10.324C239.904 10.276 240.036 10.196 240.148 10.084C240.268 9.972 240.348 9.84 240.388 9.688C240.436 9.536 240.46 9.38 240.46 9.22C240.46 9.06 240.436 8.904 240.388 8.752C240.348 8.6 240.268 8.468 240.148 8.356C240.036 8.236 239.904 8.156 239.752 8.116C239.6 8.068 239.444 8.044 239.284 8.044C239.124 8.044 238.968 8.068 238.816 8.116C238.664 8.156 238.532 8.236 238.42 8.356C238.308 8.468 238.228 8.6 238.18 8.752C238.132 8.904 238.108 9.06 238.108 9.22C238.108 9.38 238.132 9.536 238.18 9.688C238.228 9.84 238.308 9.972 238.42 10.084C238.532 10.196 238.664 10.276 238.816 10.324C238.968 10.372 239.124 10.396 239.284 10.396ZM239.284 14.596C239.444 14.596 239.6 14.572 239.752 14.524C239.904 14.476 240.036 14.396 240.148 14.284C240.268 14.172 240.348 14.04 240.388 13.888C240.436 13.736 240.46 13.58 240.46 13.42C240.46 13.26 240.436 13.104 240.388 12.952C240.348 12.8 240.268 12.668 240.148 12.556C240.036 12.436 239.904 12.356 239.752 12.316C239.6 12.268 239.444 12.244 239.284 12.244C239.124 12.244 238.968 12.268 238.816 12.316C238.664 12.356 238.532 12.436 238.42 12.556C238.308 12.668 238.228 12.8 238.18 12.952C238.132 13.104 238.108 13.26 238.108 13.42C238.108 13.58 238.132 13.736 238.18 13.888C238.228 14.04 238.308 14.172 238.42 14.284C238.532 14.396 238.664 14.476 238.816 14.524C238.968 14.572 239.124 14.596 239.284 14.596ZM246.222 14.596C246.574 14.596 246.922 14.552 247.266 14.464C247.618 14.376 247.93 14.22 248.202 13.996C248.482 13.764 248.694 13.484 248.838 13.156C248.982 12.82 249.054 12.476 249.054 12.124C249.054 11.82 248.994 11.524 248.874 11.236C248.762 10.948 248.594 10.696 248.37 10.48C248.154 10.264 247.91 10.092 247.638 9.964C247.878 9.836 248.09 9.668 248.274 9.46C248.466 9.252 248.61 9.02 248.706 8.764C248.81 8.5 248.862 8.228 248.862 7.948C248.862 7.62 248.794 7.3 248.658 6.988C248.53 6.668 248.338 6.4 248.082 6.184C247.826 5.96 247.534 5.804 247.206 5.716C246.886 5.628 246.558 5.584 246.222 5.584C245.902 5.584 245.582 5.624 245.262 5.704C244.942 5.784 244.654 5.932 244.398 6.148C244.142 6.356 243.946 6.612 243.81 6.916C243.682 7.22 243.618 7.536 243.618 7.864H245.094C245.094 7.68 245.146 7.508 245.25 7.348C245.362 7.188 245.506 7.076 245.682 7.012C245.858 6.948 246.038 6.916 246.222 6.916C246.374 6.916 246.518 6.936 246.654 6.976C246.798 7.016 246.926 7.084 247.038 7.18C247.15 7.276 247.234 7.396 247.29 7.54C247.346 7.676 247.374 7.82 247.374 7.972C247.374 8.18 247.322 8.38 247.218 8.572C247.122 8.764 246.986 8.92 246.81 9.04C246.634 9.16 246.438 9.236 246.222 9.268C246.014 9.3 245.806 9.316 245.598 9.316V10.66C245.83 10.66 246.058 10.676 246.282 10.708C246.514 10.74 246.726 10.82 246.918 10.948C247.118 11.076 247.274 11.244 247.386 11.452C247.506 11.66 247.566 11.88 247.566 12.112C247.566 12.272 247.53 12.432 247.458 12.592C247.394 12.752 247.294 12.884 247.158 12.988C247.03 13.092 246.882 13.164 246.714 13.204C246.554 13.244 246.39 13.264 246.222 13.264C246.014 13.264 245.81 13.232 245.61 13.168C245.41 13.104 245.242 12.988 245.106 12.82C244.978 12.644 244.91 12.452 244.902 12.244H243.426C243.426 12.588 243.498 12.92 243.642 13.24C243.794 13.56 244.006 13.828 244.278 14.044C244.558 14.252 244.866 14.396 245.202 14.476C245.538 14.556 245.878 14.596 246.222 14.596ZM253.112 14.596C253.4 14.596 253.684 14.568 253.964 14.512C254.252 14.456 254.52 14.352 254.768 14.2C255.016 14.04 255.224 13.844 255.392 13.612C255.568 13.38 255.688 13.124 255.752 12.844C255.824 12.556 255.86 12.268 255.86 11.98V8.2C255.86 7.912 255.824 7.628 255.752 7.348C255.688 7.06 255.568 6.8 255.392 6.568C255.224 6.328 255.016 6.132 254.768 5.98C254.52 5.828 254.252 5.724 253.964 5.668C253.684 5.612 253.4 5.584 253.112 5.584C252.824 5.584 252.536 5.612 252.248 5.668C251.968 5.724 251.704 5.828 251.456 5.98C251.208 6.132 250.996 6.328 250.82 6.568C250.652 6.8 250.532 7.06 250.46 7.348C250.396 7.628 250.364 7.912 250.364 8.2V11.98C250.364 12.268 250.396 12.556 250.46 12.844C250.532 13.124 250.652 13.38 250.82 13.612C250.996 13.844 251.208 14.04 251.456 14.2C251.704 14.352 251.968 14.456 252.248 14.512C252.536 14.568 252.824 14.596 253.112 14.596ZM253.112 13.264C252.944 13.264 252.776 13.24 252.608 13.192C252.44 13.136 252.296 13.048 252.176 12.928C252.056 12.8 251.968 12.652 251.912 12.484C251.864 12.316 251.84 12.148 251.84 11.98V11.668L254.384 9.916V11.98C254.384 12.148 254.356 12.316 254.3 12.484C254.252 12.652 254.168 12.8 254.048 12.928C253.928 13.048 253.784 13.136 253.616 13.192C253.448 13.24 253.28 13.264 253.112 13.264ZM251.84 10.264V8.2C251.84 8.032 251.864 7.864 251.912 7.696C251.968 7.528 252.056 7.384 252.176 7.264C252.296 7.136 252.44 7.048 252.608 7C252.776 6.944 252.944 6.916 253.112 6.916C253.28 6.916 253.448 6.944 253.616 7C253.784 7.048 253.928 7.136 254.048 7.264C254.168 7.384 254.252 7.528 254.3 7.696C254.356 7.864 254.384 8.032 254.384 8.2V8.512L251.84 10.264ZM260.026 10.396C260.186 10.396 260.342 10.372 260.494 10.324C260.646 10.276 260.778 10.196 260.89 10.084C261.01 9.972 261.09 9.84 261.13 9.688C261.178 9.536 261.202 9.38 261.202 9.22C261.202 9.06 261.178 8.904 261.13 8.752C261.09 8.6 261.01 8.468 260.89 8.356C260.778 8.236 260.646 8.156 260.494 8.116C260.342 8.068 260.186 8.044 260.026 8.044C259.866 8.044 259.71 8.068 259.558 8.116C259.406 8.156 259.274 8.236 259.162 8.356C259.05 8.468 258.97 8.6 258.922 8.752C258.874 8.904 258.85 9.06 258.85 9.22C258.85 9.38 258.874 9.536 258.922 9.688C258.97 9.84 259.05 9.972 259.162 10.084C259.274 10.196 259.406 10.276 259.558 10.324C259.71 10.372 259.866 10.396 260.026 10.396ZM260.026 14.596C260.186 14.596 260.342 14.572 260.494 14.524C260.646 14.476 260.778 14.396 260.89 14.284C261.01 14.172 261.09 14.04 261.13 13.888C261.178 13.736 261.202 13.58 261.202 13.42C261.202 13.26 261.178 13.104 261.13 12.952C261.09 12.8 261.01 12.668 260.89 12.556C260.778 12.436 260.646 12.356 260.494 12.316C260.342 12.268 260.186 12.244 260.026 12.244C259.866 12.244 259.71 12.268 259.558 12.316C259.406 12.356 259.274 12.436 259.162 12.556C259.05 12.668 258.97 12.8 258.922 12.952C258.874 13.104 258.85 13.26 258.85 13.42C258.85 13.58 258.874 13.736 258.922 13.888C258.97 14.04 259.05 14.172 259.162 14.284C259.274 14.396 259.406 14.476 259.558 14.524C259.71 14.572 259.866 14.596 260.026 14.596ZM264.288 14.5H269.592V13.168H265.884C265.972 12.816 266.12 12.488 266.328 12.184C266.536 11.88 266.784 11.62 267.072 11.404C267.368 11.18 267.668 10.976 267.972 10.792C268.284 10.6 268.572 10.38 268.836 10.132C269.1 9.876 269.3 9.58 269.436 9.244C269.572 8.9 269.64 8.544 269.64 8.176C269.64 7.896 269.608 7.616 269.544 7.336C269.48 7.056 269.364 6.8 269.196 6.568C269.028 6.328 268.82 6.132 268.572 5.98C268.332 5.828 268.072 5.724 267.792 5.668C267.512 5.612 267.228 5.584 266.94 5.584C266.612 5.584 266.284 5.624 265.956 5.704C265.628 5.784 265.332 5.932 265.068 6.148C264.804 6.356 264.604 6.616 264.468 6.928C264.332 7.24 264.264 7.564 264.264 7.9H265.74C265.748 7.708 265.808 7.528 265.92 7.36C266.032 7.192 266.18 7.076 266.364 7.012C266.556 6.948 266.748 6.916 266.94 6.916C267.108 6.916 267.272 6.944 267.432 7C267.592 7.048 267.728 7.136 267.84 7.264C267.96 7.384 268.044 7.524 268.092 7.684C268.14 7.844 268.164 8.008 268.164 8.176C268.164 8.504 268.068 8.812 267.876 9.1C267.692 9.38 267.456 9.604 267.168 9.772C266.888 9.94 266.612 10.116 266.34 10.3C266.068 10.476 265.812 10.68 265.572 10.912C265.332 11.136 265.12 11.388 264.936 11.668C264.76 11.94 264.62 12.232 264.516 12.544C264.412 12.856 264.348 13.176 264.324 13.504C264.3 13.832 264.288 14.16 264.288 14.488V14.5ZM273.47 14.5H274.958V5.68H273.47L271.478 7.24L272.294 8.188L273.47 7.264V14.5Z" fill="white"/>
<path d="M297.432 14.596C297.768 14.596 298.1 14.556 298.428 14.476C298.756 14.396 299.052 14.252 299.316 14.044C299.58 13.828 299.78 13.564 299.916 13.252C300.06 12.932 300.132 12.608 300.132 12.28H298.656C298.648 12.472 298.584 12.652 298.464 12.82C298.352 12.988 298.2 13.104 298.008 13.168C297.816 13.232 297.624 13.264 297.432 13.264C297.264 13.264 297.096 13.24 296.928 13.192C296.768 13.136 296.628 13.044 296.508 12.916C296.388 12.788 296.304 12.644 296.256 12.484C296.208 12.316 296.184 12.148 296.184 11.98V10.66C296.184 10.492 296.208 10.328 296.256 10.168C296.304 10 296.388 9.852 296.508 9.724C296.628 9.596 296.768 9.508 296.928 9.46C297.096 9.404 297.264 9.376 297.432 9.376C297.624 9.376 297.816 9.408 298.008 9.472C298.2 9.536 298.352 9.652 298.464 9.82C298.584 9.988 298.648 10.168 298.656 10.36H300.132C300.132 10.032 300.06 9.712 299.916 9.4C299.78 9.08 299.58 8.816 299.316 8.608C299.052 8.392 298.756 8.244 298.428 8.164C298.1 8.084 297.768 8.044 297.432 8.044C297.192 8.044 296.952 8.064 296.712 8.104C296.48 8.144 296.252 8.216 296.028 8.32C295.812 8.416 295.616 8.548 295.44 8.716C295.264 8.876 295.12 9.064 295.008 9.28C294.896 9.488 294.816 9.712 294.768 9.952C294.728 10.184 294.708 10.42 294.708 10.66V11.98C294.708 12.22 294.728 12.46 294.768 12.7C294.816 12.932 294.896 13.156 295.008 13.372C295.12 13.58 295.264 13.768 295.44 13.936C295.616 14.096 295.812 14.228 296.028 14.332C296.252 14.428 296.48 14.496 296.712 14.536C296.952 14.576 297.192 14.596 297.432 14.596ZM302.714 16.96H304.202L307.19 8.14H305.69L304.394 12.34L303.05 8.14H301.55L303.614 14.128L303.386 14.788C303.09 15.652 302.866 16.376 302.714 16.96ZM311.26 14.596C311.596 14.596 311.928 14.556 312.256 14.476C312.584 14.396 312.88 14.252 313.144 14.044C313.408 13.828 313.608 13.564 313.744 13.252C313.888 12.932 313.96 12.608 313.96 12.28H312.484C312.476 12.472 312.412 12.652 312.292 12.82C312.18 12.988 312.028 13.104 311.836 13.168C311.644 13.232 311.452 13.264 311.26 13.264C311.092 13.264 310.924 13.24 310.756 13.192C310.596 13.136 310.456 13.044 310.336 12.916C310.216 12.788 310.132 12.644 310.084 12.484C310.036 12.316 310.012 12.148 310.012 11.98V10.66C310.012 10.492 310.036 10.328 310.084 10.168C310.132 10 310.216 9.852 310.336 9.724C310.456 9.596 310.596 9.508 310.756 9.46C310.924 9.404 311.092 9.376 311.26 9.376C311.452 9.376 311.644 9.408 311.836 9.472C312.028 9.536 312.18 9.652 312.292 9.82C312.412 9.988 312.476 10.168 312.484 10.36H313.96C313.96 10.032 313.888 9.712 313.744 9.4C313.608 9.08 313.408 8.816 313.144 8.608C312.88 8.392 312.584 8.244 312.256 8.164C311.928 8.084 311.596 8.044 311.26 8.044C311.02 8.044 310.78 8.064 310.54 8.104C310.308 8.144 310.08 8.216 309.856 8.32C309.64 8.416 309.444 8.548 309.268 8.716C309.092 8.876 308.948 9.064 308.836 9.28C308.724 9.488 308.644 9.712 308.596 9.952C308.556 10.184 308.536 10.42 308.536 10.66V11.98C308.536 12.22 308.556 12.46 308.596 12.7C308.644 12.932 308.724 13.156 308.836 13.372C308.948 13.58 309.092 13.768 309.268 13.936C309.444 14.096 309.64 14.228 309.856 14.332C310.08 14.428 310.308 14.496 310.54 14.536C310.78 14.576 311.02 14.596 311.26 14.596ZM315.762 14.5H317.238V12.976L317.838 12.232L317.886 12.292L319.398 14.5H321.126L318.786 11.056L321.126 8.14H319.338L317.238 10.864V5.68H315.762V14.5ZM322.7 14.5H327.524V13.168H325.952V5.68H322.892V7.012H324.464V13.168H322.7V14.5ZM332.026 15.688H334.018V14.356H332.026C331.858 14.356 331.69 14.336 331.522 14.296C331.354 14.248 331.202 14.168 331.066 14.056C330.938 13.936 330.846 13.796 330.79 13.636C330.734 13.468 330.706 13.296 330.706 13.12V7.72C330.706 7.544 330.734 7.376 330.79 7.216C330.846 7.048 330.938 6.908 331.066 6.796C331.202 6.676 331.354 6.596 331.522 6.556C331.69 6.508 331.858 6.484 332.026 6.484C332.194 6.484 332.362 6.508 332.53 6.556C332.698 6.596 332.846 6.676 332.974 6.796C333.11 6.908 333.206 7.048 333.262 7.216C333.318 7.376 333.346 7.544 333.346 7.72V7.732H333.082C332.89 7.732 332.698 7.756 332.506 7.804C332.322 7.844 332.15 7.92 331.99 8.032C331.838 8.144 331.71 8.284 331.606 8.452C331.51 8.612 331.442 8.788 331.402 8.98C331.362 9.164 331.342 9.352 331.342 9.544V11.812C331.342 12.052 331.374 12.288 331.438 12.52C331.502 12.752 331.614 12.956 331.774 13.132C331.942 13.308 332.138 13.436 332.362 13.516C332.594 13.588 332.83 13.624 333.07 13.624C333.254 13.624 333.434 13.6 333.61 13.552C333.794 13.504 333.958 13.42 334.102 13.3C334.246 13.18 334.362 13.04 334.45 12.88C334.538 12.72 334.598 12.548 334.63 12.364C334.662 12.18 334.678 11.996 334.678 11.812V7.72C334.678 7.432 334.646 7.152 334.582 6.88C334.518 6.608 334.402 6.356 334.234 6.124C334.074 5.892 333.874 5.7 333.634 5.548C333.394 5.396 333.134 5.292 332.854 5.236C332.582 5.18 332.306 5.152 332.026 5.152C331.746 5.152 331.466 5.18 331.186 5.236C330.914 5.292 330.658 5.396 330.418 5.548C330.178 5.7 329.974 5.892 329.806 6.124C329.646 6.356 329.534 6.608 329.47 6.88C329.406 7.152 329.374 7.432 329.374 7.72V13.12C329.374 13.4 329.406 13.68 329.47 13.96C329.534 14.232 329.646 14.484 329.806 14.716C329.974 14.948 330.178 15.14 330.418 15.292C330.658 15.444 330.914 15.548 331.186 15.604C331.466 15.66 331.746 15.688 332.026 15.688ZM333.058 12.424C332.97 12.424 332.89 12.392 332.818 12.328C332.754 12.256 332.714 12.176 332.698 12.088C332.682 12 332.674 11.908 332.674 11.812V9.544C332.674 9.448 332.682 9.356 332.698 9.268C332.722 9.18 332.766 9.104 332.83 9.04C332.902 8.968 332.986 8.932 333.082 8.932H333.346V11.812C333.346 12.22 333.25 12.424 333.058 12.424ZM336.528 14.5H341.352V13.168H339.78V5.68H336.72V7.012H338.292V13.168H336.528V14.5ZM343.442 14.5H348.266V13.168H346.694V5.68H343.634V7.012H345.206V13.168H343.442V14.5ZM352.805 14.596C353.117 14.596 353.425 14.564 353.729 14.5C354.041 14.436 354.329 14.316 354.593 14.14C354.857 13.964 355.069 13.74 355.229 13.468C355.389 13.188 355.477 12.892 355.493 12.58H354.017C354.001 12.748 353.921 12.888 353.777 13C353.633 13.112 353.477 13.184 353.309 13.216C353.141 13.248 352.973 13.264 352.805 13.264C352.629 13.264 352.457 13.24 352.289 13.192C352.121 13.136 351.973 13.048 351.845 12.928C351.725 12.808 351.637 12.664 351.581 12.496C351.525 12.328 351.497 12.16 351.497 11.992H355.517V10.66C355.517 10.372 355.481 10.088 355.409 9.808C355.345 9.52 355.225 9.26 355.049 9.028C354.881 8.788 354.673 8.592 354.425 8.44C354.177 8.288 353.909 8.184 353.621 8.128C353.341 8.072 353.057 8.044 352.769 8.044C352.481 8.044 352.193 8.072 351.905 8.128C351.625 8.184 351.361 8.288 351.113 8.44C350.865 8.592 350.653 8.788 350.477 9.028C350.309 9.26 350.189 9.52 350.117 9.808C350.053 10.088 350.021 10.372 350.021 10.66V11.98C350.021 12.22 350.041 12.46 350.081 12.7C350.129 12.94 350.213 13.168 350.333 13.384C350.453 13.592 350.601 13.78 350.777 13.948C350.961 14.108 351.165 14.24 351.389 14.344C351.613 14.44 351.845 14.504 352.085 14.536C352.325 14.576 352.565 14.596 352.805 14.596ZM351.497 10.648C351.497 10.48 351.521 10.316 351.569 10.156C351.625 9.988 351.713 9.844 351.833 9.724C351.953 9.596 352.097 9.508 352.265 9.46C352.433 9.404 352.601 9.376 352.769 9.376C352.937 9.376 353.105 9.404 353.273 9.46C353.441 9.508 353.585 9.596 353.705 9.724C353.825 9.844 353.909 9.988 353.957 10.156C354.013 10.316 354.041 10.48 354.041 10.648H351.497ZM360.283 14.596C360.539 14.596 360.791 14.556 361.039 14.476C361.287 14.396 361.503 14.268 361.687 14.092C361.879 13.916 362.031 13.712 362.143 13.48C362.255 13.24 362.331 12.996 362.371 12.748C362.411 12.492 362.431 12.236 362.431 11.98V10.66C362.431 10.404 362.411 10.152 362.371 9.904C362.331 9.648 362.255 9.404 362.143 9.172C362.031 8.932 361.879 8.724 361.687 8.548C361.503 8.372 361.287 8.244 361.039 8.164C360.791 8.084 360.539 8.044 360.283 8.044C359.451 8.044 358.859 8.408 358.507 9.136V5.68H357.031V14.5H358.507V13.504C358.859 14.232 359.451 14.596 360.283 14.596ZM359.695 13.264C359.527 13.264 359.363 13.236 359.203 13.18C359.043 13.124 358.907 13.032 358.795 12.904C358.691 12.776 358.615 12.632 358.567 12.472C358.527 12.312 358.507 12.148 358.507 11.98V10.66C358.507 10.492 358.527 10.328 358.567 10.168C358.615 10.008 358.691 9.864 358.795 9.736C358.907 9.608 359.043 9.516 359.203 9.46C359.363 9.404 359.527 9.376 359.695 9.376C359.863 9.376 360.027 9.404 360.187 9.46C360.355 9.508 360.499 9.596 360.619 9.724C360.747 9.844 360.835 9.988 360.883 10.156C360.931 10.324 360.955 10.492 360.955 10.66V11.98C360.955 12.148 360.931 12.316 360.883 12.484C360.835 12.652 360.747 12.8 360.619 12.928C360.499 13.048 360.355 13.136 360.187 13.192C360.027 13.24 359.863 13.264 359.695 13.264ZM366.597 14.596C366.757 14.596 366.913 14.572 367.065 14.524C367.217 14.476 367.349 14.396 367.461 14.284C367.581 14.172 367.661 14.04 367.701 13.888C367.749 13.736 367.773 13.58 367.773 13.42C367.773 13.26 367.749 13.104 367.701 12.952C367.661 12.8 367.581 12.668 367.461 12.556C367.349 12.436 367.217 12.356 367.065 12.316C366.913 12.268 366.757 12.244 366.597 12.244C366.437 12.244 366.281 12.268 366.129 12.316C365.977 12.356 365.845 12.436 365.733 12.556C365.621 12.668 365.541 12.8 365.493 12.952C365.445 13.104 365.421 13.26 365.421 13.42C365.421 13.58 365.445 13.736 365.493 13.888C365.541 14.04 365.621 14.172 365.733 14.284C365.845 14.396 365.977 14.476 366.129 14.524C366.281 14.572 366.437 14.596 366.597 14.596ZM370.535 14.5H371.939V9.904C371.939 9.808 371.951 9.716 371.975 9.628C371.999 9.532 372.047 9.456 372.119 9.4C372.199 9.336 372.283 9.304 372.371 9.304C372.467 9.304 372.551 9.336 372.623 9.4C372.703 9.456 372.755 9.532 372.779 9.628C372.803 9.716 372.815 9.808 372.815 9.904V14.5H374.207V9.904C374.207 9.808 374.219 9.716 374.243 9.628C374.267 9.532 374.315 9.456 374.387 9.4C374.467 9.336 374.555 9.304 374.651 9.304C374.739 9.304 374.819 9.336 374.891 9.4C374.971 9.456 375.023 9.532 375.047 9.628C375.071 9.716 375.083 9.808 375.083 9.904V14.5H376.487V9.904C376.487 9.736 376.475 9.568 376.451 9.4C376.435 9.232 376.395 9.068 376.331 8.908C376.275 8.748 376.195 8.6 376.091 8.464C375.987 8.32 375.855 8.216 375.695 8.152C375.543 8.08 375.383 8.044 375.215 8.044C374.655 8.044 374.279 8.352 374.087 8.968C373.887 8.352 373.503 8.044 372.935 8.044C372.487 8.044 372.155 8.252 371.939 8.668V8.14H370.535V14.5ZM380.461 14.596C380.773 14.596 381.081 14.564 381.385 14.5C381.697 14.436 381.985 14.316 382.249 14.14C382.513 13.964 382.725 13.74 382.885 13.468C383.045 13.188 383.133 12.892 383.149 12.58H381.673C381.657 12.748 381.577 12.888 381.433 13C381.289 13.112 381.133 13.184 380.965 13.216C380.797 13.248 380.629 13.264 380.461 13.264C380.285 13.264 380.113 13.24 379.945 13.192C379.777 13.136 379.629 13.048 379.501 12.928C379.381 12.808 379.293 12.664 379.237 12.496C379.181 12.328 379.153 12.16 379.153 11.992H383.173V10.66C383.173 10.372 383.137 10.088 383.065 9.808C383.001 9.52 382.881 9.26 382.705 9.028C382.537 8.788 382.329 8.592 382.081 8.44C381.833 8.288 381.565 8.184 381.277 8.128C380.997 8.072 380.713 8.044 380.425 8.044C380.137 8.044 379.849 8.072 379.561 8.128C379.281 8.184 379.017 8.288 378.769 8.44C378.521 8.592 378.309 8.788 378.133 9.028C377.965 9.26 377.845 9.52 377.773 9.808C377.709 10.088 377.677 10.372 377.677 10.66V11.98C377.677 12.22 377.697 12.46 377.737 12.7C377.785 12.94 377.869 13.168 377.989 13.384C378.109 13.592 378.257 13.78 378.433 13.948C378.617 14.108 378.821 14.24 379.045 14.344C379.269 14.44 379.501 14.504 379.741 14.536C379.981 14.576 380.221 14.596 380.461 14.596ZM379.153 10.648C379.153 10.48 379.177 10.316 379.225 10.156C379.281 9.988 379.369 9.844 379.489 9.724C379.609 9.596 379.753 9.508 379.921 9.46C380.089 9.404 380.257 9.376 380.425 9.376C380.593 9.376 380.761 9.404 380.929 9.46C381.097 9.508 381.241 9.596 381.361 9.724C381.481 9.844 381.565 9.988 381.613 10.156C381.669 10.316 381.697 10.48 381.697 10.648H379.153Z" fill="white"/>
<rect x="-0.5" y="-0.5" width="401" height="21" stroke="black"/>
</g>
<defs>
<clipPath id="clip0">
<rect width="400" height="300" fill="white"/>
</clipPath>
</defs>
</svg>
