<svg width="400" height="300" viewBox="0 0 400 300" fill="none" xmlns="http://www.w3.org/2000/svg">
<rect width="400" height="300" fill="#36393F"/>
<rect x="25" y="25" width="56" height="56" rx="28" fill="#FF453A"/>
<path d="M46.5068 67.2226C59.7144 67.2226 66.9384 56.2802 66.9384 46.791C66.9384 46.4802 66.9384 46.1708 66.9174 45.8628C68.3228 44.8463 69.5359 43.5876 70.5 42.1458C69.1894 42.7265 67.7992 43.1074 66.3756 43.2756C67.8746 42.3782 68.9966 40.9667 69.5326 39.3038C68.123 40.1402 66.5809 40.7297 64.9728 41.0468C63.8901 39.8956 62.4582 39.1332 60.8986 38.8778C59.339 38.6224 57.7387 38.8881 56.3454 39.6338C54.952 40.3795 53.8432 41.5636 53.1907 43.0029C52.5381 44.4423 52.3781 46.0566 52.7354 47.596C49.8805 47.4529 47.0875 46.711 44.5379 45.4184C41.9883 44.1259 39.739 42.3116 37.936 40.0934C37.0177 41.6742 36.7365 43.5456 37.1495 45.3265C37.5626 47.1074 38.6388 48.664 40.1592 49.6792C39.0164 49.6453 37.8986 49.3371 36.9 48.7804C36.9 48.8098 36.9 48.8406 36.9 48.8714C36.9005 50.5293 37.4744 52.136 38.5244 53.419C39.5744 54.702 41.0359 55.5823 42.661 55.9106C41.6038 56.1989 40.4946 56.2411 39.4186 56.0338C39.8775 57.4606 40.7708 58.7084 41.9737 59.6025C43.1766 60.4966 44.6289 60.9925 46.1274 61.0206C43.5846 63.019 40.4435 64.1039 37.2094 64.1006C36.6381 64.0995 36.0673 64.0649 35.5 63.997C38.7839 66.1044 42.6049 67.2222 46.5068 67.217" fill="white"/>
<path d="M108.578 46.044L108.314 44.372C108.072 44.416 107.764 44.438 107.412 44.438C106.312 44.438 105.96 43.91 105.96 43.052V37.156H108.49L108.226 35.506H105.96V31.722L104.046 32.008V35.506H102.462V37.156H104.046V43.404C104.046 45.516 105.256 46.176 107.104 46.176C107.786 46.176 108.248 46.11 108.578 46.044ZM124.487 35.506H122.573L120.329 43.118L117.997 35.506H116.347L114.015 43.118L111.705 35.352L109.835 35.66L113.223 46H114.741L117.139 38.058L119.559 46H121.099L124.487 35.506ZM134.784 40.544C134.784 37.64 133.376 35.286 130.318 35.286C127.678 35.286 125.698 37.354 125.698 40.72C125.698 44.57 127.832 46.22 130.56 46.22C132.298 46.22 133.64 45.692 134.762 44.812L134.476 43.052C133.332 43.954 132.232 44.548 130.714 44.548C128.888 44.548 127.722 43.404 127.656 40.962H134.784C134.784 40.83 134.784 40.654 134.784 40.544ZM132.804 39.488H127.744C128.052 37.684 129.086 36.826 130.296 36.826C131.814 36.826 132.562 37.794 132.804 39.488ZM145.762 40.544C145.762 37.64 144.354 35.286 141.296 35.286C138.656 35.286 136.676 37.354 136.676 40.72C136.676 44.57 138.81 46.22 141.538 46.22C143.276 46.22 144.618 45.692 145.74 44.812L145.454 43.052C144.31 43.954 143.21 44.548 141.692 44.548C139.866 44.548 138.7 43.404 138.634 40.962H145.762C145.762 40.83 145.762 40.654 145.762 40.544ZM143.782 39.488H138.722C139.03 37.684 140.064 36.826 141.274 36.826C142.792 36.826 143.54 37.794 143.782 39.488ZM153.287 46.044L153.023 44.372C152.781 44.416 152.473 44.438 152.121 44.438C151.021 44.438 150.669 43.91 150.669 43.052V37.156H153.199L152.935 35.506H150.669V31.722L148.755 32.008V35.506H147.171V37.156H148.755V43.404C148.755 45.516 149.965 46.176 151.813 46.176C152.495 46.176 152.957 46.11 153.287 46.044ZM164.067 40.544C164.067 37.64 162.659 35.286 159.601 35.286C156.961 35.286 154.981 37.354 154.981 40.72C154.981 44.57 157.115 46.22 159.843 46.22C161.581 46.22 162.923 45.692 164.045 44.812L163.759 43.052C162.615 43.954 161.515 44.548 159.997 44.548C158.171 44.548 157.005 43.404 156.939 40.962H164.067C164.067 40.83 164.067 40.654 164.067 40.544ZM162.087 39.488H157.027C157.335 37.684 158.369 36.826 159.579 36.826C161.097 36.826 161.845 37.794 162.087 39.488ZM172.428 37.156L172.12 35.286C170.404 35.374 169.194 36.452 168.446 37.64L168.116 35.506H166.554V46H168.512V39.796C169.216 38.41 170.69 37.244 172.428 37.156Z" fill="#FF453A"/>
<rect x="181" y="26.5" width="38" height="22" rx="5" fill="#7289DA"/>
<path d="M194.042 39.672C194.042 38.398 193.314 37.67 192.236 37.348C193.104 36.984 193.622 36.326 193.622 35.346C193.622 33.862 192.628 32.84 190.5 32.84H188.162V42.5H190.472C192.698 42.5 194.042 41.604 194.042 39.672ZM192.334 35.388C192.334 36.34 191.648 36.9 190.374 36.9H189.45V33.96H190.472C191.788 33.96 192.334 34.506 192.334 35.388ZM192.754 39.7C192.754 40.82 191.956 41.38 190.57 41.38H189.45V37.978H190.528C191.97 37.978 192.754 38.58 192.754 39.7ZM204.303 37.656C204.303 34.674 202.595 32.658 199.865 32.658C197.149 32.658 195.399 34.688 195.399 37.684C195.399 40.666 197.121 42.682 199.837 42.682C202.567 42.682 204.303 40.638 204.303 37.656ZM202.945 37.67C202.945 39.994 201.769 41.478 199.851 41.478C197.947 41.478 196.757 39.994 196.757 37.67C196.757 35.346 197.933 33.862 199.851 33.862C201.755 33.862 202.945 35.346 202.945 37.67ZM212.467 34.044L212.271 32.84H204.907V34.044H207.987V42.5H209.303V34.044H212.467Z" fill="white"/>
<rect x="102" y="57" width="272" height="217" rx="4" fill="#2F3136"/>
<rect x="102" y="57" width="5" height="217" fill="#1DA1F2"/>
<rect x="125" y="82.5" width="32" height="32" rx="16" fill="#FF453A"/>
<path fill-rule="evenodd" clip-rule="evenodd" d="M137.8 90.82H133.96V106.18H137.8V102.34V94.66H141.64C143.761 94.66 145.48 96.3792 145.48 98.5C145.48 100.621 143.761 102.34 141.64 102.34C139.994 102.34 139.994 104.205 139.994 106.18H141.64C145.882 106.18 149.32 102.742 149.32 98.5C149.32 94.2585 145.882 90.82 141.64 90.82H137.8Z" fill="black"/>
<path d="M179.92 99.08C179.92 95.04 177.46 92.2 172.66 92.2H168.66V106H172.58C177.32 106 179.92 103.18 179.92 99.08ZM177.98 99.1C177.98 102.62 175.98 104.3 172.66 104.3H170.54V93.9H172.72C175.88 93.9 177.98 95.64 177.98 99.1ZM189.507 106V99.32C189.507 97.2 188.387 96.26 186.067 96.26C184.587 96.26 183.507 96.6 182.367 97.06L182.607 98.6C183.647 98.14 184.747 97.78 185.907 97.78C187.007 97.78 187.727 98.2 187.727 99.4V99.8C183.747 100.22 181.707 101.16 181.707 103.54C181.707 105.16 182.787 106.2 184.507 106.2C186.067 106.2 187.107 105.5 187.867 104.72L188.067 106H189.507ZM187.727 103.38C186.927 104.2 185.927 104.72 184.887 104.72C183.987 104.72 183.467 104.22 183.467 103.44C183.467 102.46 184.207 101.5 187.727 101.16V103.38ZM200.047 106V99.06C200.047 97.34 199.087 96.26 197.287 96.26C195.927 96.26 194.807 97.02 193.907 97.84L193.687 96.46H192.267V106H194.047V99.4C194.907 98.48 195.867 97.86 196.807 97.86C197.847 97.86 198.267 98.52 198.267 99.5V106H200.047ZM204.974 93.42C204.974 92.8 204.474 92.28 203.854 92.28C203.234 92.28 202.714 92.8 202.714 93.42C202.714 94.04 203.234 94.54 203.854 94.54C204.474 94.54 204.974 94.04 204.974 93.42ZM204.734 106V96.46H202.954V106H204.734ZM215.397 101.04C215.397 98.4 214.117 96.26 211.337 96.26C208.937 96.26 207.137 98.14 207.137 101.2C207.137 104.7 209.077 106.2 211.557 106.2C213.137 106.2 214.357 105.72 215.377 104.92L215.117 103.32C214.077 104.14 213.077 104.68 211.697 104.68C210.037 104.68 208.977 103.64 208.917 101.42H215.397C215.397 101.3 215.397 101.14 215.397 101.04ZM213.597 100.08H208.997C209.277 98.44 210.217 97.66 211.317 97.66C212.697 97.66 213.377 98.54 213.597 100.08ZM219.578 106V91.56L217.798 91.84V106H219.578ZM232.776 107.5C229.836 104.84 228.696 102.54 228.696 99.78C228.696 96.94 229.776 94.86 232.136 93.16L231.856 91.48C228.596 93.54 226.796 96.22 226.796 99.74C226.796 103.12 228.256 105.44 231.056 107.88L232.776 107.5ZM243.161 102.12C242.261 103.24 241.641 103.72 240.961 103.72C240.321 103.72 239.981 103.28 239.981 102.28C239.981 99.92 241.281 98.44 242.561 98.44C243.061 98.44 243.301 98.5 243.721 98.64L243.161 102.12ZM243.261 103.38C243.541 104.46 244.521 105.02 245.721 105.02C247.921 105.02 249.301 103 249.301 99.92C249.301 95.98 246.741 93.46 242.841 93.46C238.221 93.46 234.661 97.48 234.661 102.32C234.661 106.46 237.241 108.8 241.221 108.8C243.101 108.8 244.601 108.38 245.761 107.84L245.641 107.12C244.421 107.72 243.021 108.1 241.301 108.1C238.021 108.1 235.541 106.32 235.541 102.3C235.541 97.58 238.841 94.18 242.761 94.18C245.961 94.18 248.441 96.1 248.441 99.94C248.441 102.62 247.361 104.08 245.961 104.08C245.141 104.08 244.661 103.6 244.661 102.8C244.661 102.48 244.701 102.02 244.741 101.76L245.361 97.7C244.521 97.4 243.641 97.2 242.721 97.2C240.541 97.2 238.441 99.3 238.441 102.48C238.441 104.26 239.481 105.02 240.541 105.02C241.501 105.02 242.261 104.52 243.261 103.38ZM258.919 105.18L258.659 103.58C257.679 104.42 256.839 104.64 255.879 104.64C254.199 104.64 253.019 103.54 253.019 101.22C253.019 99 254.119 97.82 255.679 97.82C256.779 97.82 257.679 98.16 258.559 98.88L258.819 97.14C258.099 96.62 257.099 96.26 255.699 96.26C253.219 96.26 251.219 97.98 251.219 101.24C251.219 104.42 253.099 106.2 255.659 106.2C256.939 106.2 257.939 105.92 258.919 105.18ZM268.934 96.46H267.114L264.574 103.92L261.974 96.32L260.214 96.6L263.694 106.04L263.334 107.02C263.054 107.78 262.554 108.14 261.814 108.14C261.474 108.14 261.114 108.08 260.814 108L261.054 109.56C261.234 109.6 261.434 109.64 261.674 109.64C263.254 109.64 264.274 109.06 265.094 106.84L268.934 96.46ZM277.65 105.18L277.39 103.58C276.41 104.42 275.57 104.64 274.61 104.64C272.93 104.64 271.75 103.54 271.75 101.22C271.75 99 272.85 97.82 274.41 97.82C275.51 97.82 276.41 98.16 277.29 98.88L277.55 97.14C276.83 96.62 275.83 96.26 274.43 96.26C271.95 96.26 269.95 97.98 269.95 101.24C269.95 104.42 271.83 106.2 274.39 106.2C275.67 106.2 276.67 105.92 277.65 105.18ZM287.825 105.84L283.465 100.68L287.485 96.46H285.345L281.645 100.46V91.56L279.865 91.84V106H281.645V101L285.885 106.14L287.825 105.84ZM291.414 106V91.56L289.634 91.84V106H291.414ZM299.777 99.72C299.777 96.34 298.337 94.02 295.537 91.56L293.817 91.94C296.757 94.62 297.897 96.9 297.897 99.66C297.897 102.52 296.797 104.58 294.437 106.3L294.737 107.98C297.997 105.9 299.777 103.24 299.777 99.72Z" fill="white"/>
<path d="M137.4 145.5V131.7H135.52V137.42H128.54V131.7H126.66V145.5H128.54V139.14H135.52V145.5H137.4ZM148.183 140.54C148.183 137.9 146.903 135.76 144.123 135.76C141.723 135.76 139.923 137.64 139.923 140.7C139.923 144.2 141.863 145.7 144.342 145.7C145.923 145.7 147.143 145.22 148.163 144.42L147.903 142.82C146.863 143.64 145.863 144.18 144.483 144.18C142.823 144.18 141.763 143.14 141.702 140.92H148.183C148.183 140.8 148.183 140.64 148.183 140.54ZM146.383 139.58H141.783C142.063 137.94 143.003 137.16 144.103 137.16C145.483 137.16 146.163 138.04 146.383 139.58ZM152.363 145.5V131.06L150.583 131.34V145.5H152.363ZM157.226 145.5V131.06L155.446 131.34V145.5H157.226ZM168.45 140.74C168.45 137.6 166.57 135.76 164.01 135.76C161.47 135.76 159.63 137.6 159.63 140.74C159.63 143.88 161.47 145.7 164.01 145.7C166.57 145.7 168.45 143.88 168.45 140.74ZM166.65 140.74C166.65 142.74 165.77 144.22 164.01 144.22C162.33 144.22 161.43 142.7 161.43 140.74C161.43 138.74 162.29 137.26 164.01 137.26C165.73 137.26 166.65 138.78 166.65 140.74ZM172.741 143.12H170.681L169.681 147.92L170.661 148.16L172.741 143.12ZM193.006 145.5V138.56C193.006 136.84 192.126 135.76 190.306 135.76C188.966 135.76 187.806 136.52 186.946 137.34C186.586 136.36 185.826 135.76 184.426 135.76C183.086 135.76 182.006 136.52 181.106 137.34L180.886 135.96H179.466V145.5H181.246V138.9C182.106 137.98 183.006 137.36 183.946 137.36C184.986 137.36 185.346 138.02 185.346 139V145.5H187.126V138.9C187.986 137.98 188.886 137.36 189.826 137.36C190.866 137.36 191.226 138.02 191.226 139V145.5H193.006ZM203.399 135.96H201.579L199.039 143.42L196.439 135.82L194.679 136.1L198.159 145.54L197.799 146.52C197.519 147.28 197.019 147.64 196.279 147.64C195.939 147.64 195.579 147.58 195.279 147.5L195.519 149.06C195.699 149.1 195.899 149.14 196.139 149.14C197.719 149.14 198.739 148.56 199.559 146.34L203.399 135.96ZM217.442 145.5V138.56C217.442 136.84 216.482 135.76 214.682 135.76C213.322 135.76 212.202 136.52 211.302 137.34L211.082 135.96H209.662V145.5H211.442V138.9C212.302 137.98 213.262 137.36 214.202 137.36C215.242 137.36 215.662 138.02 215.662 139V145.5H217.442ZM227.429 145.5V138.82C227.429 136.7 226.309 135.76 223.989 135.76C222.509 135.76 221.429 136.1 220.289 136.56L220.529 138.1C221.569 137.64 222.669 137.28 223.829 137.28C224.929 137.28 225.649 137.7 225.649 138.9V139.3C221.669 139.72 219.629 140.66 219.629 143.04C219.629 144.66 220.709 145.7 222.429 145.7C223.989 145.7 225.029 145 225.789 144.22L225.989 145.5H227.429ZM225.649 142.88C224.849 143.7 223.849 144.22 222.809 144.22C221.909 144.22 221.389 143.72 221.389 142.94C221.389 141.96 222.129 141 225.649 140.66V142.88ZM243.729 145.5V138.56C243.729 136.84 242.849 135.76 241.029 135.76C239.689 135.76 238.529 136.52 237.669 137.34C237.309 136.36 236.549 135.76 235.149 135.76C233.809 135.76 232.729 136.52 231.829 137.34L231.609 135.96H230.189V145.5H231.969V138.9C232.829 137.98 233.729 137.36 234.669 137.36C235.709 137.36 236.069 138.02 236.069 139V145.5H237.849V138.9C238.709 137.98 239.609 137.36 240.549 137.36C241.589 137.36 241.949 138.02 241.949 139V145.5H243.729ZM254.218 140.54C254.218 137.9 252.938 135.76 250.158 135.76C247.758 135.76 245.958 137.64 245.958 140.7C245.958 144.2 247.898 145.7 250.378 145.7C251.958 145.7 253.178 145.22 254.198 144.42L253.938 142.82C252.898 143.64 251.898 144.18 250.518 144.18C248.858 144.18 247.798 143.14 247.738 140.92H254.218C254.218 140.8 254.218 140.64 254.218 140.54ZM252.418 139.58H247.818C248.098 137.94 249.038 137.16 250.138 137.16C251.518 137.16 252.198 138.04 252.418 139.58ZM263.033 132.92C263.033 132.3 262.533 131.78 261.913 131.78C261.293 131.78 260.773 132.3 260.773 132.92C260.773 133.54 261.293 134.04 261.913 134.04C262.533 134.04 263.033 133.54 263.033 132.92ZM262.793 145.5V135.96H261.013V145.5H262.793ZM272.396 142.84C272.396 141.02 271.336 140.34 268.976 139.74C267.476 139.36 266.996 139 266.996 138.36C266.996 137.68 267.556 137.26 268.636 137.26C269.636 137.26 270.696 137.6 271.536 138.08L271.816 136.4C270.916 136 269.856 135.76 268.676 135.76C266.596 135.76 265.316 136.88 265.316 138.4C265.316 140.1 266.216 140.78 268.456 141.34C270.176 141.76 270.716 142.08 270.716 142.96C270.716 143.76 269.996 144.22 268.776 144.22C267.476 144.22 266.316 143.74 265.416 143.12L265.156 144.8C265.976 145.26 267.376 145.7 268.636 145.7C271.096 145.7 272.396 144.58 272.396 142.84ZM289.038 133.42L288.758 131.7H278.238V133.42H282.638V145.5H284.518V133.42H289.038ZM301.087 135.96H299.347L297.307 142.88L295.187 135.96H293.687L291.567 142.88L289.467 135.82L287.767 136.1L290.847 145.5H292.227L294.407 138.28L296.607 145.5H298.007L301.087 135.96ZM310.448 140.54C310.448 137.9 309.168 135.76 306.388 135.76C303.988 135.76 302.188 137.64 302.188 140.7C302.188 144.2 304.128 145.7 306.608 145.7C308.188 145.7 309.408 145.22 310.428 144.42L310.168 142.82C309.128 143.64 308.128 144.18 306.748 144.18C305.088 144.18 304.028 143.14 303.968 140.92H310.448C310.448 140.8 310.448 140.64 310.448 140.54ZM308.648 139.58H304.048C304.328 137.94 305.268 137.16 306.368 137.16C307.748 137.16 308.428 138.04 308.648 139.58ZM320.429 140.54C320.429 137.9 319.149 135.76 316.369 135.76C313.969 135.76 312.169 137.64 312.169 140.7C312.169 144.2 314.109 145.7 316.589 145.7C318.169 145.7 319.389 145.22 320.409 144.42L320.149 142.82C319.109 143.64 318.109 144.18 316.729 144.18C315.069 144.18 314.009 143.14 313.949 140.92H320.429C320.429 140.8 320.429 140.64 320.429 140.54ZM318.629 139.58H314.029C314.309 137.94 315.249 137.16 316.349 137.16C317.729 137.16 318.409 138.04 318.629 139.58ZM327.269 145.54L327.029 144.02C326.809 144.06 326.529 144.08 326.209 144.08C325.209 144.08 324.889 143.6 324.889 142.82V137.46H327.189L326.949 135.96H324.889V132.52L323.149 132.78V135.96H321.709V137.46H323.149V143.14C323.149 145.06 324.249 145.66 325.929 145.66C326.549 145.66 326.969 145.6 327.269 145.54ZM337.069 140.54C337.069 137.9 335.789 135.76 333.009 135.76C330.609 135.76 328.809 137.64 328.809 140.7C328.809 144.2 330.749 145.7 333.229 145.7C334.809 145.7 336.029 145.22 337.049 144.42L336.789 142.82C335.749 143.64 334.749 144.18 333.369 144.18C331.709 144.18 330.649 143.14 330.589 140.92H337.069C337.069 140.8 337.069 140.64 337.069 140.54ZM335.269 139.58H330.669C330.949 137.94 331.889 137.16 332.989 137.16C334.369 137.16 335.049 138.04 335.269 139.58ZM344.67 137.46L344.39 135.76C342.83 135.84 341.73 136.82 341.05 137.9L340.75 135.96H339.33V145.5H341.11V139.86C341.75 138.6 343.09 137.54 344.67 137.46ZM348.898 131.7H346.758L347.238 141.4L348.398 141.14L348.898 131.7ZM348.818 145.5V143.12H346.818V145.5H348.818Z" fill="white"/>
<path d="M133.12 170.72C133.12 172.28 131.96 173.1 130.14 173.1H128.54V168.36H130.34C132.18 168.36 133.12 169.22 133.12 170.72ZM131.98 174.44C133.78 173.94 135 172.7 135 170.62C135 168.1 133.24 166.7 130.42 166.7H126.66V180.5H128.54V174.68H129.96L134.18 180.64L136.08 180.22L131.98 174.44ZM145.175 175.54C145.175 172.9 143.895 170.76 141.115 170.76C138.715 170.76 136.915 172.64 136.915 175.7C136.915 179.2 138.855 180.7 141.335 180.7C142.915 180.7 144.135 180.22 145.155 179.42L144.895 177.82C143.855 178.64 142.855 179.18 141.475 179.18C139.815 179.18 138.755 178.14 138.695 175.92H145.175C145.175 175.8 145.175 175.64 145.175 175.54ZM143.375 174.58H138.775C139.055 172.94 139.995 172.16 141.095 172.16C142.475 172.16 143.155 173.04 143.375 174.58ZM152.015 180.54L151.775 179.02C151.555 179.06 151.275 179.08 150.955 179.08C149.955 179.08 149.635 178.6 149.635 177.82V172.46H151.935L151.695 170.96H149.635V167.52L147.895 167.78V170.96H146.455V172.46H147.895V178.14C147.895 180.06 148.995 180.66 150.675 180.66C151.295 180.66 151.715 180.6 152.015 180.54ZM166.478 170.96H164.738L162.698 177.88L160.578 170.96H159.078L156.958 177.88L154.858 170.82L153.158 171.1L156.238 180.5H157.618L159.798 173.28L161.998 180.5H163.398L166.478 170.96ZM175.839 175.54C175.839 172.9 174.559 170.76 171.779 170.76C169.379 170.76 167.579 172.64 167.579 175.7C167.579 179.2 169.519 180.7 171.999 180.7C173.579 180.7 174.799 180.22 175.819 179.42L175.559 177.82C174.519 178.64 173.519 179.18 172.139 179.18C170.479 179.18 169.419 178.14 169.359 175.92H175.839C175.839 175.8 175.839 175.64 175.839 175.54ZM174.039 174.58H169.439C169.719 172.94 170.659 172.16 171.759 172.16C173.139 172.16 173.819 173.04 174.039 174.58ZM185.819 175.54C185.819 172.9 184.539 170.76 181.759 170.76C179.359 170.76 177.559 172.64 177.559 175.7C177.559 179.2 179.499 180.7 181.979 180.7C183.559 180.7 184.779 180.22 185.799 179.42L185.539 177.82C184.499 178.64 183.499 179.18 182.119 179.18C180.459 179.18 179.399 178.14 179.339 175.92H185.819C185.819 175.8 185.819 175.64 185.819 175.54ZM184.019 174.58H179.419C179.699 172.94 180.639 172.16 181.739 172.16C183.119 172.16 183.799 173.04 184.019 174.58ZM192.66 180.54L192.42 179.02C192.2 179.06 191.92 179.08 191.6 179.08C190.6 179.08 190.28 178.6 190.28 177.82V172.46H192.58L192.34 170.96H190.28V167.52L188.54 167.78V170.96H187.1V172.46H188.54V178.14C188.54 180.06 189.64 180.66 191.32 180.66C191.94 180.66 192.36 180.6 192.66 180.54ZM201.478 177.84C201.478 176.02 200.418 175.34 198.058 174.74C196.558 174.36 196.078 174 196.078 173.36C196.078 172.68 196.638 172.26 197.718 172.26C198.718 172.26 199.778 172.6 200.618 173.08L200.898 171.4C199.998 171 198.938 170.76 197.758 170.76C195.678 170.76 194.398 171.88 194.398 173.4C194.398 175.1 195.298 175.78 197.538 176.34C199.258 176.76 199.798 177.08 199.798 177.96C199.798 178.76 199.078 179.22 197.858 179.22C196.558 179.22 195.398 178.74 194.498 178.12L194.238 179.8C195.058 180.26 196.458 180.7 197.718 180.7C200.178 180.7 201.478 179.58 201.478 177.84Z" fill="white"/>
<path d="M131.18 203.78C129.02 202.88 128.18 202.4 128.18 201.18C128.18 200.1 129.02 199.24 130.7 199.24C132.32 199.24 133.22 199.98 133.22 201.14C133.22 202.18 132.4 203.12 131.18 203.78ZM130.22 205.04C132.78 206.08 133.66 206.6 133.66 208.02C133.66 209.38 132.46 210.24 130.7 210.24C128.96 210.24 127.7 209.42 127.7 207.96C127.7 206.74 128.7 205.72 130.22 205.04ZM128.72 204.38C127.08 205.24 125.9 206.44 125.9 208.04C125.9 210.06 127.56 211.76 130.66 211.76C133.62 211.76 135.46 210.16 135.46 208.08C135.46 206.14 134.4 205.24 132.62 204.4C133.92 203.66 134.98 202.62 134.98 201.1C134.98 199.18 133.36 197.72 130.74 197.72C128.14 197.72 126.42 199.2 126.42 201.2C126.42 202.84 127.34 203.7 128.72 204.38ZM145.676 199.38V197.98H136.716L136.956 199.6H143.656L138.496 211.24L140.256 211.64L145.676 199.38ZM151.998 211.5V197.94H150.438L147.198 199.44L147.398 200.88L150.218 199.82V211.5H151.998ZM163.606 211.5L163.366 209.9H157.146L161.006 205.98C162.666 204.28 163.406 203.18 163.406 201.54C163.406 199.22 161.806 197.72 159.186 197.72C157.506 197.72 156.146 198.38 155.146 199.24L155.406 200.98C156.466 200.04 157.686 199.38 159.086 199.38C160.666 199.38 161.546 200.14 161.546 201.66C161.546 202.76 161.006 203.62 159.786 204.9L154.786 210.12V211.5H163.606Z" fill="white"/>
<path d="M259.78 180.5L259.52 178.78H254.54V166.7H252.66V180.5H259.78ZM263.915 167.92C263.915 167.3 263.415 166.78 262.795 166.78C262.175 166.78 261.655 167.3 261.655 167.92C261.655 168.54 262.175 169.04 262.795 169.04C263.415 169.04 263.915 168.54 263.915 167.92ZM263.675 180.5V170.96H261.895V180.5H263.675ZM274.579 180.34L270.219 175.18L274.239 170.96H272.099L268.399 174.96V166.06L266.619 166.34V180.5H268.399V175.5L272.639 180.64L274.579 180.34ZM283.421 175.54C283.421 172.9 282.141 170.76 279.361 170.76C276.961 170.76 275.161 172.64 275.161 175.7C275.161 179.2 277.101 180.7 279.581 180.7C281.161 180.7 282.381 180.22 283.401 179.42L283.141 177.82C282.101 178.64 281.101 179.18 279.721 179.18C278.061 179.18 277.001 178.14 276.941 175.92H283.421C283.421 175.8 283.421 175.64 283.421 175.54ZM281.621 174.58H277.021C277.301 172.94 278.241 172.16 279.341 172.16C280.721 172.16 281.401 173.04 281.621 174.58ZM292.341 177.84C292.341 176.02 291.281 175.34 288.921 174.74C287.421 174.36 286.941 174 286.941 173.36C286.941 172.68 287.501 172.26 288.581 172.26C289.581 172.26 290.641 172.6 291.481 173.08L291.761 171.4C290.861 171 289.801 170.76 288.621 170.76C286.541 170.76 285.261 171.88 285.261 173.4C285.261 175.1 286.161 175.78 288.401 176.34C290.121 176.76 290.661 177.08 290.661 177.96C290.661 178.76 289.941 179.22 288.721 179.22C287.421 179.22 286.261 178.74 285.361 178.12L285.101 179.8C285.921 180.26 287.321 180.7 288.581 180.7C291.041 180.7 292.341 179.58 292.341 177.84Z" fill="white"/>
<path d="M256.24 211.5V197.94H254.68L251.44 199.44L251.64 200.88L254.46 199.82V211.5H256.24ZM267.508 207.8C267.508 205.92 266.508 204.86 264.768 204.38C266.228 203.9 267.248 202.94 267.248 201.26C267.248 199.44 265.988 197.72 262.948 197.72C261.268 197.72 260.068 198.2 259.028 198.96L259.288 200.64C260.288 199.84 261.468 199.34 262.868 199.34C264.568 199.34 265.408 200.18 265.408 201.34C265.408 202.8 264.348 203.6 262.108 203.6H261.088L261.348 205.2H261.968C264.568 205.2 265.668 206.18 265.668 207.82C265.668 209.34 264.568 210.14 262.788 210.14C261.368 210.14 260.248 209.72 259.108 208.94L258.808 210.7C259.848 211.34 261.268 211.76 262.688 211.76C265.648 211.76 267.508 210.18 267.508 207.8ZM276.742 205.42C276.042 208.2 273.722 209.56 270.942 210.16L271.202 211.76C275.602 210.82 278.702 208.1 278.702 203.44C278.702 199.7 276.662 197.72 273.822 197.72C271.142 197.72 269.182 199.58 269.182 202.2C269.182 204.82 270.762 206.44 273.382 206.44C274.662 206.44 275.802 206.04 276.742 205.42ZM276.962 203.68C276.022 204.44 274.982 204.86 273.762 204.86C271.842 204.86 270.982 203.84 270.982 202.12C270.982 200.32 272.102 199.3 273.782 199.3C275.702 199.3 276.962 200.96 276.962 203.54V203.68ZM289.059 211.5L288.819 209.9H282.599L286.459 205.98C288.119 204.28 288.859 203.18 288.859 201.54C288.859 199.22 287.259 197.72 284.639 197.72C282.959 197.72 281.599 198.38 280.599 199.24L280.859 200.98C281.919 200.04 283.139 199.38 284.539 199.38C286.119 199.38 286.999 200.14 286.999 201.66C286.999 202.76 286.459 203.62 285.239 204.9L280.239 210.12V211.5H289.059ZM298.363 205.42C297.663 208.2 295.343 209.56 292.563 210.16L292.823 211.76C297.223 210.82 300.323 208.1 300.323 203.44C300.323 199.7 298.283 197.72 295.443 197.72C292.763 197.72 290.803 199.58 290.803 202.2C290.803 204.82 292.383 206.44 295.003 206.44C296.283 206.44 297.423 206.04 298.363 205.42ZM298.583 203.68C297.643 204.44 296.603 204.86 295.383 204.86C293.463 204.86 292.603 203.84 292.603 202.12C292.603 200.32 293.723 199.3 295.403 199.3C297.323 199.3 298.583 200.96 298.583 203.54V203.68ZM309.652 205.42C308.952 208.2 306.632 209.56 303.852 210.16L304.112 211.76C308.512 210.82 311.612 208.1 311.612 203.44C311.612 199.7 309.572 197.72 306.732 197.72C304.052 197.72 302.092 199.58 302.092 202.2C302.092 204.82 303.672 206.44 306.292 206.44C307.572 206.44 308.712 206.04 309.652 205.42ZM309.872 203.68C308.932 204.44 307.892 204.86 306.672 204.86C304.752 204.86 303.892 203.84 303.892 202.12C303.892 200.32 305.012 199.3 306.692 199.3C308.612 199.3 309.872 200.96 309.872 203.54V203.68Z" fill="white"/>
<path d="M131.29 246.126C138.837 246.126 142.965 239.873 142.965 234.45C142.965 234.273 142.965 234.096 142.953 233.92C143.756 233.339 144.449 232.62 145 231.796C144.251 232.128 143.457 232.345 142.643 232.442C143.5 231.929 144.141 231.122 144.447 230.172C143.642 230.65 142.761 230.987 141.842 231.168C141.223 230.51 140.405 230.074 139.513 229.928C138.622 229.783 137.708 229.934 136.912 230.36C136.115 230.787 135.482 231.463 135.109 232.286C134.736 233.108 134.645 234.031 134.849 234.91C133.217 234.829 131.621 234.405 130.165 233.666C128.708 232.927 127.422 231.891 126.392 230.623C125.867 231.526 125.707 232.596 125.943 233.613C126.179 234.631 126.794 235.521 127.662 236.101C127.009 236.081 126.371 235.905 125.8 235.587C125.8 235.604 125.8 235.622 125.8 235.639C125.8 236.586 126.128 237.505 126.728 238.238C127.328 238.971 128.163 239.474 129.092 239.662C128.488 239.826 127.854 239.85 127.239 239.732C127.501 240.547 128.012 241.26 128.699 241.771C129.387 242.282 130.216 242.565 131.073 242.582C129.62 243.723 127.825 244.343 125.977 244.342C125.65 244.341 125.324 244.321 125 244.282C126.877 245.487 129.06 246.125 131.29 246.122" fill="#1DA1F2"/>
<path d="M163.314 233.628L163.062 232.08H153.594V233.628H157.554V244.5H159.246V233.628H163.314ZM174.158 235.914H172.592L170.756 242.142L168.848 235.914H167.498L165.59 242.142L163.7 235.788L162.17 236.04L164.942 244.5H166.184L168.146 238.002L170.126 244.5H171.386L174.158 235.914ZM177.86 233.178C177.86 232.62 177.41 232.152 176.852 232.152C176.294 232.152 175.826 232.62 175.826 233.178C175.826 233.736 176.294 234.186 176.852 234.186C177.41 234.186 177.86 233.736 177.86 233.178ZM177.644 244.5V235.914H176.042V244.5H177.644ZM184.415 244.536L184.199 243.168C184.001 243.204 183.749 243.222 183.461 243.222C182.561 243.222 182.273 242.79 182.273 242.088V237.264H184.343L184.127 235.914H182.273V232.818L180.707 233.052V235.914H179.411V237.264H180.707V242.376C180.707 244.104 181.697 244.644 183.209 244.644C183.767 244.644 184.145 244.59 184.415 244.536ZM190.48 244.536L190.264 243.168C190.066 243.204 189.814 243.222 189.526 243.222C188.626 243.222 188.338 242.79 188.338 242.088V237.264H190.408L190.192 235.914H188.338V232.818L186.772 233.052V235.914H185.476V237.264H186.772V242.376C186.772 244.104 187.762 244.644 189.274 244.644C189.832 244.644 190.21 244.59 190.48 244.536ZM199.3 240.036C199.3 237.66 198.148 235.734 195.646 235.734C193.486 235.734 191.866 237.426 191.866 240.18C191.866 243.33 193.612 244.68 195.844 244.68C197.266 244.68 198.364 244.248 199.282 243.528L199.048 242.088C198.112 242.826 197.212 243.312 195.97 243.312C194.476 243.312 193.522 242.376 193.468 240.378H199.3C199.3 240.27 199.3 240.126 199.3 240.036ZM197.68 239.172H193.54C193.792 237.696 194.638 236.994 195.628 236.994C196.87 236.994 197.482 237.786 197.68 239.172ZM206.14 237.264L205.888 235.734C204.484 235.806 203.494 236.688 202.882 237.66L202.612 235.914H201.334V244.5H202.936V239.424C203.512 238.29 204.718 237.336 206.14 237.264Z" fill="#DCDDD8"/>
</svg>
